#N canvas 962 48 476 1011 10;
#X obj 87 134 ossia.client;
#X obj 87 156 print;
#X msg 87 90 connect osc test 127.0.0.1 12345 6789;
#X msg 102 111 namespace;
#X obj 85 223 print;
#N canvas 1442 48 476 1011 sendosc 1;
#X obj 98 325 mrpeach/udpsend;
#X msg 118 285 connect 127.0.0.1 6789;
#X obj 98 228 mrpeach/packOSC;
#X obj 98 88 metro 1000;
#X obj 98 130 random 256;
#X msg 98 152 /foo \$1;
#X obj 98 65 tgl 15 0 empty empty empty 17 7 0 10 -262144 -1 -1 1 1
;
#X obj 98 347 == 0;
#X obj 98 110 t b b;
#X obj 213 234 spigot 1;
#X connect 0 0 7 0;
#X connect 1 0 0 0;
#X connect 2 0 0 0;
#X connect 3 0 8 0;
#X connect 4 0 5 0;
#X connect 5 0 2 0;
#X connect 6 0 3 0;
#X connect 7 0 9 1;
#X connect 8 0 4 0;
#X connect 8 1 9 0;
#X connect 9 0 1 0;
#X restore 82 306 pd sendosc;
#X msg 170 112 update;
#X msg 24 37 register;
#X floatatom 128 229 5 0 0 0 - - -, f 5;
#X obj 85 201 ossia.param /foo;
#X connect 0 0 1 0;
#X connect 2 0 0 0;
#X connect 3 0 0 0;
#X connect 6 0 0 0;
#X connect 7 0 0 0;
#X connect 9 0 4 0;
#X connect 9 0 8 0;
