#N canvas 590 219 450 382 10;
#X floatatom 101 89 5 0 0 0 - - -, f 5;
#X floatatom 97 153 5 0 0 0 - - -, f 5;
#X msg 160 94 clip both;
#X obj 278 170 route address;
#X msg 145 51 getclip;
#X floatatom 45 304 5 0 0 0 - - -, f 5;
#X msg 102 280 mute \$1;
#X obj 102 254 tgl 15 0 empty empty empty 17 7 0 10 -262144 -1 -1 0
1;
#X msg 289 87 mute \$1;
#X obj 289 61 tgl 15 0 empty empty empty 17 7 0 10 -262144 -1 -1 0
1;
#X obj 179 335 route address;
#X msg 165 258 range -10 10;
#X msg 149 227 clip low;
#X msg 221 225 range -10 10;
#X obj 366 194 print param;
#X obj 267 359 print remote;
#X msg 25 206 getrange;
#X msg 70 48 getrange;
#X msg 175 273 range 0 1;
#X obj 97 131 ø.param range @type vec3f @clip both;
#X obj 102 303 ø.remote range;
#X connect 0 0 19 0;
#X connect 2 0 19 0;
#X connect 3 1 14 0;
#X connect 4 0 19 0;
#X connect 5 0 20 0;
#X connect 6 0 20 0;
#X connect 7 0 6 0;
#X connect 8 0 19 0;
#X connect 9 0 8 0;
#X connect 10 1 15 0;
#X connect 11 0 20 0;
#X connect 12 0 20 0;
#X connect 16 0 20 0;
#X connect 17 0 19 0;
#X connect 18 0 20 0;
#X connect 19 0 1 0;
#X connect 19 1 3 0;
#X connect 20 0 5 0;
#X connect 20 2 10 0;
