#N canvas 742 306 450 300 10;
#X obj 59 157 print;
#X obj 197 58 ø.param foo;
#X obj 196 94 ø.param foo;
#X obj 59 129 ø;
#X obj 198 121 ø.param foo;
#N canvas 1258 350 450 300 device 1;
#X obj 63 211 ø.device subDevice;
#X obj 246 63 ø.param foo;
#X msg 71 175 expose oscquery;
#X floatatom 245 33 5 0 0 0 - - -, f 5;
#X floatatom 246 85 5 0 0 0 - - -, f 5;
#X obj 63 233 print device;
#X floatatom 348 36 5 0 0 0 - - -, f 5;
#X floatatom 351 88 5 0 0 0 - - -, f 5;
#X obj 351 66 ø.param bar;
#X connect 0 0 5 0;
#X connect 1 0 4 0;
#X connect 2 0 0 0;
#X connect 3 0 1 0;
#X connect 6 0 8 0;
#X connect 8 0 7 0;
#X restore 170 236 pd device;
#N canvas 1253 733 450 300 client 0;
#X obj 81 122 ø.client;
#X msg 82 90 connect oscquery;
#X obj 243 163 ø.remote foo;
#X floatatom 188 164 5 0 0 0 - - -, f 5;
#X obj 80 144 print client;
#X obj 240 56 ø.param bar;
#X floatatom 237 27 5 0 0 0 - - -, f 5;
#X floatatom 240 78 5 0 0 0 - - -, f 5;
#X floatatom 194 197 5 0 0 0 - - -, f 5;
#X obj 249 196 ø.remote bar;
#X msg 56 67 update;
#X connect 0 0 4 0;
#X connect 1 0 0 0;
#X connect 2 0 3 0;
#X connect 3 0 2 0;
#X connect 5 0 7 0;
#X connect 6 0 5 0;
#X connect 8 0 9 0;
#X connect 9 0 8 0;
#X connect 10 0 0 0;
#X restore 258 246 pd client;
#X connect 3 0 0 0;
