#N canvas 942 533 901 300 10;
#X msg 347 206 dump;
#X obj 347 253 print;
#X symbolatom 599 30 10 0 0 0 - - -, f 10;
#X obj 571 29 bng 15 250 50 0 empty empty empty 17 7 0 10 -262144 -1
-1;
#X msg 467 180 expose Minuit localhost 13579 9998;
#X msg 467 200 expose oscquery 9999 5678;
#X symbolatom 572 82 10 0 0 0 - - -, f 10;
#X msg 467 159 expose osc localhost 9997 9996;
#X msg 337 166 help;
#X obj 568 56 ossia.param string @type symbol @default coco;
#X obj 302 78 ossia.remote string;
#X msg 221 168 register;
#X symbolatom 254 35 10 0 0 0 - - -, f 10;
#X obj 231 34 bng 15 250 50 0 empty empty empty 17 7 0 10 -262144 -1
-1;
#X symbolatom 227 79 10 0 0 0 - - -, f 10;
#N canvas 93 780 450 300 one 1;
#X msg 174 148 dump;
#X obj 174 195 print;
#X obj 125 34 ossia.param foo @range -100 100;
#X floatatom 81 34 5 0 0 0 - - -, f 5;
#X obj 174 172 ossia.model levelOne;
#X obj 227 103 ossia.remote foo;
#X floatatom 180 107 5 0 0 0 - - -, f 5;
#X connect 0 0 4 0;
#X connect 3 0 2 0;
#X connect 4 0 1 0;
#X connect 5 0 6 0;
#X connect 6 0 5 0;
#X restore 72 198 pd one;
#N canvas 480 518 438 374 two 1;
#N canvas 715 362 450 300 sub 0;
#X obj 180 141 ossia.model subTwo;
#N canvas 0 106 450 300 (subpatch) 0;
#X obj 190 145 ossia.model subthree;
#X restore 242 213 pd;
#X restore 155 143 pd sub;
#X restore 53 119 pd two;
#X floatatom 30 164 5 0 0 0 - - -, f 5;
#X msg 122 138 dump;
#X obj 174 201 print;
#X obj 70 164 ossia.remote freq;
#X msg 23 33 dump;
#X obj 120 87 print;
#X floatatom 65 31 5 0 0 0 - - -, f 5;
#X floatatom 29 80 5 0 0 0 - - -, f 5;
#X obj 29 58 ossia.param freq @unit Hz @default 440;
#X obj 347 230 ossia.device Pd;
#N canvas 565 780 450 300 one 1;
#X msg 174 148 dump;
#X obj 174 195 print;
#X obj 125 34 ossia.param foo @range -100 100;
#X floatatom 81 34 5 0 0 0 - - -, f 5;
#X obj 227 103 ossia.remote foo;
#X floatatom 180 107 5 0 0 0 - - -, f 5;
#X obj 174 171 ossia.model levelOne;
#X connect 0 0 6 0;
#X connect 3 0 2 0;
#X connect 4 0 5 0;
#X connect 5 0 4 0;
#X connect 6 0 1 0;
#X restore 68 232 pd one;
#X connect 0 0 26 0;
#X connect 2 0 9 0;
#X connect 3 0 9 0;
#X connect 4 0 26 0;
#X connect 5 0 26 0;
#X connect 7 0 26 0;
#X connect 8 0 26 0;
#X connect 9 0 6 0;
#X connect 10 0 14 0;
#X connect 11 0 26 0;
#X connect 12 0 10 0;
#X connect 13 0 10 0;
#X connect 14 0 10 0;
#X connect 17 0 20 0;
#X connect 18 0 20 0;
#X connect 20 0 17 0;
#X connect 20 2 19 0;
#X connect 21 0 25 0;
#X connect 23 0 25 0;
#X connect 25 0 24 0;
#X connect 26 0 1 0;
