#N canvas 534 93 813 300 10;
#X obj 79 170 ossia.param source.<1..3>/gain @type vec2f;
#X floatatom 77 76 5 0 0 0 - - -, f 5;
#X floatatom 129 74 5 0 0 0 - - -, f 5;
#X obj 79 142 pack;
#X obj 106 103 t b f;
#X obj 85 219 print;
#X floatatom 407 76 5 0 0 0 - - -, f 5;
#X obj 415 219 print;
#X obj 409 170 ossia.param source.<1..3>/gain @type float;
#X connect 0 0 5 0;
#X connect 0 1 5 0;
#X connect 1 0 3 0;
#X connect 2 0 4 0;
#X connect 3 0 0 0;
#X connect 4 0 3 0;
#X connect 4 1 3 1;
#X connect 6 0 8 0;
#X connect 8 0 7 0;
#X connect 8 1 7 0;
