#N canvas 691 382 577 300 10;
#X obj 129 226 bng 15 250 50 0 empty empty empty 17 7 0 10 -262144
-1 -1;
#X msg 153 215 dump;
#X obj 129 271 print DEVICE;
#X msg 202 219 loadbang;
#X obj 129 249 ossia.device B;
#X obj 111 43 a.model model1;
#X obj 112 62 a.model model2;
#X connect 0 0 4 0;
#X connect 1 0 4 0;
#X connect 3 0 4 0;
#X connect 4 0 2 0;
