max v2;
#N vpatcher 808 154 1267 387;
#P flonum 118 145 150;
#P message 168 139 50 10 dump;
#N vpatcher 799 409 1355 709;
#P newex 204 140 100 10 ø.model foo.1;
#P flonum 107 80 150;
#P flonum 307 80 150;
#P flonum 413 81 150;
#P flonum 114 22 150;
#P flonum 303 24 150;
#P flonum 418 22 150;
#P newex 414 60 100 10 ø.param bach;
#P newex 115 49 100 10 ø.param bar;
#P newex 59 176 100 10 ø.param bar;
#P flonum 59 198 150;
#P flonum 59 146 150;
#P newex 279 47 100 10 ø.param baron;
#P flonum 325 215 150;
#P newex 372 214 100 10 ø.remote /foo.1/bar;
#P connect 10 0 6 0;
#P connect 9 0 2 0;
#P connect 8 0 7 0;
#P connect 7 0 11 0;
#P connect 6 0 13 0;
#P connect 5 0 4 0;
#P connect 3 0 5 0;
#P connect 2 0 12 0;
#P connect 1 0 0 0;
#P connect 0 0 1 0;
#P pop;
#P newobj 101 48 50 10 p model;
#P newex 237 91 100 10 ossia.device test-pat.3;
#P newex 117 168 100 10 ø.remote foo.1/bar;
#P newex 236 117 100 10 print dev3;
#P message 237 67 200 10 expose oscquery 10020 6779;
#P newex 236 39 50 10 loadbang;
#P connect 7 0 3 0;
#P connect 6 0 3 0;
#P connect 4 0 2 0;
#P connect 1 0 4 0;
#P connect 0 0 1 0;
#P pop;
