#N canvas 666 31 450 300 10;
#N canvas 1070 46 450 300 models 1;
#X obj 127 96 ø.model root;
#X obj 167 193 ø.param truc;
#N canvas 969 359 450 300 sub 1;
#X obj 143 70 ø.model sub;
#X obj 175 129 ø.param one;
#X floatatom 174 162 5 0 0 0 - - -, f 5;
#X connect 1 0 2 0;
#X restore 294 146 pd sub;
#X msg 128 65 namespace;
#X obj 134 126 print;
#N canvas 497 448 450 300 view 1;
#X floatatom 94 167 5 0 0 0 - - -, f 5;
#X obj 136 78 ø.view sub;
#X obj 162 167 ø.remote one;
#X obj 263 112 ø.param phantiom;
#X connect 0 0 2 0;
#X connect 2 0 0 0;
#X restore 337 245 pd view;
#X floatatom 171 240 5 0 0 0 - - -, f 5;
#X connect 0 0 4 0;
#X connect 1 0 6 0;
#X connect 3 0 0 0;
#X restore 118 117 pd models;
#N canvas 982 528 450 300 views 1;
#X obj 115 70 ø.view root;
#X floatatom 84 131 5 0 0 0 - - -, f 5;
#X obj 147 133 ø.remote truc;
#X obj 285 106 ø.param bidule;
#X connect 1 0 2 0;
#X connect 2 0 1 0;
#X restore 230 111 pd views;
#X msg 121 175 namespace;
#X obj 118 234 print;
#X obj 121 206 ossia root;
#X connect 2 0 4 0;
#X connect 4 0 3 0;
