#N canvas 630 22 810 466 10;
#X text 44 20 Create a local device to register all object in the same
patcher and subpatcher recursively.;
#X obj 74 291 print device_dump;
#X text 157 72 get namespace;
#X msg 95 98 expose;
#X text 234 123 expose with oscquery and default ports (osc: 9999 \,
ws: 5678);
#X msg 110 124 expose oscquery;
#X text 316 151 expose with oscquery and specific ports (resp. osc
& ws);
#X msg 122 151 expose oscquery 1234 9876;
#X floatatom 472 298 5 0 0 0 - - -, f 5;
#X floatatom 472 342 5 0 0 0 - - -, f 5;
#X obj 291 298 tgl 15 0 empty empty empty 17 7 0 10 -262144 -1 -1 0
1;
#X obj 291 342 tgl 15 0 empty empty empty 17 7 0 10 -262144 -1 -1 0
1;
#X msg 74 73 namespace;
#X obj 74 269 ø.device pd-device-help;
#X obj 291 319 ø.param bar @type bool;
#X text 286 270 here are some parameters to expose in the device:;
#N canvas 986 403 215 139 model 0;
#X floatatom 26 65 5 0 0 0 - - -, f 5;
#X floatatom 26 109 5 0 0 0 - - -, f 5;
#X obj 25 28 ø.model sub;
#X obj 26 85 ø.param aParam @type float;
#X connect 0 0 3 0;
#X connect 3 0 1 0;
#X restore 595 381 pd model;
#X text 204 383 more can be exposed in subpatchers \, e.g. using models:
;
#N canvas 307 374 473 124 ossia/ø 0;
#X text 62 56 ossia.theNameOftheObject;
#X text 47 28 all ossia-pd objects can indifferently be named:;
#X text 63 76 ø.theNameOftheObject;
#X restore 42 387 pd ossia/ø;
#X text 158 96 get supported protocols and syntax;
#X text 434 49 (open ossia-device-help.pd if you want to remote-control
this patcher), f 36;
#N canvas 0 22 361 184 presets 0;
#X obj 196 126 outlet;
#X obj 52 60 savepanel;
#X obj 53 36 bng 15 250 50 0 empty empty empty 17 7 0 10 -262144 -1
-1;
#X msg 51 85 preset save \$1.json;
#X obj 318 36 bng 15 250 50 0 empty empty empty 17 7 0 10 -262144 -1
-1;
#X obj 222 59 openpanel;
#X msg 222 84 preset load \$1;
#X text 77 35 <- save presets or recall them ->;
#X connect 1 0 3 0;
#X connect 2 0 1 0;
#X connect 3 0 0 0;
#X connect 4 0 5 0;
#X connect 5 0 6 0;
#X connect 6 0 0 0;
#X restore 141 235 pd presets;
#X text 227 235 preset management in here;
#X obj 630 345 print;
#X obj 472 319 ø.param foo @type float;
#X msg 128 182 get protocols;
#X msg 134 209 stop 0;
#X text 242 182 get a list of all protocols this device is exposed
through;
#X text 226 209 stop exposing this device (if it's only exposed once)
;
#X connect 3 0 13 0;
#X connect 5 0 13 0;
#X connect 7 0 13 0;
#X connect 8 0 24 0;
#X connect 10 0 14 0;
#X connect 12 0 13 0;
#X connect 13 0 1 0;
#X connect 14 0 11 0;
#X connect 21 0 13 0;
#X connect 24 0 9 0;
#X connect 24 1 23 0;
#X connect 25 0 13 0;
#X connect 26 0 13 0;
