#N canvas 806 661 643 400 10;
#X obj 107 119 bng 15 250 50 0 empty empty empty 17 7 0 10 -262144
-1 -1;
#X msg 58 87 dump;
#X obj 107 186 print, f 6;
#X msg 135 113 loadbang;
#X floatatom 228 100 5 0 0 0 - - -, f 5;
#X msg 272 71 dump;
#X floatatom 396 123 5 0 0 0 - - -, f 5;
#X obj 204 204 ossia.model testModel;
#X floatatom 143 20 5 0 0 0 - - -, f 5;
#X obj 200 1 bng 15 250 50 0 empty empty empty 17 7 0 10 -262144 -1
-1;
#X obj 272 100 ossia.param testParam @range 0 100;
#X obj 107 142 ossia.device B @localport 9998 @remoteport 13579 @remoteip
127.0.0.1 @protocol Minuit;
#X obj 507 120 print;
#X obj 199 20 ossia.remote testParam;
#X connect 0 0 11 0;
#X connect 1 0 11 0;
#X connect 3 0 11 0;
#X connect 4 0 10 0;
#X connect 5 0 10 0;
#X connect 8 0 13 0;
#X connect 9 0 13 0;
#X connect 10 0 4 0;
#X connect 10 1 6 0;
#X connect 10 2 12 0;
#X connect 11 0 2 0;
#X connect 13 0 8 0;
