#N canvas 1331 22 496 412 10;
#X text 35 19 [ossia.client] connects to a remote OSSIA device and
let you access its nodes with [ossia.view] and [ossia.remote].;
#X msg 64 114 connect oscquery;
#X msg 111 201 connect;
#X text 35 19 [ossia.client] connects to a remote OSSIA device and
let you access its nodes with [ossia.view] and [ossia.remote].;
#X floatatom 81 326 5 0 0 0 - - -, f 5;
#X obj 61 306 ø.remote /foo;
#X msg 111 201 connect;
#X msg 91 150 connect oscquery ws://127.0.0.1:9876;
#X text 177 114 connect if your device has default ports;
#X text 331 149 connect;
#X text 108 170 if the device has been exposed with specific ports
;
#X text 168 200 get some more info in the console;
#X text 160 302 if there is a /foo param in your device \,;
#X text 158 320 it should be accessible from here;
#N canvas 307 374 473 124 ossia/ø 0;
#X text 62 56 ossia.theNameOftheObject;
#X text 47 28 all ossia-pd objects can indifferently be named:;
#X text 63 76 ø.theNameOftheObject;
#X restore 355 360 pd ossia/ø;
#X obj 66 350 ø.remote /sub/aParam;
#X floatatom 86 368 5 0 0 0 - - -, f 5;
#X text 208 349 or other nodes;
#X text 40 54 for this example to work \, you need to open ossia-device-help.pd
, f 66;
#X text 81 263 after properly connecting to the remote device \, the
ø.remotes below should be connected;
#X obj 64 237 ø.client max-device-help;
#X connect 1 0 20 0;
#X connect 2 0 20 0;
#X connect 4 0 5 0;
#X connect 5 0 4 0;
#X connect 7 0 20 0;
#X connect 15 0 16 0;
#X connect 16 0 15 0;
