#N canvas 289 53 592 132 10;
#X text 35 19 [ø.view] allows to connect a series of [ø.remote]s
to an [ø.model] instance., f 76;
#N canvas 289 209 592 315 view 1;
#X floatatom 20 56 5 0 0 0 - - -, f 5;
#X obj 20 17 ossia.view my_model;
#X text 163 17 the name of the model to connect to has to be put as
argument, f 61;
#X text 189 35 here we connect to the model in there:;
#X text 158 56 move the connected number box and look into the patch
above;
#X obj 61 54 ø.remote foo;
#X text 17 264 Last but not least if you double click on [ossia.view]
the connected [ossia.model] will appear \, if it is locally available
(not over a network connection)., f 83;
#X text 28 184 just like models \, views can be nested:;
#X text 27 99 You can have only one [ossia.view] per patcher.;
#X text 16 227 One can also dynamically bind a view to models - see
in:;
#N canvas 882 260 594 140 bind_to_views 1;
#X floatatom 311 112 5 0 0 0 - - -, f 5;
#X obj 352 110 ossia.remote foo;
#X text 20 11 Dynamically bind to another instance of model.;
#X msg 71 70 bind /my_model/my_submodel;
#X msg 28 37 bind my_submodel.1;
#X obj 60 107 ossia.view my_submodel;
#X text 240 71 or absolute (leading slash refers to the root);
#X text 169 37 addresses can be relative to the view hierarchy (no
leading slash), f 66;
#X connect 0 0 1 0;
#X connect 1 0 0 0;
#X connect 3 0 5 0;
#X connect 4 0 5 0;
#X restore 413 226 pd bind_to_views;
#N canvas 882 423 222 96 subview 1;
#X obj 16 14 ossia.view my_submodel;
#X obj 68 45 ossia.remote foo;
#X floatatom 19 46 5 0 0 0 - - -, f 5;
#X connect 1 0 2 0;
#X connect 2 0 1 0;
#X restore 301 182 pd subview;
#X text 29 129 Also \, models and views can coexist in the same patcher
(because remotes would'nt know which one to refer to);
#X connect 0 0 5 0;
#X connect 5 0 0 0;
#X restore 178 56 pd view;
#N canvas 882 53 215 184 models 1;
#X obj 46 34 ossia.model my_model;
#X obj 47 58 ossia.param foo;
#N canvas 1098 161 175 76 submodel 1;
#X obj 18 8 ossia.model my_submodel;
#X obj 18 31 ossia.param foo;
#N canvas 1274 161 202 76 submodel 1;
#X obj 17 33 ossia.param foo;
#X obj 17 9 ossia.model my_subsubmodel;
#X floatatom 17 55 5 0 0 0 - - -, f 5;
#X connect 0 0 2 0;
#X restore 91 51 pd submodel;
#X floatatom 18 53 5 0 0 0 - - -, f 5;
#X connect 1 0 3 0;
#X restore 47 116 pd submodel;
#N canvas 1096 52 177 89 submodel 1;
#X obj 17 11 ossia.model my_submodel;
#X obj 20 38 ossia.param foo;
#N canvas 1274 52 198 86 submodel 1;
#X obj 26 36 ossia.param foo;
#X obj 24 11 ossia.model my_subsubmodel;
#X floatatom 26 58 5 0 0 0 - - -, f 5;
#X connect 0 0 2 0;
#X restore 91 61 pd submodel;
#X floatatom 20 60 5 0 0 0 - - -, f 5;
#X connect 1 0 3 0;
#X restore 47 150 pd submodel;
#X floatatom 47 80 9 0 0 0 - - -, f 9;
#X connect 1 0 4 0;
#X restore 454 57 pd models;
#X text 24 57 open this subpatcher:;
#X text 234 57 which controls params in there:;
#N canvas 307 374 473 124 ossia/ø 0;
#X text 62 56 ossia.theNameOftheObject;
#X text 47 28 all ossia-pd objects can indifferently be named:;
#X text 63 76 ø.theNameOftheObject;
#X restore 34 92 pd ossia/ø;
