#N canvas 357 61 460 160 10;
#N canvas 357 244 461 352 localDevice 1;
#X obj 80 90 ossia.remote foo;
#X floatatom 45 91 5 0 0 0 - - -, f 5;
#X obj 295 89 ossia.param foo;
#X floatatom 262 89 5 0 0 0 - - -, f 5;
#X floatatom 295 111 5 0 0 0 - - -, f 5;
#N canvas 476 175 450 300 view 0;
#X obj 154 103 ossia.remote bar;
#X floatatom 114 104 5 0 0 0 - - -, f 5;
#X obj 143 198 ossia.view sub;
#X text 20 53 you can double click on a remote to locate its associated
osssia.param;
#X connect 0 0 1 0;
#X connect 1 0 0 0;
#X restore 206 148 pd view;
#N canvas 0 151 450 300 model 0;
#X floatatom 161 58 5 0 0 0 - - -, f 5;
#X floatatom 161 98 5 0 0 0 - - -, f 5;
#X obj 161 76 ossia.param bar;
#X obj 164 183 ossia.model sub;
#X connect 0 0 2 0;
#X connect 2 0 1 0;
#X restore 354 147 pd model;
#X obj 158 245 ossia.remote /sub/bar;
#X floatatom 121 246 5 0 0 0 - - -, f 5;
#X text 35 17 Here the remote connects to a local device and a local
parameter \, it acts more or less like a send/receive pair.;
#X text 41 59 the name of the remote binds it to the smilarrly named
param;
#X text 44 149 remotes are also used in :;
#X text 253 148 which works with;
#X text 45 200 when there are several levels of hierarchies \, one
can use absolute addresses \, refering to the current device's root
\, and starting with a leading slash:;
#X text 31 298 There is no [ossia.device] here so all ossia objects
refer to the default global device - see [ossia] for more on that,
f 61;
#X connect 0 0 1 0;
#X connect 1 0 0 0;
#X connect 2 0 4 0;
#X connect 3 0 2 0;
#X connect 7 0 8 0;
#X connect 8 0 7 0;
#X restore 102 62 pd localDevice;
#N canvas 307 374 473 124 ossia/ø 0;
#X text 62 56 ossia.theNameOftheObject;
#X text 47 28 all ossia-pd objects can indifferently be named:;
#X text 63 76 ø.theNameOftheObject;
#X restore 373 125 pd ossia/ø;
#X text 20 14 [ø.remote] allows to monitor and remote-control any
OSSIA parameter:, f 69;
#X text 22 39 - declared in Pd with [ø.param] and [ø.model];
#X text 59 62 as in:;
#X text 29 100 - but also on other OSSIA devices \, on the same computer
or remotely -> see ossia.client-help.pd for that., f 68;
