#N canvas 197 305 1222 394 10;
#X text 90 24 ossia.attribute connects to a parameter (like ossia.parameter)
and give access to its attributes remotely;
#X msg 33 189 unit km;
#X msg 47 209 unit mm;
#X msg 323 110 unit km;
#X msg 385 109 unit mm;
#X msg 172 231 clip both;
#X msg 162 211 clip free;
#X floatatom 296 141 5 0 0 0 - - -, f 5;
#X floatatom 268 209 5 0 0 0 - - -, f 5;
#X floatatom 512 294 5 0 0 0 - - -, f 5;
#X obj 556 292 ossia.remote foo;
#X obj 667 336 print remote;
#X msg 875 165 unit km;
#X msg 886 139 unit mm;
#X floatatom 848 196 5 0 0 0 - - -, f 5;
#X floatatom 865 290 5 0 0 0 - - -, f 5;
#X obj 105 317 ossia.attribute fo?;
#X msg 213 88 priority \$1;
#X floatatom 213 69 5 0 0 0 - - -, f 5;
#X msg 782 144 priority \$1;
#X floatatom 782 125 5 0 0 0 - - -, f 5;
#X msg 105 142 priority \$1;
#X floatatom 105 123 5 0 0 0 - - -, f 5;
#X msg 963 209 description "fol description";
#X msg 973 229 description "fol qdlkjqsldkj";
#X msg 314 296 range 1 3;
#X msg 314 318 range -1 1;
#X msg 22 169 get unit;
#X obj 651 225 print param:foo;
#X obj 995 293 print param:fol;
#X obj 105 339 print attribute:fo?;
#X msg 263 110 get unit;
#X msg 815 165 get unit;
#X msg 958 184 get clip;
#X msg 556 271 get unit;
#X msg 932 163 unit m;
#X msg 987 155 get type;
#X msg 177 256 get description;
#X msg 152 191 get clip;
#X msg 481 126 get description;
#X msg 308 266 get range;
#X msg 484 156 description "tip top tap";
#X msg 460 92 get range;
#X msg 341 74 get type;
#X msg 437 60 get default;
#X msg 548 77 default 4;
#X msg 644 78 get mode;
#X msg 650 114 mode get;
#X obj 865 268 ossia.parameter fol @type m;
#X obj 268 182 ossia.parameter foo @description "flop flip flap" @range
0 1 @clip free @type int @default 3 @mode get @unit km, f 72;
#X connect 1 0 16 0;
#X connect 2 0 16 0;
#X connect 3 0 49 0;
#X connect 4 0 49 0;
#X connect 5 0 16 0;
#X connect 6 0 16 0;
#X connect 7 0 49 0;
#X connect 9 0 10 0;
#X connect 10 0 9 0;
#X connect 10 2 11 0;
#X connect 12 0 48 0;
#X connect 13 0 48 0;
#X connect 14 0 48 0;
#X connect 16 0 30 0;
#X connect 17 0 49 0;
#X connect 18 0 17 0;
#X connect 19 0 48 0;
#X connect 20 0 19 0;
#X connect 21 0 16 0;
#X connect 22 0 21 0;
#X connect 23 0 48 0;
#X connect 24 0 48 0;
#X connect 25 0 16 0;
#X connect 26 0 16 0;
#X connect 27 0 16 0;
#X connect 31 0 49 0;
#X connect 32 0 48 0;
#X connect 33 0 48 0;
#X connect 34 0 10 0;
#X connect 35 0 48 0;
#X connect 36 0 48 0;
#X connect 37 0 16 0;
#X connect 38 0 16 0;
#X connect 39 0 49 0;
#X connect 40 0 16 0;
#X connect 41 0 49 0;
#X connect 42 0 49 0;
#X connect 43 0 49 0;
#X connect 44 0 49 0;
#X connect 45 0 49 0;
#X connect 46 0 49 0;
#X connect 47 0 49 0;
#X connect 48 0 15 0;
#X connect 48 1 29 0;
#X connect 49 0 8 0;
#X connect 49 1 28 0;
