{
	"patcher" : 	{
		"fileversion" : 1,
		"appversion" : 		{
			"major" : 9,
			"minor" : 0,
			"revision" : 4,
			"architecture" : "x64",
			"modernui" : 1
		}
,
		"classnamespace" : "box",
		"rect" : [ 100.0, 100.0, 1030.0, 491.0 ],
		"gridsize" : [ 5.0, 5.0 ],
		"toolbarvisible" : 0,
		"enablehscroll" : 0,
		"showrootpatcherontab" : 0,
		"showontab" : 0,
		"boxes" : [ 			{
				"box" : 				{
					"fontname" : "Arial",
					"fontsize" : 10.0,
					"id" : "obj-30",
					"maxclass" : "newobj",
					"numinlets" : 0,
					"numoutlets" : 0,
					"patcher" : 					{
						"fileversion" : 1,
						"appversion" : 						{
							"major" : 9,
							"minor" : 0,
							"revision" : 4,
							"architecture" : "x64",
							"modernui" : 1
						}
,
						"classnamespace" : "box",
						"rect" : [ 0.0, 26.0, 1030.0, 465.0 ],
						"gridsize" : [ 10.0, 10.0 ],
						"showontab" : 1,
						"boxes" : [  ],
						"lines" : [  ],
						"originid" : "pat-1302"
					}
,
					"patching_rect" : [ 730.0, 181.0, 24.0, 20.0 ],
					"saved_object_attributes" : 					{
						"globalpatchername" : ""
					}
,
					"text" : "p ?"
				}

			}
, 			{
				"box" : 				{
					"fontname" : "Arial",
					"fontsize" : 10.0,
					"id" : "obj-29",
					"maxclass" : "newobj",
					"numinlets" : 0,
					"numoutlets" : 0,
					"patcher" : 					{
						"fileversion" : 1,
						"appversion" : 						{
							"major" : 9,
							"minor" : 0,
							"revision" : 4,
							"architecture" : "x64",
							"modernui" : 1
						}
,
						"classnamespace" : "box",
						"rect" : [ 0.0, 26.0, 1030.0, 465.0 ],
						"gridonopen" : 2,
						"gridsize" : [ 15.0, 15.0 ],
						"gridsnaponopen" : 2,
						"objectsnaponopen" : 0,
						"showontab" : 1,
						"boxes" : [ 							{
								"box" : 								{
									"fontname" : "Lato Regular",
									"fontsize" : 48.0,
									"id" : "obj-2",
									"maxclass" : "comment",
									"numinlets" : 1,
									"numoutlets" : 0,
									"patching_rect" : [ 15.0, 0.0, 255.0, 64.0 ],
									"text" : "ossia.router"
								}

							}
, 							{
								"box" : 								{
									"bubble" : 1,
									"bubblepoint" : 0.2,
									"bubbleside" : 2,
									"bubbletextmargin" : 10,
									"fontname" : "Lato Regular",
									"fontsize" : 12.0,
									"id" : "obj-12",
									"maxclass" : "comment",
									"numinlets" : 1,
									"numoutlets" : 0,
									"patching_rect" : [ 15.0, 90.0, 165.0, 50.0 ],
									"text" : "Route relative addresses"
								}

							}
, 							{
								"box" : 								{
									"id" : "obj-11",
									"maxclass" : "button",
									"numinlets" : 1,
									"numoutlets" : 1,
									"outlettype" : [ "bang" ],
									"parameter_enable" : 0,
									"patching_rect" : [ 195.0, 225.0, 24.0, 24.0 ]
								}

							}
, 							{
								"box" : 								{
									"dontreplace" : 1,
									"id" : "obj-10",
									"maxclass" : "message",
									"numinlets" : 2,
									"numoutlets" : 1,
									"outlettype" : [ "" ],
									"patching_rect" : [ 119.75, 225.0, 60.0, 22.0 ]
								}

							}
, 							{
								"box" : 								{
									"id" : "obj-9",
									"maxclass" : "button",
									"numinlets" : 1,
									"numoutlets" : 1,
									"outlettype" : [ "bang" ],
									"parameter_enable" : 0,
									"patching_rect" : [ 89.75, 225.0, 24.0, 24.0 ]
								}

							}
, 							{
								"box" : 								{
									"id" : "obj-7",
									"maxclass" : "message",
									"numinlets" : 2,
									"numoutlets" : 1,
									"outlettype" : [ "" ],
									"patching_rect" : [ 15.0, 225.0, 60.0, 22.0 ],
									"text" : "/vegan 6"
								}

							}
, 							{
								"box" : 								{
									"fontname" : "Lato Regular",
									"fontsize" : 12.0,
									"id" : "obj-5",
									"maxclass" : "comment",
									"numinlets" : 1,
									"numoutlets" : 0,
									"patching_rect" : [ 15.0, 60.0, 317.0, 21.0 ],
									"text" : "ossia.router can route both absolute and relative addresses"
								}

							}
, 							{
								"box" : 								{
									"bubble" : 1,
									"bubblepoint" : 0.2,
									"bubbleside" : 2,
									"bubbletextmargin" : 10,
									"fontname" : "Lato Regular",
									"fontsize" : 12.0,
									"id" : "obj-3",
									"maxclass" : "comment",
									"numinlets" : 1,
									"numoutlets" : 0,
									"patching_rect" : [ 195.0, 90.0, 172.0, 50.0 ],
									"text" : "Route absolute addresses"
								}

							}
, 							{
								"box" : 								{
									"bgcolor" : [ 0.317647, 0.709804, 0.321569, 1.0 ],
									"bgcolor2" : [ 0.317647, 0.709804, 0.321569, 1.0 ],
									"bgfillcolor_angle" : 270.0,
									"bgfillcolor_autogradient" : 0.79,
									"bgfillcolor_color" : [ 0.0, 0.854901960784314, 0.282352941176471, 1.0 ],
									"bgfillcolor_color1" : [ 0.317647, 0.709804, 0.321569, 1.0 ],
									"bgfillcolor_color2" : [ 0.685, 0.685, 0.685, 1.0 ],
									"bgfillcolor_proportion" : 0.39,
									"bgfillcolor_type" : "color",
									"fontname" : "Arial",
									"fontsize" : 12.0,
									"gradient" : 1,
									"id" : "obj-36",
									"maxclass" : "message",
									"numinlets" : 2,
									"numoutlets" : 1,
									"outlettype" : [ "" ],
									"patching_rect" : [ 15.0, 135.0, 88.0, 22.0 ],
									"saved_attribute_attributes" : 									{
										"bgfillcolor" : 										{
											"expression" : "themecolor.live_macro_assignment"
										}

									}
,
									"text" : "potato/vegan 6",
									"textcolor" : [ 0.0, 0.0, 0.0, 1.0 ]
								}

							}
, 							{
								"box" : 								{
									"bgcolor" : [ 0.811765, 0.372549, 0.372549, 1.0 ],
									"bgcolor2" : [ 0.811765, 0.372549, 0.372549, 1.0 ],
									"bgfillcolor_angle" : 270.0,
									"bgfillcolor_autogradient" : 0.79,
									"bgfillcolor_color" : [ 1.0, 0.349019607843137, 0.372549019607843, 1.0 ],
									"bgfillcolor_color1" : [ 0.811765, 0.372549, 0.372549, 1.0 ],
									"bgfillcolor_color2" : [ 0.685, 0.685, 0.685, 1.0 ],
									"bgfillcolor_proportion" : 0.39,
									"bgfillcolor_type" : "color",
									"fontname" : "Arial",
									"fontsize" : 12.0,
									"gradient" : 1,
									"id" : "obj-33",
									"maxclass" : "message",
									"numinlets" : 2,
									"numoutlets" : 1,
									"outlettype" : [ "" ],
									"patching_rect" : [ 195.0, 135.0, 91.0, 22.0 ],
									"saved_attribute_attributes" : 									{
										"bgfillcolor" : 										{
											"expression" : "themecolor.live_record"
										}

									}
,
									"text" : "/potato/veggy 4",
									"textcolor" : [ 0.0, 0.0, 0.0, 1.0 ]
								}

							}
, 							{
								"box" : 								{
									"color" : [ 0.0, 0.933333333333333, 1.0, 1.0 ],
									"fontname" : "Arial",
									"fontsize" : 12.0,
									"id" : "obj-49",
									"maxclass" : "newobj",
									"numinlets" : 3,
									"numoutlets" : 3,
									"outlettype" : [ "", "", "" ],
									"patching_rect" : [ 15.0, 180.0, 148.0, 22.0 ],
									"saved_attribute_attributes" : 									{
										"color" : 										{
											"expression" : "themecolor.live_threshold_line_color"
										}

									}
,
									"saved_newobj_attribute_attributes" : 									{
										"color" : 										{
											"expression" : "themecolor.live_threshold_line_color"
										}

									}
,
									"text" : "ossia.router potato /potato"
								}

							}
 ],
						"lines" : [ 							{
								"patchline" : 								{
									"destination" : [ "obj-49", 0 ],
									"midpoints" : [ 204.5, 168.0, 24.5, 168.0 ],
									"source" : [ "obj-33", 0 ]
								}

							}
, 							{
								"patchline" : 								{
									"destination" : [ "obj-49", 0 ],
									"midpoints" : [ 24.5, 151.5, 24.5, 151.5 ],
									"source" : [ "obj-36", 0 ]
								}

							}
, 							{
								"patchline" : 								{
									"destination" : [ "obj-10", 1 ],
									"midpoints" : [ 89.0, 213.0, 170.25, 213.0 ],
									"order" : 1,
									"source" : [ "obj-49", 1 ]
								}

							}
, 							{
								"patchline" : 								{
									"destination" : [ "obj-11", 0 ],
									"midpoints" : [ 89.0, 213.0, 204.5, 213.0 ],
									"order" : 0,
									"source" : [ "obj-49", 1 ]
								}

							}
, 							{
								"patchline" : 								{
									"destination" : [ "obj-7", 1 ],
									"midpoints" : [ 24.5, 213.0, 65.5, 213.0 ],
									"order" : 1,
									"source" : [ "obj-49", 0 ]
								}

							}
, 							{
								"patchline" : 								{
									"destination" : [ "obj-9", 0 ],
									"midpoints" : [ 24.5, 213.0, 99.25, 213.0 ],
									"order" : 0,
									"source" : [ "obj-49", 0 ]
								}

							}
 ],
						"originid" : "pat-1304"
					}
,
					"patching_rect" : [ 503.0, 118.0, 162.0, 20.0 ],
					"saved_object_attributes" : 					{
						"globalpatchername" : ""
					}
,
					"text" : "p \"Absolute vs relative addresses\""
				}

			}
, 			{
				"box" : 				{
					"fontname" : "Arial",
					"fontsize" : 10.0,
					"id" : "obj-27",
					"maxclass" : "newobj",
					"numinlets" : 0,
					"numoutlets" : 0,
					"patcher" : 					{
						"fileversion" : 1,
						"appversion" : 						{
							"major" : 9,
							"minor" : 0,
							"revision" : 4,
							"architecture" : "x64",
							"modernui" : 1
						}
,
						"classnamespace" : "box",
						"rect" : [ 100.0, 126.0, 1030.0, 465.0 ],
						"gridonopen" : 2,
						"gridsize" : [ 15.0, 15.0 ],
						"gridsnaponopen" : 2,
						"objectsnaponopen" : 0,
						"toolbarvisible" : 0,
						"showontab" : 1,
						"boxes" : [ 							{
								"box" : 								{
									"id" : "obj-8",
									"maxclass" : "message",
									"numinlets" : 2,
									"numoutlets" : 1,
									"outlettype" : [ "" ],
									"patching_rect" : [ 795.0, 135.0, 83.0, 22.0 ],
									"text" : "/track.2/play 1"
								}

							}
, 							{
								"box" : 								{
									"id" : "obj-11",
									"maxclass" : "message",
									"numinlets" : 2,
									"numoutlets" : 1,
									"outlettype" : [ "" ],
									"patching_rect" : [ 795.0, 225.0, 83.0, 22.0 ],
									"text" : "/track.3/play 1"
								}

							}
, 							{
								"box" : 								{
									"id" : "obj-9",
									"maxclass" : "message",
									"numinlets" : 2,
									"numoutlets" : 1,
									"outlettype" : [ "" ],
									"patching_rect" : [ 870.0, 345.0, 90.0, 22.0 ],
									"text" : "/track.3/play 1"
								}

							}
, 							{
								"box" : 								{
									"bubble" : 1,
									"bubbletextmargin" : 10,
									"fontname" : "Lato Regular",
									"fontsize" : 12.0,
									"id" : "obj-2",
									"linecount" : 2,
									"maxclass" : "comment",
									"numinlets" : 1,
									"numoutlets" : 0,
									"patching_rect" : [ 885.0, 165.0, 127.0, 49.0 ],
									"text" : "Route no matter instance number"
								}

							}
, 							{
								"box" : 								{
									"id" : "obj-3",
									"maxclass" : "button",
									"numinlets" : 1,
									"numoutlets" : 1,
									"outlettype" : [ "bang" ],
									"parameter_enable" : 0,
									"patching_rect" : [ 795.0, 315.0, 24.0, 24.0 ]
								}

							}
, 							{
								"box" : 								{
									"id" : "obj-4",
									"maxclass" : "message",
									"numinlets" : 2,
									"numoutlets" : 1,
									"outlettype" : [ "" ],
									"patching_rect" : [ 795.0, 195.0, 87.0, 22.0 ],
									"text" : "/trrack.2/play 0"
								}

							}
, 							{
								"box" : 								{
									"id" : "obj-5",
									"maxclass" : "message",
									"numinlets" : 2,
									"numoutlets" : 1,
									"outlettype" : [ "" ],
									"patching_rect" : [ 795.0, 165.0, 85.0, 22.0 ],
									"text" : "/track.1/play 1"
								}

							}
, 							{
								"box" : 								{
									"id" : "obj-6",
									"maxclass" : "message",
									"numinlets" : 2,
									"numoutlets" : 1,
									"outlettype" : [ "" ],
									"patching_rect" : [ 795.0, 345.0, 60.0, 22.0 ],
									"text" : "/play 1"
								}

							}
, 							{
								"box" : 								{
									"color" : [ 0.0, 0.933333333333333, 1.0, 1.0 ],
									"fontface" : 0,
									"fontname" : "Arial",
									"fontsize" : 12.0,
									"id" : "obj-7",
									"maxclass" : "newobj",
									"numinlets" : 2,
									"numoutlets" : 2,
									"outlettype" : [ "", "" ],
									"patching_rect" : [ 795.0, 270.0, 142.0, 22.0 ],
									"saved_attribute_attributes" : 									{
										"color" : 										{
											"expression" : "themecolor.live_threshold_line_color"
										}

									}
,
									"saved_newobj_attribute_attributes" : 									{
										"color" : 										{
											"expression" : "themecolor.live_threshold_line_color"
										}

									}
,
									"text" : "ossia.router /t?rack.{1..2}"
								}

							}
, 							{
								"box" : 								{
									"id" : "obj-1",
									"linecount" : 3,
									"maxclass" : "comment",
									"numinlets" : 1,
									"numoutlets" : 0,
									"patching_rect" : [ 15.0, 390.0, 256.0, 47.0 ],
									"text" : "Returned addresses are always relative to the node defined as argument. Hence the output are relative addresses (without leading slash)."
								}

							}
, 							{
								"box" : 								{
									"bgcolor" : [ 0.269595890603871, 0.408853959740371, 0.595943257030903, 1.0 ],
									"fontface" : 1,
									"fontsize" : 12.0,
									"id" : "obj-67",
									"maxclass" : "comment",
									"numinlets" : 1,
									"numoutlets" : 0,
									"patching_rect" : [ 570.0, 120.0, 198.0, 20.0 ],
									"saved_attribute_attributes" : 									{
										"bgcolor" : 										{
											"expression" : "themecolor.live_selection"
										}
,
										"textcolor" : 										{
											"expression" : "themecolor.live_control_text_selection"
										}

									}
,
									"text" : "Route using wildcards",
									"textcolor" : [ 0.85, 0.85, 0.85, 1.0 ]
								}

							}
, 							{
								"box" : 								{
									"fontname" : "Lato Regular",
									"fontsize" : 13.0,
									"id" : "obj-65",
									"linecount" : 2,
									"maxclass" : "comment",
									"numinlets" : 1,
									"numoutlets" : 0,
									"patching_rect" : [ 15.0, 75.0, 510.0, 38.0 ],
									"text" : "ossia.router lets you route both relative and absolute OSC addresses. It also allows the use of wildcards to match addresses containing a variable node or instance number."
								}

							}
, 							{
								"box" : 								{
									"fontname" : "Lato Regular",
									"fontsize" : 13.0,
									"id" : "obj-66",
									"maxclass" : "comment",
									"numinlets" : 1,
									"numoutlets" : 0,
									"patching_rect" : [ 15.0, 60.0, 315.0, 22.0 ],
									"text" : "Route Open Sound Control messages"
								}

							}
, 							{
								"box" : 								{
									"fontname" : "Lato Regular",
									"fontsize" : 48.0,
									"id" : "obj-10",
									"maxclass" : "comment",
									"numinlets" : 1,
									"numoutlets" : 0,
									"patching_rect" : [ 15.0, 0.0, 255.0, 64.0 ],
									"text" : "ossia.router"
								}

							}
, 							{
								"box" : 								{
									"bubble" : 1,
									"id" : "obj-61",
									"linecount" : 3,
									"maxclass" : "comment",
									"numinlets" : 1,
									"numoutlets" : 0,
									"patching_rect" : [ 330.0, 330.0, 137.0, 51.0 ],
									"text" : "non-matching inputs are passed out the right-hand outlet"
								}

							}
, 							{
								"box" : 								{
									"fontname" : "Lato Regular",
									"fontsize" : 12.0,
									"id" : "obj-35",
									"linecount" : 2,
									"maxclass" : "comment",
									"numinlets" : 1,
									"numoutlets" : 0,
									"patching_rect" : [ 571.0, 147.5, 224.0, 35.0 ],
									"text" : "You can route addresses using wildcards for nodes or instance numbers."
								}

							}
, 							{
								"box" : 								{
									"bubble" : 1,
									"bubbletextmargin" : 10,
									"fontname" : "Lato Regular",
									"fontsize" : 12.0,
									"id" : "obj-30",
									"linecount" : 2,
									"maxclass" : "comment",
									"numinlets" : 1,
									"numoutlets" : 0,
									"patching_rect" : [ 660.0, 195.0, 127.0, 49.0 ],
									"text" : "Route no matter instance number"
								}

							}
, 							{
								"box" : 								{
									"id" : "obj-27",
									"maxclass" : "button",
									"numinlets" : 1,
									"numoutlets" : 1,
									"outlettype" : [ "bang" ],
									"parameter_enable" : 0,
									"patching_rect" : [ 570.0, 315.0, 24.0, 24.0 ]
								}

							}
, 							{
								"box" : 								{
									"id" : "obj-33",
									"maxclass" : "message",
									"numinlets" : 2,
									"numoutlets" : 1,
									"outlettype" : [ "" ],
									"patching_rect" : [ 570.0, 225.0, 85.0, 22.0 ],
									"text" : "/track.2/play 0"
								}

							}
, 							{
								"box" : 								{
									"id" : "obj-34",
									"maxclass" : "message",
									"numinlets" : 2,
									"numoutlets" : 1,
									"outlettype" : [ "" ],
									"patching_rect" : [ 570.0, 195.0, 85.0, 22.0 ],
									"text" : "/track.1/play 1"
								}

							}
, 							{
								"box" : 								{
									"id" : "obj-36",
									"maxclass" : "message",
									"numinlets" : 2,
									"numoutlets" : 1,
									"outlettype" : [ "" ],
									"patching_rect" : [ 570.0, 345.0, 60.0, 22.0 ],
									"text" : "/play 1"
								}

							}
, 							{
								"box" : 								{
									"color" : [ 0.0, 0.933333333333333, 1.0, 1.0 ],
									"fontface" : 0,
									"fontname" : "Arial",
									"fontsize" : 12.0,
									"id" : "obj-37",
									"maxclass" : "newobj",
									"numinlets" : 2,
									"numoutlets" : 2,
									"outlettype" : [ "", "" ],
									"patching_rect" : [ 570.0, 270.0, 112.0, 22.0 ],
									"saved_attribute_attributes" : 									{
										"color" : 										{
											"expression" : "themecolor.live_threshold_line_color"
										}

									}
,
									"saved_newobj_attribute_attributes" : 									{
										"color" : 										{
											"expression" : "themecolor.live_threshold_line_color"
										}

									}
,
									"text" : "ossia.router /track.*"
								}

							}
, 							{
								"box" : 								{
									"bubble" : 1,
									"bubbletextmargin" : 10,
									"fontname" : "Lato Regular",
									"fontsize" : 12.0,
									"id" : "obj-12",
									"maxclass" : "comment",
									"numinlets" : 1,
									"numoutlets" : 0,
									"patching_rect" : [ 195.0, 180.0, 218.0, 35.0 ],
									"text" : "Route multiple node levels at once"
								}

							}
, 							{
								"box" : 								{
									"bubble" : 1,
									"bubbletextmargin" : 10,
									"fontname" : "Lato Regular",
									"fontsize" : 12.0,
									"id" : "obj-14",
									"linecount" : 2,
									"maxclass" : "comment",
									"numinlets" : 1,
									"numoutlets" : 0,
									"patching_rect" : [ 285.0, 120.0, 154.0, 49.0 ],
									"text" : "Route top node of an address"
								}

							}
, 							{
								"box" : 								{
									"id" : "obj-17",
									"maxclass" : "button",
									"numinlets" : 1,
									"numoutlets" : 1,
									"outlettype" : [ "bang" ],
									"parameter_enable" : 0,
									"patching_rect" : [ 15.0, 315.0, 24.0, 24.0 ]
								}

							}
, 							{
								"box" : 								{
									"id" : "obj-18",
									"maxclass" : "button",
									"numinlets" : 1,
									"numoutlets" : 1,
									"outlettype" : [ "bang" ],
									"parameter_enable" : 0,
									"patching_rect" : [ 105.0, 315.0, 24.0, 24.0 ]
								}

							}
, 							{
								"box" : 								{
									"id" : "obj-19",
									"maxclass" : "button",
									"numinlets" : 1,
									"numoutlets" : 1,
									"outlettype" : [ "bang" ],
									"parameter_enable" : 0,
									"patching_rect" : [ 195.0, 315.0, 24.0, 24.0 ]
								}

							}
, 							{
								"box" : 								{
									"color" : [ 0.0, 0.933333333333333, 1.0, 1.0 ],
									"fontface" : 0,
									"fontname" : "Arial",
									"fontsize" : 12.0,
									"id" : "obj-20",
									"maxclass" : "newobj",
									"numinlets" : 3,
									"numoutlets" : 3,
									"outlettype" : [ "", "", "" ],
									"patching_rect" : [ 15.0, 270.0, 193.0, 22.0 ],
									"saved_attribute_attributes" : 									{
										"color" : 										{
											"expression" : "themecolor.live_threshold_line_color"
										}

									}
,
									"saved_newobj_attribute_attributes" : 									{
										"color" : 										{
											"expression" : "themecolor.live_threshold_line_color"
										}

									}
,
									"text" : "ossia.router /fruit /vegetable/potato"
								}

							}
, 							{
								"box" : 								{
									"dontreplace" : 1,
									"fontname" : "Arial",
									"fontsize" : 12.0,
									"id" : "obj-23",
									"maxclass" : "message",
									"numinlets" : 2,
									"numoutlets" : 1,
									"outlettype" : [ "" ],
									"patching_rect" : [ 195.0, 345.0, 128.0, 22.0 ]
								}

							}
, 							{
								"box" : 								{
									"dontreplace" : 1,
									"fontname" : "Arial",
									"fontsize" : 12.0,
									"id" : "obj-26",
									"maxclass" : "message",
									"numinlets" : 2,
									"numoutlets" : 1,
									"outlettype" : [ "" ],
									"patching_rect" : [ 105.0, 345.0, 70.0, 22.0 ]
								}

							}
, 							{
								"box" : 								{
									"dontreplace" : 1,
									"fontname" : "Arial",
									"fontsize" : 12.0,
									"id" : "obj-29",
									"maxclass" : "message",
									"numinlets" : 2,
									"numoutlets" : 1,
									"outlettype" : [ "" ],
									"patching_rect" : [ 10.0, 341.5, 70.0, 22.0 ]
								}

							}
, 							{
								"box" : 								{
									"fontname" : "Arial",
									"fontsize" : 12.0,
									"id" : "obj-53",
									"maxclass" : "message",
									"numinlets" : 2,
									"numoutlets" : 1,
									"outlettype" : [ "" ],
									"patching_rect" : [ 45.0, 180.0, 139.0, 22.0 ],
									"text" : "/vegetable/potato 7.8"
								}

							}
, 							{
								"box" : 								{
									"fontname" : "Arial",
									"fontsize" : 12.0,
									"id" : "obj-54",
									"maxclass" : "message",
									"numinlets" : 2,
									"numoutlets" : 1,
									"outlettype" : [ "" ],
									"patching_rect" : [ 195.0, 135.0, 86.0, 22.0 ],
									"text" : "/fruit/banana 3"
								}

							}
, 							{
								"box" : 								{
									"fontname" : "Arial",
									"fontsize" : 12.0,
									"id" : "obj-55",
									"maxclass" : "message",
									"numinlets" : 2,
									"numoutlets" : 1,
									"outlettype" : [ "" ],
									"patching_rect" : [ 105.0, 135.0, 84.0, 22.0 ],
									"text" : "/fruit/orange 3"
								}

							}
, 							{
								"box" : 								{
									"fontname" : "Arial",
									"fontsize" : 12.0,
									"id" : "obj-56",
									"maxclass" : "message",
									"numinlets" : 2,
									"numoutlets" : 1,
									"outlettype" : [ "" ],
									"patching_rect" : [ 15.0, 135.0, 87.0, 22.0 ],
									"text" : "/fruit/apple red"
								}

							}
, 							{
								"box" : 								{
									"fontname" : "Arial",
									"fontsize" : 12.0,
									"id" : "obj-57",
									"maxclass" : "message",
									"numinlets" : 2,
									"numoutlets" : 1,
									"outlettype" : [ "" ],
									"patching_rect" : [ 45.0, 225.0, 127.0, 22.0 ],
									"text" : "/meat/chicken roasted"
								}

							}
 ],
						"lines" : [ 							{
								"patchline" : 								{
									"destination" : [ "obj-7", 0 ],
									"source" : [ "obj-11", 0 ]
								}

							}
, 							{
								"patchline" : 								{
									"destination" : [ "obj-17", 0 ],
									"order" : 1,
									"source" : [ "obj-20", 0 ]
								}

							}
, 							{
								"patchline" : 								{
									"destination" : [ "obj-18", 0 ],
									"midpoints" : [ 111.5, 303.0, 114.5, 303.0 ],
									"order" : 1,
									"source" : [ "obj-20", 1 ]
								}

							}
, 							{
								"patchline" : 								{
									"destination" : [ "obj-19", 0 ],
									"midpoints" : [ 198.5, 303.0, 204.5, 303.0 ],
									"order" : 1,
									"source" : [ "obj-20", 2 ]
								}

							}
, 							{
								"patchline" : 								{
									"destination" : [ "obj-23", 1 ],
									"midpoints" : [ 198.5, 305.0, 313.5, 305.0 ],
									"order" : 0,
									"source" : [ "obj-20", 2 ]
								}

							}
, 							{
								"patchline" : 								{
									"destination" : [ "obj-26", 1 ],
									"midpoints" : [ 111.5, 305.0, 165.5, 305.0 ],
									"order" : 0,
									"source" : [ "obj-20", 1 ]
								}

							}
, 							{
								"patchline" : 								{
									"destination" : [ "obj-29", 1 ],
									"midpoints" : [ 24.5, 305.0, 70.5, 305.0 ],
									"order" : 0,
									"source" : [ "obj-20", 0 ]
								}

							}
, 							{
								"patchline" : 								{
									"destination" : [ "obj-37", 0 ],
									"source" : [ "obj-33", 0 ]
								}

							}
, 							{
								"patchline" : 								{
									"destination" : [ "obj-37", 0 ],
									"midpoints" : [ 579.5, 219.0, 567.0, 219.0, 567.0, 261.0, 579.5, 261.0 ],
									"source" : [ "obj-34", 0 ]
								}

							}
, 							{
								"patchline" : 								{
									"destination" : [ "obj-27", 0 ],
									"midpoints" : [ 579.5, 303.0, 579.5, 303.0 ],
									"order" : 1,
									"source" : [ "obj-37", 0 ]
								}

							}
, 							{
								"patchline" : 								{
									"destination" : [ "obj-36", 1 ],
									"midpoints" : [ 579.5, 303.0, 620.5, 303.0 ],
									"order" : 0,
									"source" : [ "obj-37", 0 ]
								}

							}
, 							{
								"patchline" : 								{
									"destination" : [ "obj-7", 0 ],
									"midpoints" : [ 804.5, 224.0, 791.0, 224.0, 791.0, 261.0, 804.5, 261.0 ],
									"source" : [ "obj-4", 0 ]
								}

							}
, 							{
								"patchline" : 								{
									"destination" : [ "obj-7", 0 ],
									"midpoints" : [ 804.5, 189.0, 791.0, 189.0, 791.0, 261.0, 804.5, 261.0 ],
									"source" : [ "obj-5", 0 ]
								}

							}
, 							{
								"patchline" : 								{
									"destination" : [ "obj-20", 0 ],
									"midpoints" : [ 54.5, 213.0, 24.5, 213.0 ],
									"source" : [ "obj-53", 0 ]
								}

							}
, 							{
								"patchline" : 								{
									"destination" : [ "obj-20", 0 ],
									"midpoints" : [ 204.5, 168.0, 24.5, 168.0 ],
									"source" : [ "obj-54", 0 ]
								}

							}
, 							{
								"patchline" : 								{
									"destination" : [ "obj-20", 0 ],
									"midpoints" : [ 114.5, 168.0, 24.5, 168.0 ],
									"source" : [ "obj-55", 0 ]
								}

							}
, 							{
								"patchline" : 								{
									"destination" : [ "obj-20", 0 ],
									"midpoints" : [ 24.5, 168.0, 24.5, 168.0 ],
									"source" : [ "obj-56", 0 ]
								}

							}
, 							{
								"patchline" : 								{
									"destination" : [ "obj-20", 0 ],
									"midpoints" : [ 54.5, 258.0, 24.5, 258.0 ],
									"source" : [ "obj-57", 0 ]
								}

							}
, 							{
								"patchline" : 								{
									"destination" : [ "obj-3", 0 ],
									"midpoints" : [ 804.5, 303.0, 804.5, 303.0 ],
									"order" : 1,
									"source" : [ "obj-7", 0 ]
								}

							}
, 							{
								"patchline" : 								{
									"destination" : [ "obj-6", 1 ],
									"midpoints" : [ 804.5, 303.0, 845.5, 303.0 ],
									"order" : 0,
									"source" : [ "obj-7", 0 ]
								}

							}
, 							{
								"patchline" : 								{
									"destination" : [ "obj-9", 1 ],
									"source" : [ "obj-7", 1 ]
								}

							}
, 							{
								"patchline" : 								{
									"destination" : [ "obj-7", 0 ],
									"midpoints" : [ 804.5, 159.0, 791.0, 159.0, 791.0, 261.0, 804.5, 261.0 ],
									"source" : [ "obj-8", 0 ]
								}

							}
 ],
						"originid" : "pat-1306",
						"styles" : [ 							{
								"name" : "Jamoma_highlighted_orange",
								"default" : 								{
									"accentcolor" : [ 1.0, 0.5, 0.0, 1.0 ]
								}
,
								"parentstyle" : "",
								"multi" : 0
							}
, 							{
								"name" : "jpatcher001",
								"parentstyle" : "",
								"multi" : 0
							}
, 							{
								"name" : "jpink",
								"default" : 								{
									"accentcolor" : [ 0.619608, 0.0, 0.360784, 1.0 ],
									"bgcolor" : [ 0.862745, 0.870588, 0.878431, 1.0 ],
									"bgfillcolor" : 									{
										"angle" : 270.0,
										"autogradient" : 0,
										"color" : [ 0.619608, 0.0, 0.360784, 1.0 ],
										"color1" : [ 0.376471, 0.384314, 0.4, 1.0 ],
										"color2" : [ 0.290196, 0.309804, 0.301961, 1.0 ],
										"proportion" : 0.39,
										"type" : "color"
									}
,
									"clearcolor" : [ 0.113725, 0.607843, 0.607843, 1.0 ],
									"color" : [ 0.619608, 0.0, 0.360784, 1.0 ],
									"elementcolor" : [ 0.619608, 0.0, 0.360784, 1.0 ],
									"patchlinecolor" : [ 0.65, 0.65, 0.65, 1.0 ],
									"selectioncolor" : [ 0.619608, 0.0, 0.360784, 1.0 ],
									"textcolor" : [ 0.619608, 0.0, 0.360784, 1.0 ]
								}
,
								"parentstyle" : "",
								"multi" : 0
							}
 ]
					}
,
					"patching_rect" : [ 103.0, 135.0, 43.0, 20.0 ],
					"saved_object_attributes" : 					{
						"globalpatchername" : ""
					}
,
					"text" : "p Basic"
				}

			}
, 			{
				"box" : 				{
					"fontname" : "Arial",
					"fontsize" : 18.0,
					"id" : "obj-24",
					"maxclass" : "newobj",
					"numinlets" : 0,
					"numoutlets" : 0,
					"patcher" : 					{
						"fileversion" : 1,
						"appversion" : 						{
							"major" : 9,
							"minor" : 0,
							"revision" : 4,
							"architecture" : "x64",
							"modernui" : 1
						}
,
						"classnamespace" : "box",
						"rect" : [ 0.0, 26.0, 1030.0, 465.0 ],
						"gridonopen" : 2,
						"gridsize" : [ 15.0, 15.0 ],
						"gridsnaponopen" : 2,
						"objectsnaponopen" : 0,
						"showontab" : 2,
						"boxes" : [ 							{
								"box" : 								{
									"id" : "obj-29",
									"maxclass" : "message",
									"numinlets" : 2,
									"numoutlets" : 1,
									"outlettype" : [ "" ],
									"patching_rect" : [ 600.0, 330.0, 120.0, 22.0 ],
									"text" : "loop/start 2.15"
								}

							}
, 							{
								"box" : 								{
									"format" : 6,
									"id" : "obj-11",
									"maxclass" : "flonum",
									"numinlets" : 1,
									"numoutlets" : 2,
									"outlettype" : [ "", "bang" ],
									"parameter_enable" : 0,
									"patching_rect" : [ 750.0, 150.0, 50.0, 22.0 ]
								}

							}
, 							{
								"box" : 								{
									"id" : "obj-26",
									"maxclass" : "message",
									"numinlets" : 2,
									"numoutlets" : 1,
									"outlettype" : [ "" ],
									"patching_rect" : [ 750.0, 180.0, 124.0, 22.0 ],
									"text" : "sampler/loop/start $1"
								}

							}
, 							{
								"box" : 								{
									"id" : "obj-24",
									"maxclass" : "message",
									"numinlets" : 2,
									"numoutlets" : 1,
									"outlettype" : [ "" ],
									"patching_rect" : [ 600.0, 300.0, 120.0, 22.0 ],
									"text" : "/loop/start 1.7"
								}

							}
, 							{
								"box" : 								{
									"format" : 6,
									"id" : "obj-36",
									"maxclass" : "flonum",
									"numinlets" : 1,
									"numoutlets" : 2,
									"outlettype" : [ "", "bang" ],
									"parameter_enable" : 0,
									"patching_rect" : [ 600.0, 150.0, 50.0, 22.0 ]
								}

							}
, 							{
								"box" : 								{
									"id" : "obj-28",
									"maxclass" : "message",
									"numinlets" : 2,
									"numoutlets" : 1,
									"outlettype" : [ "" ],
									"patching_rect" : [ 825.0, 270.0, 165.0, 22.0 ],
									"text" : "/sampler/loop/start 1.7"
								}

							}
, 							{
								"box" : 								{
									"color" : [ 0.0, 0.933333333333333, 1.0, 1.0 ],
									"id" : "obj-30",
									"maxclass" : "newobj",
									"numinlets" : 2,
									"numoutlets" : 2,
									"outlettype" : [ "", "" ],
									"patching_rect" : [ 825.0, 225.0, 195.0, 22.0 ],
									"saved_attribute_attributes" : 									{
										"color" : 										{
											"expression" : "themecolor.live_threshold_line_color"
										}

									}
,
									"saved_newobj_attribute_attributes" : 									{
										"color" : 										{
											"expression" : "themecolor.live_threshold_line_color"
										}

									}
,
									"text" : "ossia.router /sampler @truncate 0"
								}

							}
, 							{
								"box" : 								{
									"id" : "obj-27",
									"maxclass" : "message",
									"numinlets" : 2,
									"numoutlets" : 1,
									"outlettype" : [ "" ],
									"patching_rect" : [ 600.0, 270.0, 120.0, 22.0 ],
									"text" : "/loop/start 2.15"
								}

							}
, 							{
								"box" : 								{
									"id" : "obj-25",
									"maxclass" : "message",
									"numinlets" : 2,
									"numoutlets" : 1,
									"outlettype" : [ "" ],
									"patching_rect" : [ 600.0, 180.0, 124.0, 22.0 ],
									"text" : "/sampler/loop/start $1"
								}

							}
, 							{
								"box" : 								{
									"color" : [ 0.0, 0.933333333333333, 1.0, 1.0 ],
									"id" : "obj-23",
									"maxclass" : "newobj",
									"numinlets" : 4,
									"numoutlets" : 4,
									"outlettype" : [ "", "", "", "" ],
									"patching_rect" : [ 600.0, 225.0, 216.0, 22.0 ],
									"saved_attribute_attributes" : 									{
										"color" : 										{
											"expression" : "themecolor.live_threshold_line_color"
										}

									}
,
									"saved_newobj_attribute_attributes" : 									{
										"color" : 										{
											"expression" : "themecolor.live_threshold_line_color"
										}

									}
,
									"text" : "ossia.router sampler /sampler sampler/"
								}

							}
, 							{
								"box" : 								{
									"id" : "obj-21",
									"maxclass" : "toggle",
									"numinlets" : 1,
									"numoutlets" : 1,
									"outlettype" : [ "int" ],
									"parameter_enable" : 0,
									"patching_rect" : [ 465.0, 105.0, 24.0, 24.0 ],
									"svg" : ""
								}

							}
, 							{
								"box" : 								{
									"id" : "obj-22",
									"maxclass" : "message",
									"numinlets" : 2,
									"numoutlets" : 1,
									"outlettype" : [ "" ],
									"patching_rect" : [ 465.0, 135.0, 49.0, 22.0 ],
									"text" : "/tete $1"
								}

							}
, 							{
								"box" : 								{
									"id" : "obj-17",
									"maxclass" : "message",
									"numinlets" : 2,
									"numoutlets" : 1,
									"outlettype" : [ "" ],
									"patching_rect" : [ 450.0, 180.0, 32.0, 22.0 ],
									"text" : "/tete"
								}

							}
, 							{
								"box" : 								{
									"id" : "obj-19",
									"maxclass" : "message",
									"numinlets" : 2,
									"numoutlets" : 1,
									"outlettype" : [ "" ],
									"patching_rect" : [ 405.0, 180.0, 32.0, 22.0 ],
									"text" : "/tata"
								}

							}
, 							{
								"box" : 								{
									"id" : "obj-16",
									"maxclass" : "message",
									"numinlets" : 2,
									"numoutlets" : 1,
									"outlettype" : [ "" ],
									"patching_rect" : [ 345.0, 180.0, 32.0, 22.0 ],
									"text" : "/toto"
								}

							}
, 							{
								"box" : 								{
									"id" : "obj-14",
									"maxclass" : "toggle",
									"numinlets" : 1,
									"numoutlets" : 1,
									"outlettype" : [ "int" ],
									"parameter_enable" : 0,
									"patching_rect" : [ 420.0, 105.0, 24.0, 24.0 ],
									"svg" : ""
								}

							}
, 							{
								"box" : 								{
									"id" : "obj-15",
									"maxclass" : "message",
									"numinlets" : 2,
									"numoutlets" : 1,
									"outlettype" : [ "" ],
									"patching_rect" : [ 420.0, 135.0, 41.0, 22.0 ],
									"text" : "/titi $1"
								}

							}
, 							{
								"box" : 								{
									"id" : "obj-13",
									"maxclass" : "message",
									"numinlets" : 2,
									"numoutlets" : 1,
									"outlettype" : [ "" ],
									"patching_rect" : [ 315.0, 180.0, 29.5, 22.0 ],
									"text" : "/titi"
								}

							}
, 							{
								"box" : 								{
									"id" : "obj-2",
									"maxclass" : "button",
									"numinlets" : 1,
									"numoutlets" : 1,
									"outlettype" : [ "bang" ],
									"parameter_enable" : 0,
									"patching_rect" : [ 300.0, 270.0, 24.0, 24.0 ]
								}

							}
, 							{
								"box" : 								{
									"id" : "obj-3",
									"maxclass" : "message",
									"numinlets" : 2,
									"numoutlets" : 1,
									"outlettype" : [ "" ],
									"patching_rect" : [ 405.0, 300.0, 75.0, 22.0 ],
									"text" : "0"
								}

							}
, 							{
								"box" : 								{
									"id" : "obj-4",
									"maxclass" : "button",
									"numinlets" : 1,
									"numoutlets" : 1,
									"outlettype" : [ "bang" ],
									"parameter_enable" : 0,
									"patching_rect" : [ 405.0, 270.0, 24.0, 24.0 ]
								}

							}
, 							{
								"box" : 								{
									"id" : "obj-5",
									"maxclass" : "message",
									"numinlets" : 2,
									"numoutlets" : 1,
									"outlettype" : [ "" ],
									"patching_rect" : [ 300.0, 300.0, 83.0, 22.0 ],
									"text" : "0"
								}

							}
, 							{
								"box" : 								{
									"id" : "obj-6",
									"maxclass" : "toggle",
									"numinlets" : 1,
									"numoutlets" : 1,
									"outlettype" : [ "int" ],
									"parameter_enable" : 0,
									"patching_rect" : [ 360.0, 105.0, 24.0, 24.0 ],
									"svg" : ""
								}

							}
, 							{
								"box" : 								{
									"id" : "obj-7",
									"maxclass" : "toggle",
									"numinlets" : 1,
									"numoutlets" : 1,
									"outlettype" : [ "int" ],
									"parameter_enable" : 0,
									"patching_rect" : [ 300.0, 105.0, 24.0, 24.0 ],
									"svg" : ""
								}

							}
, 							{
								"box" : 								{
									"id" : "obj-8",
									"maxclass" : "message",
									"numinlets" : 2,
									"numoutlets" : 1,
									"outlettype" : [ "" ],
									"patching_rect" : [ 300.0, 135.0, 49.0, 22.0 ],
									"text" : "/toto $1"
								}

							}
, 							{
								"box" : 								{
									"id" : "obj-9",
									"maxclass" : "message",
									"numinlets" : 2,
									"numoutlets" : 1,
									"outlettype" : [ "" ],
									"patching_rect" : [ 360.0, 135.0, 49.0, 22.0 ],
									"text" : "/tata $1"
								}

							}
, 							{
								"box" : 								{
									"color" : [ 0.0, 0.933333333333333, 1.0, 1.0 ],
									"id" : "obj-10",
									"maxclass" : "newobj",
									"numinlets" : 3,
									"numoutlets" : 3,
									"outlettype" : [ "", "", "" ],
									"patching_rect" : [ 300.0, 225.0, 125.0, 22.0 ],
									"saved_attribute_attributes" : 									{
										"color" : 										{
											"expression" : "themecolor.live_threshold_line_color"
										}

									}
,
									"saved_newobj_attribute_attributes" : 									{
										"color" : 										{
											"expression" : "themecolor.live_threshold_line_color"
										}

									}
,
									"text" : "ossia.router /toto /tata"
								}

							}
, 							{
								"box" : 								{
									"id" : "obj-95",
									"maxclass" : "button",
									"numinlets" : 1,
									"numoutlets" : 1,
									"outlettype" : [ "bang" ],
									"parameter_enable" : 0,
									"patching_rect" : [ 15.0, 225.0, 24.0, 24.0 ]
								}

							}
, 							{
								"box" : 								{
									"id" : "obj-93",
									"maxclass" : "message",
									"numinlets" : 2,
									"numoutlets" : 1,
									"outlettype" : [ "" ],
									"patching_rect" : [ 120.0, 255.0, 75.0, 22.0 ],
									"text" : "0"
								}

							}
, 							{
								"box" : 								{
									"id" : "obj-48",
									"maxclass" : "button",
									"numinlets" : 1,
									"numoutlets" : 1,
									"outlettype" : [ "bang" ],
									"parameter_enable" : 0,
									"patching_rect" : [ 120.0, 225.0, 24.0, 24.0 ]
								}

							}
, 							{
								"box" : 								{
									"fontname" : "Lato Regular",
									"fontsize" : 12.0,
									"id" : "obj-37",
									"linecount" : 2,
									"maxclass" : "comment",
									"numinlets" : 1,
									"numoutlets" : 0,
									"patching_rect" : [ 15.0, 60.0, 358.0, 35.0 ],
									"text" : "A single instance of ossia.router can match an address in multiple ways."
								}

							}
, 							{
								"box" : 								{
									"fontname" : "Lato Regular",
									"fontsize" : 48.0,
									"id" : "obj-1",
									"maxclass" : "comment",
									"numinlets" : 1,
									"numoutlets" : 0,
									"patching_rect" : [ 15.0, 0.0, 255.0, 64.0 ],
									"text" : "ossia.router"
								}

							}
, 							{
								"box" : 								{
									"id" : "obj-35",
									"maxclass" : "message",
									"numinlets" : 2,
									"numoutlets" : 1,
									"outlettype" : [ "" ],
									"patching_rect" : [ 15.0, 255.0, 83.0, 22.0 ],
									"text" : "loop/enable 0"
								}

							}
, 							{
								"box" : 								{
									"id" : "obj-33",
									"maxclass" : "toggle",
									"numinlets" : 1,
									"numoutlets" : 1,
									"outlettype" : [ "int" ],
									"parameter_enable" : 0,
									"patching_rect" : [ 90.0, 105.0, 24.0, 24.0 ],
									"svg" : ""
								}

							}
, 							{
								"box" : 								{
									"id" : "obj-32",
									"maxclass" : "toggle",
									"numinlets" : 1,
									"numoutlets" : 1,
									"outlettype" : [ "int" ],
									"parameter_enable" : 0,
									"patching_rect" : [ 15.0, 105.0, 24.0, 24.0 ],
									"svg" : ""
								}

							}
, 							{
								"box" : 								{
									"id" : "obj-20",
									"maxclass" : "message",
									"numinlets" : 2,
									"numoutlets" : 1,
									"outlettype" : [ "" ],
									"patching_rect" : [ 15.0, 135.0, 73.0, 22.0 ],
									"text" : "/sampler $1"
								}

							}
, 							{
								"box" : 								{
									"id" : "obj-18",
									"maxclass" : "message",
									"numinlets" : 2,
									"numoutlets" : 1,
									"outlettype" : [ "" ],
									"patching_rect" : [ 90.0, 135.0, 139.0, 22.0 ],
									"text" : "/sampler/loop/enable $1"
								}

							}
, 							{
								"box" : 								{
									"color" : [ 0.0, 0.933333333333333, 1.0, 1.0 ],
									"id" : "obj-12",
									"maxclass" : "newobj",
									"numinlets" : 3,
									"numoutlets" : 3,
									"outlettype" : [ "", "", "" ],
									"patching_rect" : [ 15.0, 180.0, 235.0, 22.0 ],
									"saved_attribute_attributes" : 									{
										"color" : 										{
											"expression" : "themecolor.live_threshold_line_color"
										}

									}
,
									"saved_newobj_attribute_attributes" : 									{
										"color" : 										{
											"expression" : "themecolor.live_threshold_line_color"
										}

									}
,
									"text" : "ossia.router /sampler /sampler/loop/enable"
								}

							}
 ],
						"lines" : [ 							{
								"patchline" : 								{
									"destination" : [ "obj-2", 0 ],
									"order" : 1,
									"source" : [ "obj-10", 0 ]
								}

							}
, 							{
								"patchline" : 								{
									"destination" : [ "obj-3", 1 ],
									"midpoints" : [ 362.5, 258.0, 470.5, 258.0 ],
									"order" : 0,
									"source" : [ "obj-10", 1 ]
								}

							}
, 							{
								"patchline" : 								{
									"destination" : [ "obj-4", 0 ],
									"midpoints" : [ 362.5, 258.0, 414.5, 258.0 ],
									"order" : 1,
									"source" : [ "obj-10", 1 ]
								}

							}
, 							{
								"patchline" : 								{
									"destination" : [ "obj-5", 1 ],
									"midpoints" : [ 309.5, 258.0, 373.5, 258.0 ],
									"order" : 0,
									"source" : [ "obj-10", 0 ]
								}

							}
, 							{
								"patchline" : 								{
									"destination" : [ "obj-26", 0 ],
									"source" : [ "obj-11", 0 ]
								}

							}
, 							{
								"patchline" : 								{
									"destination" : [ "obj-35", 1 ],
									"midpoints" : [ 24.5, 213.0, 88.5, 213.0 ],
									"order" : 0,
									"source" : [ "obj-12", 0 ]
								}

							}
, 							{
								"patchline" : 								{
									"destination" : [ "obj-48", 0 ],
									"midpoints" : [ 132.5, 213.0, 129.5, 213.0 ],
									"order" : 1,
									"source" : [ "obj-12", 1 ]
								}

							}
, 							{
								"patchline" : 								{
									"destination" : [ "obj-93", 1 ],
									"midpoints" : [ 132.5, 213.0, 185.5, 213.0 ],
									"order" : 0,
									"source" : [ "obj-12", 1 ]
								}

							}
, 							{
								"patchline" : 								{
									"destination" : [ "obj-95", 0 ],
									"order" : 1,
									"source" : [ "obj-12", 0 ]
								}

							}
, 							{
								"patchline" : 								{
									"destination" : [ "obj-10", 1 ],
									"source" : [ "obj-13", 0 ]
								}

							}
, 							{
								"patchline" : 								{
									"destination" : [ "obj-15", 0 ],
									"source" : [ "obj-14", 0 ]
								}

							}
, 							{
								"patchline" : 								{
									"destination" : [ "obj-10", 0 ],
									"midpoints" : [ 429.5, 168.0, 309.5, 168.0 ],
									"source" : [ "obj-15", 0 ]
								}

							}
, 							{
								"patchline" : 								{
									"destination" : [ "obj-10", 1 ],
									"source" : [ "obj-16", 0 ]
								}

							}
, 							{
								"patchline" : 								{
									"destination" : [ "obj-10", 2 ],
									"source" : [ "obj-17", 0 ]
								}

							}
, 							{
								"patchline" : 								{
									"destination" : [ "obj-12", 0 ],
									"midpoints" : [ 99.5, 168.0, 24.5, 168.0 ],
									"source" : [ "obj-18", 0 ]
								}

							}
, 							{
								"patchline" : 								{
									"destination" : [ "obj-10", 2 ],
									"source" : [ "obj-19", 0 ]
								}

							}
, 							{
								"patchline" : 								{
									"destination" : [ "obj-12", 0 ],
									"source" : [ "obj-20", 0 ]
								}

							}
, 							{
								"patchline" : 								{
									"destination" : [ "obj-22", 0 ],
									"source" : [ "obj-21", 0 ]
								}

							}
, 							{
								"patchline" : 								{
									"destination" : [ "obj-10", 0 ],
									"midpoints" : [ 474.5, 168.5, 309.5, 168.5 ],
									"source" : [ "obj-22", 0 ]
								}

							}
, 							{
								"patchline" : 								{
									"destination" : [ "obj-24", 1 ],
									"source" : [ "obj-23", 1 ]
								}

							}
, 							{
								"patchline" : 								{
									"destination" : [ "obj-27", 1 ],
									"source" : [ "obj-23", 0 ]
								}

							}
, 							{
								"patchline" : 								{
									"destination" : [ "obj-29", 1 ],
									"source" : [ "obj-23", 2 ]
								}

							}
, 							{
								"patchline" : 								{
									"destination" : [ "obj-23", 0 ],
									"order" : 1,
									"source" : [ "obj-25", 0 ]
								}

							}
, 							{
								"patchline" : 								{
									"destination" : [ "obj-30", 0 ],
									"order" : 0,
									"source" : [ "obj-25", 0 ]
								}

							}
, 							{
								"patchline" : 								{
									"destination" : [ "obj-23", 0 ],
									"order" : 1,
									"source" : [ "obj-26", 0 ]
								}

							}
, 							{
								"patchline" : 								{
									"destination" : [ "obj-30", 0 ],
									"order" : 0,
									"source" : [ "obj-26", 0 ]
								}

							}
, 							{
								"patchline" : 								{
									"destination" : [ "obj-28", 1 ],
									"source" : [ "obj-30", 0 ]
								}

							}
, 							{
								"patchline" : 								{
									"destination" : [ "obj-20", 0 ],
									"source" : [ "obj-32", 0 ]
								}

							}
, 							{
								"patchline" : 								{
									"destination" : [ "obj-18", 0 ],
									"source" : [ "obj-33", 0 ]
								}

							}
, 							{
								"patchline" : 								{
									"destination" : [ "obj-25", 0 ],
									"source" : [ "obj-36", 0 ]
								}

							}
, 							{
								"patchline" : 								{
									"destination" : [ "obj-9", 0 ],
									"source" : [ "obj-6", 0 ]
								}

							}
, 							{
								"patchline" : 								{
									"destination" : [ "obj-8", 0 ],
									"source" : [ "obj-7", 0 ]
								}

							}
, 							{
								"patchline" : 								{
									"destination" : [ "obj-10", 0 ],
									"source" : [ "obj-8", 0 ]
								}

							}
, 							{
								"patchline" : 								{
									"destination" : [ "obj-10", 0 ],
									"midpoints" : [ 369.5, 168.0, 309.5, 168.0 ],
									"source" : [ "obj-9", 0 ]
								}

							}
 ],
						"originid" : "pat-1308",
						"styles" : [ 							{
								"name" : "Jamoma_highlighted_orange",
								"default" : 								{
									"accentcolor" : [ 1.0, 0.5, 0.0, 1.0 ]
								}
,
								"parentstyle" : "",
								"multi" : 0
							}
, 							{
								"name" : "jpatcher001",
								"parentstyle" : "",
								"multi" : 0
							}
, 							{
								"name" : "jpink",
								"default" : 								{
									"accentcolor" : [ 0.619608, 0.0, 0.360784, 1.0 ],
									"bgcolor" : [ 0.862745, 0.870588, 0.878431, 1.0 ],
									"bgfillcolor" : 									{
										"angle" : 270.0,
										"autogradient" : 0,
										"color" : [ 0.619608, 0.0, 0.360784, 1.0 ],
										"color1" : [ 0.376471, 0.384314, 0.4, 1.0 ],
										"color2" : [ 0.290196, 0.309804, 0.301961, 1.0 ],
										"proportion" : 0.39,
										"type" : "color"
									}
,
									"clearcolor" : [ 0.113725, 0.607843, 0.607843, 1.0 ],
									"color" : [ 0.619608, 0.0, 0.360784, 1.0 ],
									"elementcolor" : [ 0.619608, 0.0, 0.360784, 1.0 ],
									"patchlinecolor" : [ 0.65, 0.65, 0.65, 1.0 ],
									"selectioncolor" : [ 0.619608, 0.0, 0.360784, 1.0 ],
									"textcolor" : [ 0.619608, 0.0, 0.360784, 1.0 ]
								}
,
								"parentstyle" : "",
								"multi" : 0
							}
 ]
					}
,
					"patching_rect" : [ 349.0, 297.0, 98.0, 29.0 ],
					"saved_object_attributes" : 					{
						"globalpatchername" : ""
					}
,
					"text" : "p Routing"
				}

			}
 ],
		"lines" : [  ],
		"originid" : "pat-1300",
		"dependency_cache" : [ 			{
				"name" : "ossia.router.mxo",
				"type" : "iLaX"
			}
 ],
		"autosave" : 0,
		"bgcolor" : [ 0.862745, 0.870588, 0.878431, 1.0 ],
		"editing_bgcolor" : [ 0.862745, 0.870588, 0.878431, 1.0 ]
	}

}
