#N canvas 1286 37 627 1012 10;
#N canvas 1446 37 467 1012 address-zombie-tags-description 0;
#X obj 153 279 f;
#X obj 135 109 t b b b b;
#X obj 135 87 bng 15 250 50 0 empty empty empty 17 7 0 10 -262144 -1
-1;
#X floatatom 190 325 5 0 0 0 - - -, f 5;
#X obj 35 508 ø.assert one two three @name tags;
#X obj 334 321 list length;
#X floatatom 334 343 5 0 0 0 - - -, f 5;
#X obj 316 422 list fromsymbol;
#X obj 316 447 ø.assert 83 109 97 108 108 32 116 97 108 107 32 @name
description;
#X symbolatom 328 400 15 0 0 0 - - -, f 15;
#X obj 108 41 t b b;
#X obj 316 371 symbol;
#X obj 423 327 list;
#X obj 423 357 ø.assert distance.km @name unit;
#X obj 245 179 ø.param foo @default 3 @tags one two three @description
"Small talk" @unit km @hidden 1;
#X obj 494 311 ø.assert 1 @name hidden;
#X floatatom 495 290 5 0 0 0 - - -, f 5;
#X floatatom 654 350 5 0 0 0 - - -, f 5;
#X obj 654 371 ø.assert 1 @name zombie;
#X obj 654 327 == 0;
#X obj 344 242 route tags description unit hidden zombie global_address
;
#X msg 245 132 get tags \, get description \, get unit \, get hidden
\, get zombie \, get global_address;
#X obj 710 291 symbol;
#X symbolatom 710 313 25 0 0 0 - - -, f 25;
#X obj 710 332 ø.assert ossia_pd_device:/foo @name global_address
;
#X obj 76 679 t b b b b;
#X obj 8 857 list;
#X obj 76 657 bng 15 250 50 0 empty empty empty 17 7 0 10 -262144 -1
-1;
#X obj 8 907 ø.assert one two three @name tags;
#X obj 307 770 list length;
#X floatatom 307 792 5 0 0 0 - - -, f 5;
#X obj 289 871 list fromsymbol;
#X obj 289 896 ø.assert 83 109 97 108 108 32 116 97 108 107 32 @name
description;
#X symbolatom 301 849 15 0 0 0 - - -, f 15;
#X obj 289 820 symbol;
#X obj 396 776 list;
#X obj 396 806 ø.assert distance.km @name unit;
#X obj 468 778 ø.assert 1 @name hidden;
#X floatatom 468 759 5 0 0 0 - - -, f 5;
#X floatatom 627 799 5 0 0 0 - - -, f 5;
#X obj 627 820 ø.assert 1 @name zombie;
#X obj 627 776 == 0;
#X obj 216 667 route tags description unit hidden zombie global_address
;
#X msg 216 608 get tags \, get description \, get unit \, get hidden
\, get zombie \, get global_address;
#X obj 703 720 symbol;
#X symbolatom 703 742 25 0 0 0 - - -, f 25;
#X obj 703 761 ø.assert ossia_pd_device:/foo @name global_address
;
#X obj 108 19 inlet;
#X obj 216 644 ø.attribute foo;
#X obj 627 745 f 1, f 4;
#X obj 153 213 del 1;
#X obj 127 410 list prepend set;
#X obj 127 433 list trim;
#X obj 35 471 list;
#X msg 127 456 one two three;
#X floatatom 113 303 5 0 0 0 - - -, f 5;
#X obj 185 299 print default-foo;
#X obj 153 351 ø.assert 3 @name default-bqr;
#X connect 0 0 57 0;
#X connect 1 1 11 0;
#X connect 1 1 12 0;
#X connect 1 1 16 0;
#X connect 1 1 19 0;
#X connect 1 1 22 0;
#X connect 1 1 50 0;
#X connect 1 1 53 0;
#X connect 1 2 21 0;
#X connect 2 0 1 0;
#X connect 5 0 6 0;
#X connect 7 0 8 0;
#X connect 10 0 27 0;
#X connect 10 1 2 0;
#X connect 11 0 9 0;
#X connect 11 0 7 0;
#X connect 12 0 13 0;
#X connect 14 0 3 0;
#X connect 14 0 0 1;
#X connect 14 0 56 0;
#X connect 14 1 20 0;
#X connect 16 0 15 0;
#X connect 17 0 18 0;
#X connect 19 0 17 0;
#X connect 20 0 51 0;
#X connect 20 0 53 1;
#X connect 20 1 5 0;
#X connect 20 1 11 0;
#X connect 20 2 12 1;
#X connect 20 3 16 0;
#X connect 20 4 19 0;
#X connect 20 5 22 0;
#X connect 21 0 14 0;
#X connect 22 0 23 0;
#X connect 23 0 24 0;
#X connect 25 1 26 0;
#X connect 25 1 34 0;
#X connect 25 1 35 0;
#X connect 25 1 38 0;
#X connect 25 1 44 0;
#X connect 25 1 49 0;
#X connect 25 2 43 0;
#X connect 26 0 28 0;
#X connect 27 0 25 0;
#X connect 29 0 30 0;
#X connect 31 0 32 0;
#X connect 34 0 33 0;
#X connect 34 0 31 0;
#X connect 35 0 36 0;
#X connect 38 0 37 0;
#X connect 39 0 40 0;
#X connect 41 0 39 0;
#X connect 42 0 26 1;
#X connect 42 1 29 0;
#X connect 42 1 34 0;
#X connect 42 2 35 1;
#X connect 42 3 38 0;
#X connect 42 4 49 0;
#X connect 42 5 44 0;
#X connect 43 0 48 0;
#X connect 44 0 45 0;
#X connect 45 0 46 0;
#X connect 47 0 10 0;
#X connect 48 0 42 0;
#X connect 49 0 41 0;
#X connect 50 0 0 0;
#X connect 51 0 52 0;
#X connect 52 0 54 0;
#X connect 53 0 4 0;
#X connect 55 0 57 0;
#X restore 127 101 pd address-zombie-tags-description;
#N canvas 1446 37 467 1012 range-unit 0;
#X obj 135 129 t b b b b;
#X obj 135 107 bng 15 250 50 0 empty empty empty 17 7 0 10 -262144
-1 -1;
#X obj 108 61 t b b;
#X obj 143 269 list;
#X obj 35 428 symbol;
#X obj 293 323 route type range;
#X obj 339 382 list;
#X obj 35 478 ø.assert vec3f @name type;
#X obj 339 403 ø.assert -100 25 @name range;
#X msg 243 188 get type \, get range;
#X obj 243 214 ø.param bar @default 4.5 7 -52.3 @type vec3f @range
-100 25;
#X obj 108 39 inlet;
#X obj 143 291 ø.assert 4.5 7 -52.3 @name default;
#X obj 243 236 t a a;
#X obj 143 225 del 1;
#X obj 270 262 print default-bar;
#X connect 0 0 14 0;
#X connect 0 1 4 0;
#X connect 0 2 9 0;
#X connect 1 0 0 0;
#X connect 2 1 1 0;
#X connect 3 0 12 0;
#X connect 4 0 7 0;
#X connect 5 0 4 0;
#X connect 5 1 6 0;
#X connect 6 0 8 0;
#X connect 9 0 10 0;
#X connect 10 0 13 0;
#X connect 10 1 5 0;
#X connect 11 0 2 0;
#X connect 13 0 3 1;
#X connect 13 1 15 0;
#X connect 14 0 3 0;
#X restore 107 121 pd range-unit;
#X obj 70 233 s pd;
#X msg 70 211 quit;
#X obj 88 71 t b b b;
#X obj 70 101 del 5;
#X obj 230 164 r ossia;
#X obj 260 217 ossia;
#X obj 70 183 spigot;
#X obj 230 187 t a a;
#X obj 152 217 route testing;
#X obj 152 240 t b a;
#X obj 88 33 bng 15 250 50 0 empty empty empty 17 7 0 10 -262144 -1
-1;
#X obj 209 363 s ossia;
#X msg 199 324 testing 1;
#X obj 152 263 del 10;
#X connect 3 0 2 0;
#X connect 4 0 5 0;
#X connect 4 1 1 0;
#X connect 4 2 0 0;
#X connect 5 0 8 0;
#X connect 6 0 9 0;
#X connect 8 0 3 0;
#X connect 9 0 10 0;
#X connect 9 1 7 0;
#X connect 10 0 11 0;
#X connect 11 0 15 0;
#X connect 11 1 8 1;
#X connect 12 0 4 0;
#X connect 14 0 13 0;
#X connect 15 0 4 0;
