#N canvas 2 579 1256 215 10;
#X obj 798 133 ossia.device;
#X msg 798 113 expose oscquery;
#X obj 779 3 loadbang;
#X msg 515 95 6;
#X obj 61 78 pd~ -ninsig 0 -noutsig 0;
#X msg 71 50 pd~ stop;
#X obj 779 25 del 1000;
#X obj 779 45 t b b b;
#X msg 834 74 \; pd dsp 1;
#X floatatom 515 139 5 0 0 0 - - -, f 5;
#X msg 909 144 \; pd quit;
#X obj 61 152 ø.assert 6 @name remote_output;
#X obj 278 142 ø.assert 10 @name param_output;
#X obj 278 81 f;
#X obj 349 115 del 10000;
#X obj 559 27 t b b b;
#X msg 349 89 stop;
#X obj 548 66 del 1000;
#X msg 737 84 namespace;
#X obj 278 59 ø.param bar @range -12 12;
#X obj 515 117 ø.param foo @range -12 12;
#X obj 306 157 print param_output;
#X obj 278 103 t b f f;
#X obj 61 100 t f f;
#X obj 88 132 print remote_output;
#X obj 34 122 sel 0;
#X msg 61 22 pd~ start -nogui -lib ossia subpatchers/03-client.pd;
#X obj 1065 53 r ossia;
#X obj 1095 106 ossia;
#X obj 905 72 spigot;
#X obj 1065 76 t a a;
#X obj 987 106 route testing;
#X obj 987 129 t b a;
#X connect 1 0 0 0;
#X connect 2 0 6 0;
#X connect 3 0 20 0;
#X connect 4 0 23 0;
#X connect 5 0 4 0;
#X connect 6 0 7 0;
#X connect 7 0 15 0;
#X connect 7 1 1 0;
#X connect 7 2 8 0;
#X connect 13 0 22 0;
#X connect 14 0 13 0;
#X connect 15 0 26 0;
#X connect 15 1 17 0;
#X connect 15 2 14 0;
#X connect 16 0 14 0;
#X connect 17 0 3 0;
#X connect 18 0 0 0;
#X connect 19 0 13 0;
#X connect 20 0 9 0;
#X connect 22 0 29 0;
#X connect 22 1 12 0;
#X connect 22 2 21 0;
#X connect 23 0 25 0;
#X connect 23 1 24 0;
#X connect 25 1 11 0;
#X connect 26 0 4 0;
#X connect 27 0 30 0;
#X connect 29 0 10 0;
#X connect 30 0 31 0;
#X connect 30 1 28 0;
#X connect 31 0 32 0;
#X connect 32 0 6 0;
#X connect 32 1 29 1;
