#N canvas 1282 48 636 1011 10;
#X obj 48 94 loadbang;
#X obj 48 116 delay 100;
#N canvas 1442 50 476 1011 remote_default 0;
#X obj 92 352 list;
#X obj 71 397 list;
#X obj 92 374 t a a;
#X obj 167 269 bng 15 250 50 0 empty empty empty 17 7 0 10 -262144
-1 -1;
#X obj 92 330 list prepend;
#X obj 318 225 ø.remote e;
#X obj 248 195 ø.remote d;
#X obj 178 165 ø.remote c;
#X obj 108 135 ø.remote b;
#X obj 38 105 ø.remote a;
#X obj 23 298 inlet;
#X obj 23 340 t b b;
#X obj 23 518 outlet;
#X obj 225 441 list prepend set;
#X obj 225 463 list trim;
#X msg 225 485 0 0 0 0 0 1 2 3 4 5;
#X obj 71 546 ø.assert 1 2 3 4 5 @name remote_order;
#X connect 0 0 2 0;
#X connect 1 0 13 0;
#X connect 2 0 1 1;
#X connect 2 1 4 1;
#X connect 3 0 4 1;
#X connect 4 0 0 0;
#X connect 5 1 4 0;
#X connect 6 1 4 0;
#X connect 7 1 4 0;
#X connect 8 1 4 0;
#X connect 9 1 4 0;
#X connect 10 0 11 0;
#X connect 11 0 12 0;
#X connect 11 1 1 0;
#X connect 13 0 14 0;
#X connect 14 0 15 0;
#X restore 48 156 pd remote_default;
#N canvas 1442 50 476 1011 param_default 0;
#X obj 86 152 print a;
#X obj 140 367 list;
#X obj 119 412 list;
#X obj 140 389 t a a;
#X obj 215 284 bng 15 250 50 0 empty empty empty 17 7 0 10 -262144
-1 -1;
#X obj 156 150 ø.param b @default 2 @priority 5;
#X obj 226 180 ø.param c @default 3;
#X obj 366 240 ø.param e @default 5 @priority -15;
#X obj 156 172 print b;
#X obj 226 202 print c;
#X obj 296 232 print d;
#X obj 366 262 print e;
#X obj 296 210 ø.param d @default 4 @priority -1;
#X obj 86 120 ø.param a @default 1 @priority 10;
#X obj 140 345 list prepend;
#X obj 47 282 inlet;
#X obj 47 304 t b b;
#X obj 43 422 outlet;
#X obj 271 457 list prepend set;
#X obj 271 479 list trim;
#X msg 271 501 1 2 3 4 5;
#X obj 119 561 ø.assert 1 2 3 4 5 @name default_order;
#X connect 1 0 3 0;
#X connect 2 0 18 0;
#X connect 2 0 21 0;
#X connect 3 0 2 1;
#X connect 3 1 14 1;
#X connect 4 0 14 1;
#X connect 5 0 8 0;
#X connect 5 0 14 0;
#X connect 6 0 9 0;
#X connect 6 0 14 0;
#X connect 7 0 11 0;
#X connect 7 0 14 0;
#X connect 12 0 10 0;
#X connect 12 0 14 0;
#X connect 13 0 0 0;
#X connect 13 0 14 0;
#X connect 14 0 1 0;
#X connect 15 0 16 0;
#X connect 16 0 17 0;
#X connect 16 1 2 0;
#X connect 18 0 19 0;
#X connect 19 0 20 0;
#X restore 48 136 pd param_default;
#X msg 48 178 \; pd quit;
#X connect 0 0 1 0;
#X connect 1 0 3 0;
#X connect 2 0 4 0;
#X connect 3 0 2 0;
