#N canvas 1046 100 425 972 10;
#X obj 55 722 s pd;
#X msg 55 693 quit;
#X obj 305 138 r ossia;
#X obj 335 191 ossia;
#X obj 55 665 spigot;
#X obj 305 161 t a a;
#X obj 227 191 route testing;
#X obj 227 214 t b a;
#X obj 227 237 del 10;
#X obj 85 85 bng 15 250 50 0 empty empty empty 17 7 0 10 -262144 -1
-1;
#X obj 55 28 loadbang;
#X obj 55 51 del 100;
#N canvas 431 362 722 645 int 0;
#X obj 122 198 ø.remote my_int;
#X obj 325 214 ø.param my_int @type int;
#X msg 122 161 set 34.4;
#X obj 310 268 f;
#X obj 200 261 bng 15 250 50 0 empty empty empty 17 7 0 10 -262144
-1 -1;
#X obj 80 14 inlet;
#X msg 267 129 -452.5;
#X obj 183 325 f;
#X obj 146 13 bng 15 250 50 0 empty empty empty 17 7 0 10 -262144 -1
-1;
#X obj 183 364 ø.assert -452.5 @name remote;
#X obj 105 69 t b b b b;
#X msg 325 102 get global_address;
#X obj 466 263 print Testing;
#X obj 310 307 ø.assert 34 @name param;
#X obj 80 37 t b b;
#X obj 69 110 outlet;
#X floatatom 112 242 5 0 0 0 - - -, f 5;
#X obj 466 242 route global_address;
#X connect 0 0 16 0;
#X connect 0 1 4 0;
#X connect 1 0 3 1;
#X connect 1 1 17 0;
#X connect 2 0 0 0;
#X connect 3 0 13 0;
#X connect 5 0 14 0;
#X connect 6 0 3 1;
#X connect 6 0 7 1;
#X connect 7 0 9 0;
#X connect 8 0 10 0;
#X connect 10 0 3 0;
#X connect 10 0 7 0;
#X connect 10 1 2 0;
#X connect 10 2 6 0;
#X connect 10 3 11 0;
#X connect 11 0 1 0;
#X connect 14 0 15 0;
#X connect 14 1 10 0;
#X connect 17 0 12 0;
#X restore 55 115 pd int;
#N canvas 1158 740 755 309 float 0;
#X msg 122 161 set 34.4;
#X obj 310 268 f;
#X obj 200 261 bng 15 250 50 0 empty empty empty 17 7 0 10 -262144
-1 -1;
#X obj 80 14 inlet;
#X msg 177 120 -452.5;
#X obj 183 325 f;
#X obj 146 13 bng 15 250 50 0 empty empty empty 17 7 0 10 -262144 -1
-1;
#X obj 183 364 ø.assert -452.5 @name remote;
#X obj 105 69 t b b b b;
#X msg 325 102 get global_address;
#X obj 466 263 print Testing;
#X obj 80 37 t b b;
#X obj 69 110 outlet;
#X floatatom 112 242 5 0 0 0 - - -, f 5;
#X obj 466 242 route global_address;
#X obj 310 307 ø.assert 34.4 @name param;
#X obj 325 214 ø.param my_float @type float;
#X obj 122 198 ø.remote my_float;
#X floatatom 340 248 5 0 0 0 - - -, f 5;
#X floatatom 120 344 5 0 0 0 - - -, f 5;
#X floatatom 232 306 5 0 0 0 - - -, f 5;
#X connect 0 0 17 0;
#X connect 1 0 15 0;
#X connect 3 0 11 0;
#X connect 4 0 17 0;
#X connect 5 0 7 0;
#X connect 5 0 19 0;
#X connect 6 0 8 0;
#X connect 8 0 1 0;
#X connect 8 0 5 0;
#X connect 8 1 0 0;
#X connect 8 2 4 0;
#X connect 8 3 9 0;
#X connect 9 0 16 0;
#X connect 11 0 12 0;
#X connect 11 1 8 0;
#X connect 14 0 10 0;
#X connect 16 0 1 1;
#X connect 16 0 18 0;
#X connect 16 1 14 0;
#X connect 17 0 13 0;
#X connect 17 1 2 0;
#X connect 17 1 5 1;
#X connect 17 1 20 0;
#X restore 55 145 pd float;
#N canvas 431 362 722 645 bool 0;
#X obj 310 268 f;
#X obj 200 261 bng 15 250 50 0 empty empty empty 17 7 0 10 -262144
-1 -1;
#X obj 80 14 inlet;
#X obj 183 325 f;
#X obj 146 13 bng 15 250 50 0 empty empty empty 17 7 0 10 -262144 -1
-1;
#X obj 105 69 t b b b b;
#X msg 325 102 get global_address;
#X obj 466 263 print Testing;
#X obj 80 37 t b b;
#X obj 69 110 outlet;
#X floatatom 112 242 5 0 0 0 - - -, f 5;
#X obj 466 242 route global_address;
#X floatatom 340 248 5 0 0 0 - - -, f 5;
#X obj 122 198 ø.remote my_bool;
#X obj 325 214 ø.param my_bool @type bool;
#X msg 177 120 0;
#X obj 183 364 ø.assert 0 @name remote;
#X obj 310 307 ø.assert 1 @name param;
#X msg 122 161 set 1;
#X connect 0 0 17 0;
#X connect 2 0 8 0;
#X connect 3 0 16 0;
#X connect 4 0 5 0;
#X connect 5 0 0 0;
#X connect 5 0 3 0;
#X connect 5 1 18 0;
#X connect 5 2 15 0;
#X connect 5 3 6 0;
#X connect 6 0 14 0;
#X connect 8 0 9 0;
#X connect 8 1 5 0;
#X connect 11 0 7 0;
#X connect 13 0 10 0;
#X connect 13 1 1 0;
#X connect 13 1 3 1;
#X connect 14 0 0 1;
#X connect 14 0 12 0;
#X connect 14 1 11 0;
#X connect 15 0 13 0;
#X connect 18 0 13 0;
#X restore 55 175 pd bool;
#N canvas 431 362 722 645 vec2f 0;
#X obj 200 261 bng 15 250 50 0 empty empty empty 17 7 0 10 -262144
-1 -1;
#X obj 80 14 inlet;
#X obj 146 13 bng 15 250 50 0 empty empty empty 17 7 0 10 -262144 -1
-1;
#X obj 105 69 t b b b b;
#X msg 325 102 get global_address;
#X obj 466 263 print Testing;
#X obj 80 37 t b b;
#X obj 69 110 outlet;
#X floatatom 112 242 5 0 0 0 - - -, f 5;
#X obj 466 242 route global_address;
#X obj 325 214 ø.param my_vec2f @type vec2f;
#X obj 122 198 ø.remote my_vec2f;
#X obj 310 307 ø.assert 0.2 0.3 @name param;
#X msg 122 161 set 0.2 0.3;
#X msg 177 120 24 44;
#X obj 310 268 list;
#X obj 183 325 list;
#X obj 183 364 ø.assert 24 44 @name remote;
#X connect 1 0 6 0;
#X connect 2 0 3 0;
#X connect 3 0 15 0;
#X connect 3 0 16 0;
#X connect 3 1 13 0;
#X connect 3 2 14 0;
#X connect 3 3 4 0;
#X connect 4 0 10 0;
#X connect 6 0 7 0;
#X connect 6 1 3 0;
#X connect 9 0 5 0;
#X connect 10 0 15 1;
#X connect 10 1 9 0;
#X connect 11 0 8 0;
#X connect 11 1 0 0;
#X connect 11 1 16 1;
#X connect 13 0 11 0;
#X connect 14 0 11 0;
#X connect 15 0 12 0;
#X connect 16 0 17 0;
#X restore 55 205 pd vec2f;
#N canvas 431 362 722 645 vec3f 0;
#X obj 200 261 bng 15 250 50 0 empty empty empty 17 7 0 10 -262144
-1 -1;
#X obj 80 14 inlet;
#X obj 146 13 bng 15 250 50 0 empty empty empty 17 7 0 10 -262144 -1
-1;
#X obj 105 69 t b b b b;
#X msg 331 172 get global_address;
#X obj 472 263 print Testing;
#X obj 80 37 t b b;
#X obj 69 110 outlet;
#X floatatom 112 242 5 0 0 0 - - -, f 5;
#X obj 472 242 route global_address;
#X obj 310 268 list;
#X obj 183 325 list;
#X obj 331 214 ø.param my_vec3f @type vec3f;
#X obj 122 198 ø.remote my_vec3f;
#X msg 177 120 24 44 54;
#X msg 122 161 set 0.2 0.3 0.5;
#X obj 310 307 ø.assert 0.2 0.3 0.5 @name param;
#X obj 306 233 bng 15 250 50 0 empty empty empty 17 7 0 10 -262144
-1 -1;
#X obj 183 364 ø.assert 24 44 54 @name remote;
#X connect 1 0 6 0;
#X connect 2 0 3 0;
#X connect 3 0 10 0;
#X connect 3 0 11 0;
#X connect 3 1 15 0;
#X connect 3 2 14 0;
#X connect 3 3 4 0;
#X connect 4 0 12 0;
#X connect 6 0 7 0;
#X connect 6 1 3 0;
#X connect 9 0 5 0;
#X connect 10 0 16 0;
#X connect 11 0 18 0;
#X connect 12 0 10 1;
#X connect 12 1 9 0;
#X connect 13 0 8 0;
#X connect 13 1 0 0;
#X connect 13 1 11 1;
#X connect 14 0 13 0;
#X connect 15 0 13 0;
#X connect 17 0 10 0;
#X restore 55 235 pd vec3f;
#N canvas 431 362 722 645 vec4f 0;
#X obj 200 261 bng 15 250 50 0 empty empty empty 17 7 0 10 -262144
-1 -1;
#X obj 80 14 inlet;
#X obj 146 13 bng 15 250 50 0 empty empty empty 17 7 0 10 -262144 -1
-1;
#X obj 105 69 t b b b b;
#X msg 331 172 get global_address;
#X obj 472 263 print Testing;
#X obj 80 37 t b b;
#X obj 69 110 outlet;
#X obj 472 242 route global_address;
#X obj 310 268 list;
#X obj 183 325 list;
#X obj 306 233 bng 15 250 50 0 empty empty empty 17 7 0 10 -262144
-1 -1;
#X obj 331 214 ø.param my_vec4f @type vec4f;
#X obj 122 198 ø.remote my_vec4f;
#X msg 122 161 set 0.2 0.3 0.5 123.546;
#X obj 310 307 ø.assert 0.2 0.3 0.5 123.546 @name param;
#X obj 183 364 ø.assert 24 44 54 -85.2 @name remote;
#X msg 177 120 24 44 54 -85.2;
#X connect 1 0 6 0;
#X connect 2 0 3 0;
#X connect 3 0 9 0;
#X connect 3 0 10 0;
#X connect 3 1 14 0;
#X connect 3 2 17 0;
#X connect 3 3 4 0;
#X connect 4 0 12 0;
#X connect 6 0 7 0;
#X connect 6 1 3 0;
#X connect 8 0 5 0;
#X connect 9 0 15 0;
#X connect 10 0 16 0;
#X connect 11 0 9 0;
#X connect 12 0 9 1;
#X connect 12 1 8 0;
#X connect 13 1 0 0;
#X connect 13 1 10 1;
#X connect 14 0 13 0;
#X connect 17 0 13 0;
#X restore 55 265 pd vec4f;
#N canvas 958 269 712 569 list2 0;
#X obj 200 261 bng 15 250 50 0 empty empty empty 17 7 0 10 -262144
-1 -1;
#X obj 80 14 inlet;
#X obj 146 13 bng 15 250 50 0 empty empty empty 17 7 0 10 -262144 -1
-1;
#X obj 105 69 t b b b b;
#X msg 331 172 get global_address;
#X obj 472 263 print Testing;
#X obj 80 37 t b b;
#X obj 69 110 outlet;
#X obj 472 242 route global_address;
#X obj 310 268 list;
#X obj 183 325 list;
#X obj 306 233 bng 15 250 50 0 empty empty empty 17 7 0 10 -262144
-1 -1;
#X obj 331 214 ø.param my_list2 @type list;
#X obj 122 198 ø.remote my_list2;
#X msg 122 161 set toto 0.3;
#X obj 183 364 ø.assert blabla car @name remote;
#X obj 310 307 ø.assert toto 0.3 @name param;
#X msg 177 120 list blabla car;
#X msg 184 58 blabla car;
#X obj 133 285 bng 15 250 50 0 empty empty empty 17 7 0 10 -262144
-1 -1;
#X connect 1 0 6 0;
#X connect 2 0 3 0;
#X connect 3 0 9 0;
#X connect 3 0 10 0;
#X connect 3 1 14 0;
#X connect 3 2 17 0;
#X connect 3 3 4 0;
#X connect 4 0 12 0;
#X connect 6 0 7 0;
#X connect 6 1 3 0;
#X connect 8 0 5 0;
#X connect 9 0 16 0;
#X connect 10 0 15 0;
#X connect 11 0 9 0;
#X connect 12 0 9 1;
#X connect 12 1 8 0;
#X connect 13 1 0 0;
#X connect 13 1 10 1;
#X connect 14 0 13 0;
#X connect 17 0 13 0;
#X connect 18 0 13 0;
#X connect 19 0 10 0;
#X restore 55 295 pd list2;
#N canvas 958 269 712 569 list2 0;
#X obj 80 14 inlet;
#X obj 146 13 bng 15 250 50 0 empty empty empty 17 7 0 10 -262144 -1
-1;
#X obj 105 69 t b b b b;
#X msg 331 172 get global_address;
#X obj 472 263 print Testing;
#X obj 80 37 t b b;
#X obj 69 110 outlet;
#X obj 472 242 route global_address;
#X obj 310 268 list;
#X obj 183 325 list;
#X msg 122 161 set 0.2 toto;
#X obj 310 307 ø.assert 0.2 toto @name param;
#X msg 177 120 list 8 aa;
#X obj 122 198 ø.remote my_list2_2;
#X obj 331 214 ø.param my_list2_2 @type list;
#X obj 183 364 ø.assert 8 aa @name remote;
#X connect 0 0 5 0;
#X connect 1 0 2 0;
#X connect 2 0 8 0;
#X connect 2 0 9 0;
#X connect 2 1 10 0;
#X connect 2 2 12 0;
#X connect 2 3 3 0;
#X connect 3 0 14 0;
#X connect 5 0 6 0;
#X connect 5 1 2 0;
#X connect 7 0 4 0;
#X connect 8 0 11 0;
#X connect 9 0 15 0;
#X connect 10 0 13 0;
#X connect 12 0 13 0;
#X connect 13 1 9 1;
#X connect 14 0 8 1;
#X connect 14 1 7 0;
#X restore 55 325 pd list2;
#N canvas 958 269 712 569 list3 0;
#X obj 200 261 bng 15 250 50 0 empty empty empty 17 7 0 10 -262144
-1 -1;
#X obj 80 14 inlet;
#X obj 146 13 bng 15 250 50 0 empty empty empty 17 7 0 10 -262144 -1
-1;
#X obj 105 69 t b b b b;
#X msg 331 172 get global_address;
#X obj 472 263 print Testing;
#X obj 80 37 t b b;
#X obj 69 110 outlet;
#X obj 472 242 route global_address;
#X obj 310 268 list;
#X obj 183 325 list;
#X obj 306 233 bng 15 250 50 0 empty empty empty 17 7 0 10 -262144
-1 -1;
#X msg 184 58 blabla car;
#X obj 133 285 bng 15 250 50 0 empty empty empty 17 7 0 10 -262144
-1 -1;
#X obj 310 307 ø.assert toto 0.3 55 @name param;
#X obj 331 214 ø.param my_list3 @type list;
#X obj 122 198 ø.remote my_list3;
#X msg 122 161 set toto 0.3 55;
#X msg 177 120 list blabla car 22;
#X obj 183 364 ø.assert blabla car 22 @name remote;
#X connect 1 0 6 0;
#X connect 2 0 3 0;
#X connect 3 0 9 0;
#X connect 3 0 10 0;
#X connect 3 1 17 0;
#X connect 3 2 18 0;
#X connect 3 3 4 0;
#X connect 4 0 15 0;
#X connect 6 0 7 0;
#X connect 6 1 3 0;
#X connect 8 0 5 0;
#X connect 9 0 14 0;
#X connect 10 0 19 0;
#X connect 11 0 9 0;
#X connect 12 0 16 0;
#X connect 13 0 10 0;
#X connect 15 0 9 1;
#X connect 15 1 8 0;
#X connect 16 1 0 0;
#X connect 16 1 10 1;
#X connect 17 0 16 0;
#X connect 18 0 16 0;
#X restore 55 355 pd list3;
#N canvas 958 269 712 569 list3 0;
#X obj 80 14 inlet;
#X obj 146 13 bng 15 250 50 0 empty empty empty 17 7 0 10 -262144 -1
-1;
#X obj 105 69 t b b b b;
#X msg 331 172 get global_address;
#X obj 472 263 print Testing;
#X obj 80 37 t b b;
#X obj 69 110 outlet;
#X obj 472 242 route global_address;
#X obj 310 268 list;
#X obj 183 325 list;
#X obj 122 198 ø.remote my_list3_2;
#X obj 331 214 ø.param my_list3_2 @type list;
#X msg 177 120 list 8 aa -3.2;
#X msg 122 161 set 0.2 toto 45;
#X obj 183 364 ø.assert 8 aa -3.2 @name remote;
#X obj 310 307 ø.assert 0.2 toto 45 @name param;
#X connect 0 0 5 0;
#X connect 1 0 2 0;
#X connect 2 0 8 0;
#X connect 2 0 9 0;
#X connect 2 1 13 0;
#X connect 2 2 12 0;
#X connect 2 3 3 0;
#X connect 3 0 11 0;
#X connect 5 0 6 0;
#X connect 5 1 2 0;
#X connect 7 0 4 0;
#X connect 8 0 15 0;
#X connect 9 0 14 0;
#X connect 10 1 9 1;
#X connect 11 0 8 1;
#X connect 11 1 7 0;
#X connect 12 0 10 0;
#X connect 13 0 10 0;
#X restore 55 385 pd list3;
#N canvas 958 269 712 569 list4 0;
#X obj 200 261 bng 15 250 50 0 empty empty empty 17 7 0 10 -262144
-1 -1;
#X obj 80 14 inlet;
#X obj 146 13 bng 15 250 50 0 empty empty empty 17 7 0 10 -262144 -1
-1;
#X obj 105 69 t b b b b;
#X msg 331 172 get global_address;
#X obj 472 263 print Testing;
#X obj 80 37 t b b;
#X obj 69 110 outlet;
#X obj 472 242 route global_address;
#X obj 310 268 list;
#X obj 183 325 list;
#X obj 306 233 bng 15 250 50 0 empty empty empty 17 7 0 10 -262144
-1 -1;
#X msg 184 58 blabla car;
#X obj 133 285 bng 15 250 50 0 empty empty empty 17 7 0 10 -262144
-1 -1;
#X obj 331 214 ø.param my_list4 @type list;
#X obj 122 198 ø.remote my_list4;
#X msg 177 120 list blabla -123.2 car 22;
#X obj 183 364 ø.assert blabla -123.2 car 22 @name remote;
#X msg 122 161 set toto 0.3 biche 55;
#X obj 310 307 ø.assert toto 0.3 biche 55 @name param;
#X connect 1 0 6 0;
#X connect 2 0 3 0;
#X connect 3 0 9 0;
#X connect 3 0 10 0;
#X connect 3 1 18 0;
#X connect 3 2 16 0;
#X connect 3 3 4 0;
#X connect 4 0 14 0;
#X connect 6 0 7 0;
#X connect 6 1 3 0;
#X connect 8 0 5 0;
#X connect 9 0 19 0;
#X connect 10 0 17 0;
#X connect 11 0 9 0;
#X connect 12 0 15 0;
#X connect 13 0 10 0;
#X connect 14 0 9 1;
#X connect 14 1 8 0;
#X connect 15 1 0 0;
#X connect 15 1 10 1;
#X connect 16 0 15 0;
#X connect 18 0 15 0;
#X restore 55 415 pd list4;
#N canvas 958 269 712 569 list4 0;
#X obj 80 14 inlet;
#X obj 146 13 bng 15 250 50 0 empty empty empty 17 7 0 10 -262144 -1
-1;
#X obj 105 69 t b b b b;
#X msg 331 172 get global_address;
#X obj 472 263 print Testing;
#X obj 80 37 t b b;
#X obj 69 110 outlet;
#X obj 472 242 route global_address;
#X obj 310 268 list;
#X obj 183 325 list;
#X obj 122 198 ø.remote my_list4_2;
#X obj 331 214 ø.param my_list4_2 @type list;
#X msg 177 120 list 8 aa rho -3.2;
#X obj 183 364 ø.assert 8 aa rho -3.2 @name remote;
#X obj 310 307 ø.assert 0.2 toto 45 tiev @name param;
#X msg 122 161 set 0.2 toto 45 tiev;
#X connect 0 0 5 0;
#X connect 1 0 2 0;
#X connect 2 0 8 0;
#X connect 2 0 9 0;
#X connect 2 1 15 0;
#X connect 2 2 12 0;
#X connect 2 3 3 0;
#X connect 3 0 11 0;
#X connect 5 0 6 0;
#X connect 5 1 2 0;
#X connect 7 0 4 0;
#X connect 8 0 14 0;
#X connect 9 0 13 0;
#X connect 10 1 9 1;
#X connect 11 0 8 1;
#X connect 11 1 7 0;
#X connect 12 0 10 0;
#X connect 15 0 10 0;
#X restore 55 445 pd list4;
#N canvas 865 344 712 569 list5 0;
#X obj 80 14 inlet;
#X obj 146 13 bng 15 250 50 0 empty empty empty 17 7 0 10 -262144 -1
-1;
#X obj 105 69 t b b b b;
#X msg 331 172 get global_address;
#X obj 472 263 print Testing;
#X obj 80 37 t b b;
#X obj 69 110 outlet;
#X obj 472 242 route global_address;
#X obj 310 268 list;
#X obj 183 325 list;
#X msg 177 120 list 8 aa rho -3.2 mal;
#X obj 183 364 ø.assert 8 aa rho -3.2 mal @name remote;
#X obj 331 214 ø.param my_list5 @type list;
#X obj 122 198 ø.remote my_list5;
#X msg 122 161 set toto 0.2 45 tiev fruh;
#X obj 310 307 ø.assert toto 0.2 45 tiev fruh @name param;
#X connect 0 0 5 0;
#X connect 1 0 2 0;
#X connect 2 0 8 0;
#X connect 2 0 9 0;
#X connect 2 1 14 0;
#X connect 2 2 10 0;
#X connect 2 3 3 0;
#X connect 3 0 12 0;
#X connect 5 0 6 0;
#X connect 5 1 2 0;
#X connect 7 0 4 0;
#X connect 8 0 15 0;
#X connect 9 0 11 0;
#X connect 10 0 13 0;
#X connect 12 0 8 1;
#X connect 12 1 7 0;
#X connect 13 1 9 1;
#X connect 14 0 13 0;
#X restore 55 475 pd list5;
#N canvas 142 351 712 569 list5 0;
#X obj 80 14 inlet;
#X obj 146 13 bng 15 250 50 0 empty empty empty 17 7 0 10 -262144 -1
-1;
#X obj 105 69 t b b b b;
#X msg 331 172 get global_address;
#X obj 472 263 print Testing;
#X obj 80 37 t b b;
#X obj 69 110 outlet;
#X obj 472 242 route global_address;
#X obj 310 268 list;
#X obj 183 325 list;
#X msg 177 120 list 8 aa rho -3.2;
#X obj 183 364 ø.assert 8 aa rho -3.2 @name remote;
#X obj 310 307 ø.assert 0.2 toto 45 tiev @name param;
#X msg 122 161 set 0.2 toto 45 tiev;
#X obj 331 214 ø.param my_list5_2 @type list;
#X obj 122 198 ø.remote my_list5_2;
#X connect 0 0 5 0;
#X connect 1 0 2 0;
#X connect 2 0 8 0;
#X connect 2 0 9 0;
#X connect 2 1 13 0;
#X connect 2 2 10 0;
#X connect 2 3 3 0;
#X connect 3 0 14 0;
#X connect 5 0 6 0;
#X connect 5 1 2 0;
#X connect 7 0 4 0;
#X connect 8 0 12 0;
#X connect 9 0 11 0;
#X connect 10 0 15 0;
#X connect 13 0 15 0;
#X connect 14 0 8 1;
#X connect 14 1 7 0;
#X connect 15 1 9 1;
#X restore 55 505 pd list5;
#X obj 204 88 s ossia;
#X msg 204 59 testing 1;
#N canvas 865 344 712 569 list5 0;
#X obj 80 14 inlet;
#X obj 146 13 bng 15 250 50 0 empty empty empty 17 7 0 10 -262144 -1
-1;
#X obj 105 69 t b b b b;
#X msg 331 172 get global_address;
#X obj 472 263 print Testing;
#X obj 80 37 t b b;
#X obj 69 110 outlet;
#X obj 472 242 route global_address;
#X obj 310 268 list;
#X obj 183 325 list;
#X obj 122 198 ø.remote my_list5.2;
#X obj 331 214 ø.param my_list5.2 @type list;
#X msg 177 120 abc 1 2;
#X obj 183 364 ø.assert abc 1 2 @name remote;
#X obj 310 307 ø.assert cc 3.4 -0.4 @name param;
#X msg 122 161 set cc 3.4 -0.4;
#X connect 0 0 5 0;
#X connect 1 0 2 0;
#X connect 2 0 8 0;
#X connect 2 0 9 0;
#X connect 2 1 15 0;
#X connect 2 2 12 0;
#X connect 2 3 3 0;
#X connect 3 0 11 0;
#X connect 5 0 6 0;
#X connect 5 1 2 0;
#X connect 7 0 4 0;
#X connect 8 0 14 0;
#X connect 9 0 13 0;
#X connect 10 1 9 1;
#X connect 11 0 8 1;
#X connect 11 1 7 0;
#X connect 12 0 10 0;
#X connect 15 0 10 0;
#X restore 55 535 pd list5;
#N canvas 142 351 712 569 list5 0;
#X obj 80 14 inlet;
#X obj 146 13 bng 15 250 50 0 empty empty empty 17 7 0 10 -262144 -1
-1;
#X obj 105 69 t b b b b;
#X msg 331 172 get global_address;
#X obj 472 263 print Testing;
#X obj 80 37 t b b;
#X obj 69 110 outlet;
#X obj 472 242 route global_address;
#X obj 310 268 list;
#X obj 183 325 list;
#X obj 331 214 ø.param my_list5_2.2 @type list;
#X obj 122 198 ø.remote my_list5_2.2;
#X msg 177 120 abc 1 2 3;
#X msg 122 161 set ddd 5 4 3;
#X obj 183 364 ø.assert abc 1 2 3 @name remote;
#X obj 310 307 ø.assert ddd 5 4 3 @name param;
#X connect 0 0 5 0;
#X connect 1 0 2 0;
#X connect 2 0 8 0;
#X connect 2 0 9 0;
#X connect 2 1 13 0;
#X connect 2 2 12 0;
#X connect 2 3 3 0;
#X connect 3 0 10 0;
#X connect 5 0 6 0;
#X connect 5 1 2 0;
#X connect 7 0 4 0;
#X connect 8 0 15 0;
#X connect 9 0 14 0;
#X connect 10 0 8 1;
#X connect 10 1 7 0;
#X connect 11 1 9 1;
#X connect 12 0 11 0;
#X connect 13 0 11 0;
#X restore 55 565 pd list5;
#X connect 1 0 0 0;
#X connect 2 0 5 0;
#X connect 4 0 1 0;
#X connect 5 0 6 0;
#X connect 5 1 3 0;
#X connect 6 0 7 0;
#X connect 7 0 8 0;
#X connect 7 1 4 1;
#X connect 8 0 12 0;
#X connect 9 0 12 0;
#X connect 10 0 11 0;
#X connect 11 0 12 0;
#X connect 12 0 13 0;
#X connect 13 0 14 0;
#X connect 14 0 15 0;
#X connect 15 0 16 0;
#X connect 16 0 17 0;
#X connect 17 0 18 0;
#X connect 18 0 19 0;
#X connect 19 0 20 0;
#X connect 20 0 21 0;
#X connect 21 0 22 0;
#X connect 22 0 23 0;
#X connect 23 0 24 0;
#X connect 24 0 25 0;
#X connect 25 0 28 0;
#X connect 27 0 26 0;
#X connect 28 0 29 0;
#X connect 29 0 4 0;
