#N canvas 131 633 730 360 10;
#X obj 42 71 ossia.parameter foo @type list @default 1 2 3;
#X obj 362 73 ossia.remote foo;
#X obj 362 96 print remote_foo;
#X obj 511 72 ossia;
#X obj 511 95 print;
#X msg 511 49 namespace;
#X msg 42 43 4 5 6;
#X obj 42 97 print parameter_foo;
#X obj 42 161 ossia.parameter bar @type list;
#X obj 362 163 ossia.remote bar;
#X obj 362 186 print remote_bar;
#X obj 42 187 print parameter_bar;
#X obj 250 152 loadbang;
#X obj 250 175 sel 100;
#X obj 310 214 t b;
#X obj 250 279 f 1;
#X msg 310 237 0;
#X obj 250 302 ø.assert 1 @name remote_bar;
#X obj 70 214 t b;
#X obj 70 279 f 1;
#X msg 70 237 0;
#X obj 70 302 ø.assert 1 @name remote_bar;
#X obj 607 140 r ossia;
#X obj 637 193 ossia;
#X obj 607 163 t a a;
#X obj 529 193 route testing;
#X obj 529 216 t b a;
#X obj 529 239 del 10;
#X obj 520 303 spigot;
#X obj 521 366 s pd;
#X msg 521 337 quit;
#X obj 211 203 t b b b;
#X connect 0 0 7 0;
#X connect 1 0 2 0;
#X connect 3 0 4 0;
#X connect 5 0 3 0;
#X connect 6 0 0 0;
#X connect 8 0 11 0;
#X connect 8 0 18 0;
#X connect 9 0 10 0;
#X connect 9 0 14 0;
#X connect 12 0 13 0;
#X connect 13 0 31 0;
#X connect 14 0 16 0;
#X connect 15 0 17 0;
#X connect 16 0 15 0;
#X connect 18 0 20 0;
#X connect 19 0 21 0;
#X connect 20 0 19 0;
#X connect 22 0 24 0;
#X connect 24 0 25 0;
#X connect 24 1 23 0;
#X connect 25 0 26 0;
#X connect 26 0 27 0;
#X connect 26 1 28 1;
#X connect 27 0 13 0;
#X connect 28 0 30 0;
#X connect 28 0 29 0;
#X connect 30 0 29 0;
#X connect 31 0 28 0;
#X connect 31 1 19 0;
#X connect 31 2 15 0;
