#N canvas 796 162 400 257 10;
#N canvas 972 120 351 65 make_me_a_namespace 0;
#N canvas 972 141 356 120 global_device 0;
#X text 17 8 all nodes in there are registered under the global devices
whose parameters are accessible via the [ossia] object:, f 49;
#X msg 237 40 namespace;
#X obj 237 86 print global;
#N canvas 932 559 286 181 aModel 0;
#X obj 165 43 ø.param aParam;
#X floatatom 165 66 5 0 0 0 - - -, f 5;
#X floatatom 164 23 5 0 0 0 - - -, f 5;
#N canvas 972 763 254 89 sub 0;
#X obj 17 26 ø.model subModel;
#N canvas 973 876 258 54 sub 0;
#X obj 13 28 ø.model subsub;
#X floatatom 114 30 5 0 0 0 - - -, f 5;
#X obj 114 7 ø.param subsubParam;
#X connect 2 0 1 0;
#X restore 16 55 pd sub;
#X floatatom 133 48 5 0 0 0 - - -, f 5;
#X obj 133 25 ø.param subParam;
#N canvas 973 953 258 55 sub 0;
#X obj 13 28 ø.model subsub;
#X floatatom 114 30 5 0 0 0 - - -, f 5;
#X obj 114 7 ø.param subsubParam;
#X connect 2 0 1 0;
#X restore 68 55 pd sub;
#X connect 3 0 2 0;
#X restore 16 55 pd sub;
#X obj 168 117 ø.param aParam;
#X floatatom 168 140 5 0 0 0 - - -, f 5;
#X floatatom 167 97 5 0 0 0 - - -, f 5;
#X floatatom 16 141 5 0 0 0 - - -, f 5;
#X floatatom 15 98 5 0 0 0 - - -, f 5;
#X obj 16 118 ø.param anotherParam;
#N canvas 839 763 259 89 sub 0;
#X obj 17 26 ø.model subModel;
#N canvas 839 877 263 58 sub 0;
#X obj 13 28 ø.model subsub;
#X floatatom 114 30 5 0 0 0 - - -, f 5;
#X obj 114 7 ø.param subsubParam;
#X connect 2 0 1 0;
#X restore 16 55 pd sub;
#X floatatom 133 48 5 0 0 0 - - -, f 5;
#X obj 133 25 ø.param subParam;
#N canvas 832 953 271 55 sub 0;
#X obj 13 28 ø.model subsub;
#X floatatom 114 30 5 0 0 0 - - -, f 5;
#X obj 114 7 ø.param subsubParam;
#X connect 2 0 1 0;
#X restore 68 55 pd sub;
#X connect 3 0 2 0;
#X restore 62 55 pd sub;
#X obj 14 25 ø.model aModel;
#X connect 0 0 1 0;
#X connect 2 0 0 0;
#X connect 4 0 5 0;
#X connect 6 0 4 0;
#X connect 8 0 9 0;
#X connect 9 0 7 0;
#X restore 19 85 pd aModel;
#N canvas 1219 559 326 181 anotherModel 0;
#X obj 183 44 ø.param aParam;
#X floatatom 183 67 5 0 0 0 - - -, f 5;
#X floatatom 182 24 5 0 0 0 - - -, f 5;
#X obj 186 118 ø.param aParam;
#X floatatom 186 141 5 0 0 0 - - -, f 5;
#X floatatom 185 98 5 0 0 0 - - -, f 5;
#X floatatom 16 141 5 0 0 0 - - -, f 5;
#X floatatom 15 98 5 0 0 0 - - -, f 5;
#X obj 16 118 ø.param anotherParam;
#N canvas 1219 765 257 87 sub 0;
#X obj 17 26 ø.model subModel;
#N canvas 1216 873 256 56 sub 0;
#X obj 13 28 ø.model subsub;
#X floatatom 114 30 5 0 0 0 - - -, f 5;
#X obj 114 7 ø.param subsubParam;
#X connect 2 0 1 0;
#X restore 16 55 pd sub;
#X floatatom 133 48 5 0 0 0 - - -, f 5;
#X obj 133 25 ø.param subParam;
#N canvas 1218 954 257 55 sub 0;
#X obj 13 28 ø.model subsub;
#X floatatom 114 30 5 0 0 0 - - -, f 5;
#X obj 114 7 ø.param subsubParam;
#X connect 2 0 1 0;
#X restore 68 55 pd sub;
#X connect 3 0 2 0;
#X restore 16 55 pd sub;
#N canvas 1369 763 278 89 sub 0;
#X obj 17 26 ø.model subModel;
#N canvas 1367 875 280 55 sub 0;
#X obj 13 28 ø.model subsub;
#X floatatom 114 30 5 0 0 0 - - -, f 5;
#X obj 114 7 ø.param subsubParam;
#X connect 2 0 1 0;
#X restore 16 55 pd sub;
#X floatatom 133 48 5 0 0 0 - - -, f 5;
#X obj 133 25 ø.param subParam;
#N canvas 1367 953 278 55 sub 0;
#X obj 13 28 ø.model subsub;
#X floatatom 114 30 5 0 0 0 - - -, f 5;
#X obj 114 7 ø.param subsubParam;
#X connect 2 0 1 0;
#X restore 68 55 pd sub;
#X connect 3 0 2 0;
#X restore 62 55 pd sub;
#X obj 14 25 ø.model aModel;
#X connect 0 0 1 0;
#X connect 2 0 0 0;
#X connect 3 0 4 0;
#X connect 5 0 3 0;
#X connect 7 0 8 0;
#X connect 8 0 6 0;
#X restore 96 85 pd anotherModel;
#X text 17 64 here we create some nodes:;
#X obj 237 63 ossia local;
#X connect 1 0 6 0;
#X connect 6 0 2 0;
#X restore 38 20 pd global_device;
#N canvas 972 284 357 187 anotherDevice 0;
#X msg 113 75 expose oscquery 8373 1370;
#X text 19 153 here we create some nodes:;
#X msg 21 52 namespace;
#X obj 21 123 print global;
#N canvas 507 558 281 181 bModel 0;
#X obj 14 25 ø.model aModel;
#X obj 163 43 ø.param aParam;
#X floatatom 163 66 5 0 0 0 - - -, f 5;
#X floatatom 162 23 5 0 0 0 - - -, f 5;
#N canvas 507 762 260 89 sub 0;
#X obj 17 26 ø.model subModel;
#N canvas 522 875 261 55 sub 0;
#X obj 13 28 ø.model subsub;
#X floatatom 114 30 5 0 0 0 - - -, f 5;
#X obj 114 7 ø.param subsubParam;
#X connect 2 0 1 0;
#X restore 16 55 pd sub;
#X floatatom 133 48 5 0 0 0 - - -, f 5;
#X obj 133 25 ø.param subParam;
#N canvas 519 953 258 54 sub 0;
#X obj 13 28 ø.model subsub;
#X floatatom 114 30 5 0 0 0 - - -, f 5;
#X obj 114 7 ø.param subsubParam;
#X connect 2 0 1 0;
#X restore 68 55 pd sub;
#X connect 3 0 2 0;
#X restore 16 55 pd sub;
#X obj 166 117 ø.param aParam;
#X floatatom 166 140 5 0 0 0 - - -, f 5;
#X floatatom 165 97 5 0 0 0 - - -, f 5;
#X floatatom 16 141 5 0 0 0 - - -, f 5;
#X floatatom 15 98 5 0 0 0 - - -, f 5;
#X obj 16 118 ø.param anotherParam;
#N canvas 659 763 261 89 sub 0;
#X obj 17 26 ø.model subModel;
#N canvas 659 875 261 55 sub 0;
#X obj 13 28 ø.model subsub;
#X floatatom 114 30 5 0 0 0 - - -, f 5;
#X obj 114 7 ø.param subsubParam;
#X connect 2 0 1 0;
#X restore 16 55 pd sub;
#X floatatom 133 48 5 0 0 0 - - -, f 5;
#X obj 133 25 ø.param subParam;
#N canvas 658 950 263 53 sub 0;
#X obj 13 28 ø.model subsub;
#X floatatom 114 30 5 0 0 0 - - -, f 5;
#X obj 114 7 ø.param subsubParam;
#X connect 2 0 1 0;
#X restore 68 55 pd sub;
#X connect 3 0 2 0;
#X restore 62 55 pd sub;
#X connect 1 0 2 0;
#X connect 3 0 1 0;
#X connect 5 0 6 0;
#X connect 7 0 5 0;
#X connect 9 0 10 0;
#X connect 10 0 8 0;
#X restore 272 153 pd bModel;
#N canvas 234 558 272 181 theOtherModel 0;
#X obj 5 24 ø.model aModel;
#X obj 159 43 ø.param aParam;
#X floatatom 159 66 5 0 0 0 - - -, f 5;
#X floatatom 158 23 5 0 0 0 - - -, f 5;
#X obj 162 117 ø.param aParam;
#X floatatom 162 140 5 0 0 0 - - -, f 5;
#X floatatom 161 97 5 0 0 0 - - -, f 5;
#X floatatom 7 140 5 0 0 0 - - -, f 5;
#X floatatom 6 97 5 0 0 0 - - -, f 5;
#X obj 7 117 ø.param anotherParam;
#N canvas 56 762 246 89 sub 0;
#X obj 17 26 ø.model subModel;
#N canvas 0 952 261 53 sub 0;
#X obj 13 28 ø.model subsub;
#X floatatom 114 30 5 0 0 0 - - -, f 5;
#X obj 114 7 ø.param subsubParam;
#X connect 2 0 1 0;
#X restore 16 55 pd sub;
#X floatatom 133 48 5 0 0 0 - - -, f 5;
#X obj 133 25 ø.param subParam;
#N canvas 0 872 259 57 sub 0;
#X obj 13 28 ø.model subsub;
#X floatatom 114 30 5 0 0 0 - - -, f 5;
#X obj 114 7 ø.param subsubParam;
#X connect 2 0 1 0;
#X restore 68 55 pd sub;
#X connect 3 0 2 0;
#X restore 7 54 pd sub;
#N canvas 260 762 246 89 sub 0;
#X obj 17 26 ø.model subModel;
#N canvas 260 874 262 55 sub 0;
#X obj 13 28 ø.model subsub;
#X floatatom 114 30 5 0 0 0 - - -, f 5;
#X obj 114 7 ø.param subsubParam;
#X connect 2 0 1 0;
#X restore 16 55 pd sub;
#X floatatom 133 48 5 0 0 0 - - -, f 5;
#X obj 133 25 ø.param subParam;
#N canvas 260 952 258 55 sub 0;
#X obj 13 28 ø.model subsub;
#X floatatom 114 30 5 0 0 0 - - -, f 5;
#X obj 114 7 ø.param subsubParam;
#X connect 2 0 1 0;
#X restore 68 55 pd sub;
#X connect 3 0 2 0;
#X restore 53 54 pd sub;
#X connect 1 0 2 0;
#X connect 3 0 1 0;
#X connect 4 0 5 0;
#X connect 6 0 4 0;
#X connect 8 0 9 0;
#X connect 9 0 7 0;
#X restore 226 132 pd theOtherModel;
#X obj 113 53 loadbang;
#X text 13 13 Here \, we expose a bunch of other nodes under a different
device:, f 47;
#X obj 21 104 ø.device aDevice;
#X connect 0 0 8 0;
#X connect 2 0 8 0;
#X connect 6 0 0 0;
#X connect 8 0 3 0;
#X restore 197 20 pd anotherDevice;
#X restore 218 35 pd make_me_a_namespace;
#N canvas 598 120 370 254 client 0;
#X obj 79 220 ø.remote aModel.1/subModel.1/subParam;
#X floatatom 44 219 5 0 0 0 - - -, f 5;
#X floatatom 49 162 5 0 0 0 - - -, f 5;
#X obj 90 160 ø.remote aModel/aParam;
#N canvas 598 330 369 170 aView 0;
#X obj 225 59 ø.view aModel;
#X floatatom 43 55 5 0 0 0 - - -, f 5;
#X obj 79 56 ø.remote aParam;
#X floatatom 35 126 5 0 0 0 - - -, f 5;
#X obj 70 127 ø.remote subModel.1/subsub/subsubParam;
#X connect 1 0 2 0;
#X connect 2 0 1 0;
#X connect 3 0 4 0;
#X connect 4 0 3 0;
#X restore 260 161 pd aView;
#X obj 40 53 ø.view aDevice:/;
#X msg 43 118 bind aModel/aParam;
#X msg 189 118 bind aModel.1/aParam;
#X msg 194 90 bind /aModel/aParam;
#X msg 164 20 bind aDevice:/;
#X msg 40 21 bind /;
#X connect 0 0 1 0;
#X connect 1 0 0 0;
#X connect 2 0 3 0;
#X connect 3 0 2 0;
#X connect 6 0 3 0;
#X connect 7 0 3 0;
#X connect 8 0 3 0;
#X connect 9 0 5 0;
#X connect 10 0 5 0;
#X restore 309 56 pd client;
#X floatatom 48 103 5 0 0 0 - - -, f 5;
#X floatatom 49 136 5 0 0 0 - - -, f 5;
#X text 8 14 first of all \, let's:;
#X text 88 36 create some nodes:;
#X text 11 57 connect to the device we created in there:;
#X floatatom 49 192 5 0 0 0 - - -, f 5;
#X obj 89 135 ø.remote aDevice:/aModel/aParam*;
#X obj 89 104 ø.remote aModel*/aParam*;
#X obj 89 191 ø.remote aDevice:/aModel*/aParam;
#X connect 2 0 9 0;
#X connect 3 0 8 0;
#X connect 7 0 10 0;
#X connect 8 0 3 0;
#X connect 9 0 2 0;
#X connect 10 0 7 0;
