#N canvas 2 756 956 127 10;
#X obj 616 115 ø.client;
#X msg 616 91 connect oscquery;
#X obj 597 21 loadbang;
#X floatatom 458 91 5 0 0 0 - - -, f 5;
#X obj 504 88 ø.remote foo;
#X obj 538 119 stdout;
#X floatatom 321 92 5 0 0 0 - - -, f 5;
#X obj 367 89 ø.remote bar;
#X msg 752 78 \; pd dsp 1;
#X msg 367 68 10;
#X obj 597 43 t b b b;
#X obj 367 47 del 100;
#X connect 1 0 0 0;
#X connect 2 0 10 0;
#X connect 3 0 4 0;
#X connect 4 0 3 0;
#X connect 4 1 5 0;
#X connect 6 0 7 0;
#X connect 7 0 6 0;
#X connect 9 0 7 0;
#X connect 10 0 11 0;
#X connect 10 1 1 0;
#X connect 10 2 8 0;
#X connect 11 0 9 0;
