#N canvas 1161 300 530 300 10;
#X obj 58 227 ossia.client;
#X msg 64 187 connect oscquery;
#X obj 58 249 print;
#X msg 19 163 dump;
#X floatatom 72 56 5 0 0 0 - - -, f 5;
#X obj 114 56 ossia.remote modratio;
#X floatatom 72 86 5 0 0 0 - - -, f 5;
#X obj 115 86 ossia.remote modgain;
#X obj 215 127 tgl 15 0 empty empty empty 17 7 0 10 -262144 -1 -1 1
1;
#N canvas 0 145 450 381 randomtest 0;
#X obj 126 214 makenote 64 200;
#X obj 126 116 random 50;
#X obj 153 255 pack 0 0;
#X obj 241 24 inlet;
#X obj 153 277 outlet;
#X obj 177 140 random 40;
#X obj 177 162 + 87;
#X obj 262 136 random 500;
#X obj 139 86 t b b b;
#X obj 280 199 del;
#X obj 241 46 sel 0 1;
#X msg 244 82 stop;
#X obj 280 177 + 200;
#X obj 293 254 list prepend set;
#X obj 293 276 list trim;
#X obj 293 298 outlet;
#X connect 0 0 2 0;
#X connect 0 1 2 1;
#X connect 1 0 0 0;
#X connect 2 0 4 0;
#X connect 2 0 13 0;
#X connect 3 0 10 0;
#X connect 5 0 6 0;
#X connect 6 0 0 1;
#X connect 7 0 0 2;
#X connect 7 0 12 0;
#X connect 8 0 1 0;
#X connect 8 1 5 0;
#X connect 8 2 7 0;
#X connect 9 0 8 0;
#X connect 10 0 11 0;
#X connect 10 1 8 0;
#X connect 11 0 9 0;
#X connect 12 0 9 0;
#X connect 13 0 14 0;
#X connect 14 0 15 0;
#X restore 215 148 pd randomtest;
#X obj 215 201 ossia.remote note;
#X msg 243 176 42 115;
#X floatatom 275 61 5 0 0 0 - - -, f 5;
#X floatatom 275 91 5 0 0 0 - - -, f 5;
#X obj 318 91 ossia.remote decay;
#X obj 317 61 ossia.remote attack;
#X text 234 126 generate random melody;
#X connect 0 0 2 0;
#X connect 1 0 0 0;
#X connect 3 0 0 0;
#X connect 4 0 5 0;
#X connect 5 0 4 0;
#X connect 6 0 7 0;
#X connect 7 0 6 0;
#X connect 8 0 9 0;
#X connect 9 0 10 0;
#X connect 9 1 11 0;
#X connect 12 0 15 0;
#X connect 13 0 14 0;
#X connect 14 0 13 0;
#X connect 15 0 12 0;
