#N canvas 560 231 572 617 10;
#X obj 295 529 ossia.device Pd;
#X obj 31 278 osc~;
#X obj 31 410 *~;
#X obj 84 354 phasor~;
#X floatatom 102 212 5 0 0 0 - - -, f 5;
#X msg 245 494 dump;
#X obj 295 551 print;
#X obj 31 481 *~;
#X obj 83 378 *~;
#X obj 102 160 ossia.param modratio @default 4 @type float @desctiption
"Modulator frequency ratio";
#X text 196 266 convert dBFs to Pd's dB \, 100dB Pd = 0dBFS;
#X obj 152 287 dbtorms;
#X msg 152 309 \$1 10;
#X obj 152 331 line~;
#X obj 31 68 ossia.param note @type vec2f @desctiption "Midi note and
velocity";
#X obj 31 103 unpack 0 0;
#X obj 31 125 mtof;
#X floatatom 31 154 5 0 0 0 - - -, f 5;
#N canvas 677 324 980 664 envelope 0;
#X obj 106 0 inlet;
#X floatatom 146 90 5 0 0 0 - - -, f 5;
#X obj 146 109 / 127;
#X obj 146 131 t f f;
#X obj 146 183 * 100;
#X floatatom 146 205 5 0 0 0 - - -, f 5;
#X obj 146 161 sqrt;
#X obj 146 225 dbtorms;
#X obj 146 247 pack 0 100;
#X obj 146 319 line~;
#X obj 145 373 outlet~;
#X floatatom 219 184 5 0 0 0 - - -, f 5;
#X obj 106 62 moses 1;
#X obj 55 115 / 127;
#X obj 55 137 t f f;
#X obj 55 189 * 100;
#X floatatom 55 211 5 0 0 0 - - -, f 5;
#X obj 55 167 sqrt;
#X obj 55 231 dbtorms;
#X obj 55 253 pack 0 100;
#X floatatom 229 80 5 0 0 0 - - -, f 5;
#X floatatom 106 22 5 0 0 0 - - -, f 5;
#X obj 219 149 ossia.param attack @type float 0unit ms @desciption
"Attack time" @default 10;
#X obj 146 341 *~;
#X obj 229 46 ossia.param decay @type float 0unit ms @desciption "Decay
time" @default 500;
#X connect 0 0 21 0;
#X connect 1 0 2 0;
#X connect 2 0 3 0;
#X connect 3 0 6 0;
#X connect 4 0 5 0;
#X connect 5 0 7 0;
#X connect 6 0 4 0;
#X connect 7 0 8 0;
#X connect 8 0 9 0;
#X connect 9 0 23 0;
#X connect 9 0 23 1;
#X connect 11 0 8 1;
#X connect 12 0 13 0;
#X connect 12 1 1 0;
#X connect 13 0 14 0;
#X connect 14 0 17 0;
#X connect 15 0 16 0;
#X connect 16 0 18 0;
#X connect 17 0 15 0;
#X connect 18 0 19 0;
#X connect 19 0 9 0;
#X connect 20 0 19 1;
#X connect 21 0 12 0;
#X connect 22 0 11 0;
#X connect 23 0 10 0;
#X connect 24 0 20 0;
#X restore 98 442 pd envelope;
#X obj 32 539 dac~;
#X obj 28 11 tgl 15 0 empty empty empty 17 7 0 10 -262144 -1 -1 0 1
;
#X floatatom 152 245 5 0 0 0 - - -, f 5;
#X obj 152 211 ossia.param modgain @default 0 @type float @desctiption
"Modulator frequency gain" @unit dB;
#X obj 152 265 + 100;
#X obj 84 230 * 4;
#N canvas 0 106 450 300 randomtest 0;
#X obj 124 214 makenote 64 200;
#X obj 139 64 metro 500;
#X obj 139 86 t b b;
#X obj 127 116 random 50;
#X obj 177 140 random 80;
#X obj 177 162 + 47;
#X obj 151 255 pack 0 0;
#X obj 141 37 inlet;
#X obj 151 277 outlet;
#X connect 0 0 6 0;
#X connect 0 1 6 1;
#X connect 1 0 2 0;
#X connect 2 0 3 0;
#X connect 2 1 4 0;
#X connect 3 0 0 0;
#X connect 4 0 5 0;
#X connect 5 0 0 1;
#X connect 6 0 8 0;
#X connect 7 0 1 0;
#X restore 31 35 pd randomtest;
#X msg 295 495 expose oscquery;
#X obj 295 473 loadbang;
#X connect 0 0 6 0;
#X connect 1 0 2 0;
#X connect 2 0 7 0;
#X connect 3 0 8 0;
#X connect 4 0 24 1;
#X connect 5 0 0 0;
#X connect 7 0 19 0;
#X connect 7 0 19 1;
#X connect 8 0 2 1;
#X connect 9 0 4 0;
#X connect 11 0 12 0;
#X connect 12 0 13 0;
#X connect 13 0 8 1;
#X connect 14 0 15 0;
#X connect 15 0 16 0;
#X connect 15 1 18 0;
#X connect 16 0 17 0;
#X connect 17 0 1 0;
#X connect 17 0 24 0;
#X connect 18 0 7 1;
#X connect 20 0 25 0;
#X connect 21 0 23 0;
#X connect 22 0 21 0;
#X connect 23 0 11 0;
#X connect 24 0 3 0;
#X connect 25 0 14 0;
#X connect 26 0 0 0;
#X connect 27 0 26 0;
