#N canvas 46 155 533 681 10;
#X obj 26 372 osc~;
#X obj 26 504 *~;
#X obj 106 448 phasor~;
#X floatatom 124 306 5 0 0 0 - - -, f 5;
#X obj 393 620 print;
#X obj 26 551 *~;
#X obj 105 472 *~;
#X text 217 359 convert dBFs to Pd's dB \, 100dB Pd = 0dBFS;
#X obj 174 381 dbtorms;
#X msg 174 403 \$1 10;
#X obj 175 424 line~;
#X obj 26 219 mtof;
#X floatatom 26 248 5 0 0 0 - - -, f 5;
#N canvas 614 110 589 423 envelope 0;
#X obj 105 15 inlet;
#X floatatom 145 105 5 0 0 0 - - -, f 5;
#X obj 145 124 / 127;
#X obj 145 146 t f f;
#X obj 145 198 * 100;
#X floatatom 145 220 5 0 0 0 - - -, f 5;
#X obj 145 176 sqrt;
#X obj 145 240 dbtorms;
#X obj 145 262 pack 0 100;
#X obj 145 334 line~;
#X obj 144 388 outlet~;
#X floatatom 218 199 5 0 0 0 - - -, f 5;
#X obj 105 77 moses 1;
#X obj 54 130 / 127;
#X obj 54 152 t f f;
#X obj 54 204 * 100;
#X floatatom 54 226 5 0 0 0 - - -, f 5;
#X obj 54 182 sqrt;
#X obj 54 246 dbtorms;
#X obj 54 268 pack 0 100;
#X floatatom 228 95 5 0 0 0 - - -, f 5;
#X floatatom 105 37 5 0 0 0 - - -, f 5;
#X obj 145 356 *~;
#X obj 228 53 ossia.param decay @type float @unit ms @description "Decay
time" @tags envelope @default 500, f 51;
#X obj 218 164 ossia.param attack @type int @unit ms @description "Attack
time" @tags envelope @default 10, f 51;
#X connect 0 0 21 0;
#X connect 1 0 2 0;
#X connect 2 0 3 0;
#X connect 3 0 6 0;
#X connect 4 0 5 0;
#X connect 5 0 7 0;
#X connect 6 0 4 0;
#X connect 7 0 8 0;
#X connect 8 0 9 0;
#X connect 9 0 22 0;
#X connect 9 0 22 1;
#X connect 11 0 8 1;
#X connect 12 0 13 0;
#X connect 12 1 1 0;
#X connect 13 0 14 0;
#X connect 14 0 17 0;
#X connect 15 0 16 0;
#X connect 16 0 18 0;
#X connect 17 0 15 0;
#X connect 18 0 19 0;
#X connect 19 0 9 0;
#X connect 20 0 19 1;
#X connect 21 0 12 0;
#X connect 22 0 10 0;
#X connect 23 0 20 0;
#X connect 24 0 11 0;
#X restore 96 511 pd envelope;
#X obj 26 608 dac~;
#X floatatom 174 339 5 0 0 0 - - -, f 5;
#X obj 174 359 + 100;
#X obj 106 324 * 4;
#N canvas 0 132 450 300 randomtest 0;
#X obj 126 214 makenote 64 200;
#X obj 126 116 random 50;
#X obj 153 255 pack 0 0;
#X obj 241 24 inlet;
#X obj 153 277 outlet;
#X obj 177 140 random 40;
#X obj 177 162 + 87;
#X obj 262 136 random 500;
#X obj 139 86 t b b b;
#X obj 280 199 del;
#X obj 241 46 sel 0 1;
#X msg 244 82 stop;
#X obj 280 177 + 200;
#X connect 0 0 2 0;
#X connect 0 1 2 1;
#X connect 1 0 0 0;
#X connect 2 0 4 0;
#X connect 3 0 10 0;
#X connect 5 0 6 0;
#X connect 6 0 0 1;
#X connect 7 0 0 2;
#X connect 7 0 12 0;
#X connect 8 0 1 0;
#X connect 8 1 5 0;
#X connect 8 2 7 0;
#X connect 9 0 8 0;
#X connect 10 0 11 0;
#X connect 10 1 8 0;
#X connect 11 0 9 0;
#X connect 12 0 9 0;
#X restore 25 79 pd randomtest;
#X obj 393 550 loadbang;
#X text 214 23 A simple synth to demonstrate communiation between Ossia
device and client., f 42;
#X floatatom 141 197 5 0 0 0 - - -, f 5;
#X obj 145 576 loadbang;
#X msg 145 598 \; pd dsp 1;
#X obj 26 157 t a a;
#X msg 96 184 \$2;
#X obj 26 185 stripnote;
#X obj 125 221 ossia.param modratio @default 4 @type float @description
"Modulator frequency ratio";
#X obj 25 102 ossia.param note @type vec2f @description "Midi note
and velocity", f 25;
#X msg 393 572 expose oscquery;
#X obj 26 578 *~ 0.2;
#X obj 393 598 ossia.device Pd;
#X msg 317 572 namespace;
#X floatatom 174 266 5 0 0 0 - - -, f 5;
#X text 212 95 You can use - the patch "client-example.pd" \, - the
"client-example.html" web application - or the QML application "client-example.qml"
to control this device., f 47;
#X obj 174 288 ossia.param modgain @default -20 @type float @description
"Modulator frequency gain" @unit dB @range -100 6 @bounding_mode CLIP
, f 44;
#X text 180 512 <- open this for more parameters;
#X obj 25 14 ossia.param play @description "Turn on/off random note
generation" @type bool, f 25;
#X connect 0 0 1 0;
#X connect 1 0 5 0;
#X connect 2 0 6 0;
#X connect 3 0 17 1;
#X connect 5 0 30 0;
#X connect 6 0 1 1;
#X connect 8 0 9 0;
#X connect 9 0 10 0;
#X connect 10 0 6 1;
#X connect 11 0 12 0;
#X connect 12 0 0 0;
#X connect 12 0 17 0;
#X connect 13 0 5 1;
#X connect 15 0 16 0;
#X connect 16 0 8 0;
#X connect 17 0 2 0;
#X connect 18 0 28 0;
#X connect 19 0 29 0;
#X connect 21 0 27 0;
#X connect 22 0 23 0;
#X connect 24 0 26 0;
#X connect 24 1 25 0;
#X connect 25 0 13 0;
#X connect 26 0 11 0;
#X connect 27 0 3 0;
#X connect 28 0 24 0;
#X connect 29 0 31 0;
#X connect 30 0 14 0;
#X connect 30 0 14 1;
#X connect 31 0 4 0;
#X connect 32 0 31 0;
#X connect 33 0 35 0;
#X connect 35 0 15 0;
#X connect 37 0 18 0;
