#N canvas 1 33 1918 1027 10;
#X obj 300 479 ossia.device Pd;
#X obj 15 356 osc~;
#X obj 31 488 *~;
#X obj 95 432 phasor~;
#X floatatom 113 290 5 0 0 0 - - -, f 5;
#X msg 250 444 dump;
#X obj 300 501 print;
#X obj 30 558 *~;
#X obj 94 456 *~;
#X text 207 304 convert dBFs to Pd's dB \, 100dB Pd = 0dBFS;
#X obj 163 365 dbtorms;
#X msg 163 387 \$1 10;
#X obj 163 409 line~;
#X obj 15 203 mtof;
#X floatatom 15 232 5 0 0 0 - - -, f 5;
#N canvas 961 50 958 534 envelope 0;
#X obj 106 0 inlet;
#X floatatom 146 90 5 0 0 0 - - -, f 5;
#X obj 146 109 / 127;
#X obj 146 131 t f f;
#X obj 146 183 * 100;
#X floatatom 146 205 5 0 0 0 - - -, f 5;
#X obj 146 161 sqrt;
#X obj 146 225 dbtorms;
#X obj 146 247 pack 0 100;
#X obj 146 319 line~;
#X obj 145 373 outlet~;
#X floatatom 219 184 5 0 0 0 - - -, f 5;
#X obj 106 62 moses 1;
#X obj 55 115 / 127;
#X obj 55 137 t f f;
#X obj 55 189 * 100;
#X floatatom 55 211 5 0 0 0 - - -, f 5;
#X obj 55 167 sqrt;
#X obj 55 231 dbtorms;
#X obj 55 253 pack 0 100;
#X floatatom 229 80 5 0 0 0 - - -, f 5;
#X floatatom 106 22 5 0 0 0 - - -, f 5;
#X obj 146 341 *~;
#X obj 229 38 ossia.param decay @type float @unit ms @description "Decay
time" @tags envelope @default 500, f 78;
#X obj 219 149 ossia.param attack @type int @unit ms @description "Attack
time" @tags envelope @default 10, f 76;
#X connect 0 0 21 0;
#X connect 1 0 2 0;
#X connect 2 0 3 0;
#X connect 3 0 6 0;
#X connect 4 0 5 0;
#X connect 5 0 7 0;
#X connect 6 0 4 0;
#X connect 7 0 8 0;
#X connect 8 0 9 0;
#X connect 9 0 22 0;
#X connect 9 0 22 1;
#X connect 11 0 8 1;
#X connect 12 0 13 0;
#X connect 12 1 1 0;
#X connect 13 0 14 0;
#X connect 14 0 17 0;
#X connect 15 0 16 0;
#X connect 16 0 18 0;
#X connect 17 0 15 0;
#X connect 18 0 19 0;
#X connect 19 0 9 0;
#X connect 20 0 19 1;
#X connect 21 0 12 0;
#X connect 22 0 10 0;
#X connect 23 0 20 0;
#X connect 24 0 11 0;
#X restore 85 520 pd envelope;
#X obj 16 835 dac~;
#X obj 15 53 tgl 15 0 empty empty empty 17 7 0 10 -262144 -1 -1 1 1
;
#X floatatom 163 323 5 0 0 0 - - -, f 5;
#X obj 163 343 + 100;
#X obj 95 308 * 4;
#N canvas 0 132 450 300 randomtest 0;
#X obj 126 214 makenote 64 200;
#X obj 126 116 random 50;
#X obj 153 255 pack 0 0;
#X obj 241 24 inlet;
#X obj 153 277 outlet;
#X obj 177 140 random 40;
#X obj 177 162 + 87;
#X obj 262 136 random 500;
#X obj 139 86 t b b b;
#X obj 280 199 del;
#X obj 241 46 sel 0 1;
#X msg 244 82 stop;
#X obj 280 177 + 200;
#X connect 0 0 2 0;
#X connect 0 1 2 1;
#X connect 1 0 0 0;
#X connect 2 0 4 0;
#X connect 3 0 10 0;
#X connect 5 0 6 0;
#X connect 6 0 0 1;
#X connect 7 0 0 2;
#X connect 7 0 12 0;
#X connect 8 0 1 0;
#X connect 8 1 5 0;
#X connect 8 2 7 0;
#X connect 9 0 8 0;
#X connect 10 0 11 0;
#X connect 10 1 8 0;
#X connect 11 0 9 0;
#X connect 12 0 9 0;
#X restore 15 73 pd randomtest;
#X obj 300 423 loadbang;
#X text 108 551 A simple synth to demonstrate communiation between
Ossia device and client.;
#X text 108 581 You can use the patch "client-example.pd" or the QML
application "client-example.qml" to control this device.;
#X floatatom 129 214 5 0 0 0 - - -, f 5;
#X obj 446 368 loadbang;
#X msg 446 390 \; pd dsp 1;
#X obj 15 141 t a a;
#X msg 85 168 \$2;
#X obj 15 169 stripnote;
#X obj 113 238 ossia.param modratio @default 4 @type float @description
"Modulator frequency ratio";
#X obj 163 274 ossia.param modgain @default 0 @type float @description
"Modulator frequency gain" @unit dB;
#X obj 15 106 ossia.param note @type vec2f @description "Midi note
and velocity";
#X msg 300 445 expose oscquery;
#N canvas 961 50 478 1027 sub 0;
#X obj 145 144 ossia.model tata;
#X obj 157 318 phasor~;
#X obj 157 372 outlet~;
#X obj 173 232 ossia.param freq @type float @default 100;
#X obj 158 346 *~ 0.2;
#X connect 1 0 4 0;
#X connect 3 0 1 0;
#X connect 4 0 2 0;
#X restore 443 497 pd sub;
#N canvas 1441 33 478 1027 sub 1;
#X obj 145 144 ossia.model tata;
#X obj 157 318 phasor~;
#X obj 157 372 outlet~;
#X obj 99 173 ossia.param freq @type float @default 100;
#X obj 158 346 *~ 0.2;
#X obj 101 259 +;
#X obj 175 263 random 100;
#X obj 280 243 loadbang;
#X obj 389 225 bng 15 250 50 0 empty empty empty 17 7 0 10 -262144
-1 -1;
#X obj 238 307 metro 500;
#X obj 243 209 ossia.param rythm @type float @default 400;
#X connect 1 0 4 0;
#X connect 3 0 5 1;
#X connect 4 0 2 0;
#X connect 5 0 1 0;
#X connect 6 0 5 0;
#X connect 7 0 9 0;
#X connect 8 0 9 0;
#X connect 9 0 6 0;
#X connect 10 0 9 1;
#X restore 48 416 pd sub;
#X obj 15 758 lop~ 500;
#X obj 60 714 ossia.param lopass @default 400 @type float @description
"Low pass filter" @min 50 @max 7000;
#X obj 15 693 *~ 0.8;
#X obj 16 797 hip~ 500;
#X obj 73 758 ossia.param hipass @default 400 @type float @description
High pass filter" @min 50 @max 7000;
#X obj 15 16 ossia.param play @type bool @description "Auto-play" @default
false;
#X obj 740 638 peak;
#X obj 16 634 *~;
#X obj 47 519 +~;
#X obj 53 626 ossia.param volume @default 0 @type float @description
"Volume" @min 0 @max 0.2;
#X obj 51 667 / 3;
#X connect 0 0 6 0;
#X connect 1 0 2 0;
#X connect 1 0 44 0;
#X connect 2 0 7 0;
#X connect 2 0 45 0;
#X connect 3 0 8 0;
#X connect 4 0 20 1;
#X connect 5 0 0 0;
#X connect 7 0 44 1;
#X connect 8 0 2 1;
#X connect 10 0 11 0;
#X connect 11 0 12 0;
#X connect 12 0 8 1;
#X connect 13 0 14 0;
#X connect 14 0 1 0;
#X connect 14 0 20 0;
#X connect 15 0 7 1;
#X connect 17 0 21 0;
#X connect 18 0 19 0;
#X connect 19 0 10 0;
#X connect 20 0 3 0;
#X connect 21 0 33 0;
#X connect 22 0 34 0;
#X connect 25 0 31 0;
#X connect 26 0 27 0;
#X connect 28 0 30 0;
#X connect 28 1 29 0;
#X connect 29 0 15 0;
#X connect 30 0 13 0;
#X connect 31 0 4 0;
#X connect 32 0 18 0;
#X connect 33 0 28 0;
#X connect 34 0 0 0;
#X connect 36 0 45 1;
#X connect 37 0 40 0;
#X connect 38 0 37 1;
#X connect 39 0 37 0;
#X connect 40 0 16 0;
#X connect 40 0 16 1;
#X connect 41 0 40 1;
#X connect 42 0 17 0;
#X connect 44 0 39 0;
#X connect 45 0 7 1;
#X connect 46 0 47 0;
#X connect 47 0 39 1;
