#N canvas 1071 701 469 300 10;
#X obj 150 218 ossia.device model_view_example;
#N canvas 23 251 450 300 model 1;
#X obj 154 148 ossia.param foo;
#X floatatom 154 127 5 0 0 0 - - -, f 5;
#N canvas 18 629 450 300 sub 1;
#X obj 154 64 ossia.param foo;
#X floatatom 154 46 5 0 0 0 - - -, f 5;
#X obj 159 208 ossia.model my_submodel;
#X floatatom 154 134 5 0 0 0 - - -, f 5;
#X obj 154 154 ossia.param bar;
#X floatatom 154 86 5 0 0 0 - - -, f 5;
#X floatatom 154 176 5 0 0 0 - - -, f 5;
#X connect 0 0 5 0;
#X connect 1 0 0 0;
#X connect 3 0 4 0;
#X connect 4 0 6 0;
#X restore 172 54 pd sub;
#X floatatom 154 170 5 0 0 0 - - -, f 5;
#X obj 159 208 ossia.model my_model.1;
#X connect 0 0 3 0;
#X connect 1 0 0 0;
#X restore 125 34 pd model;
#N canvas 964 240 450 300 view 1;
#X floatatom 108 150 5 0 0 0 - - -, f 5;
#N canvas 982 624 450 300 sub 1;
#X floatatom 108 66 5 0 0 0 - - -, f 5;
#X floatatom 108 86 5 0 0 0 - - -, f 5;
#X obj 159 208 ossia.view my_submodel;
#X obj 154 64 ossia.remote foo;
#X obj 154 84 ossia.remote bar;
#X connect 0 0 3 0;
#X connect 1 0 4 0;
#X connect 3 0 0 0;
#X connect 4 0 1 0;
#X restore 172 54 pd sub;
#X obj 154 148 ossia.remote foo;
#X obj 144 225 ossia.view my_model.1;
#X msg 144 200 bind my_model.2;
#X msg 134 180 bind my_model.1;
#X connect 0 0 2 0;
#X connect 2 0 0 0;
#X connect 4 0 3 0;
#X connect 5 0 3 0;
#X restore 126 110 pd view;
#X msg 150 196 dump;
#X obj 150 240 print;
#N canvas 474 245 450 300 model2 1;
#X obj 154 148 ossia.param foo;
#X floatatom 154 127 5 0 0 0 - - -, f 5;
#N canvas 485 630 450 300 sub 1;
#X obj 154 64 ossia.param foo;
#X floatatom 154 46 5 0 0 0 - - -, f 5;
#X obj 159 208 ossia.model my_submodel;
#X floatatom 154 134 5 0 0 0 - - -, f 5;
#X obj 154 154 ossia.param bar;
#X floatatom 154 86 5 0 0 0 - - -, f 5;
#X floatatom 154 176 5 0 0 0 - - -, f 5;
#X connect 0 0 5 0;
#X connect 1 0 0 0;
#X connect 3 0 4 0;
#X connect 4 0 6 0;
#X restore 172 54 pd sub;
#X floatatom 154 170 5 0 0 0 - - -, f 5;
#X obj 159 208 ossia.model my_model.2;
#X connect 0 0 3 0;
#X connect 1 0 0 0;
#X restore 125 54 pd model2;
#X text 56 157 how to build a view for models and bind it;
#X connect 0 0 4 0;
#X connect 3 0 0 0;
