#N canvas 40 289 1874 300 10;
#X obj 77 236 ossia.model \$1;
#X obj 70 52 ossia.param param1;
#X floatatom 30 52 5 0 0 0 - - -, f 5;
#X floatatom 30 72 5 0 0 0 - - -, f 5;
#X obj 70 72 ossia.param param2;
#X floatatom 30 32 5 0 0 0 - - -, f 5;
#X obj 70 32 ossia.param param0;
#X floatatom 30 112 5 0 0 0 - - -, f 5;
#X floatatom 30 132 5 0 0 0 - - -, f 5;
#X floatatom 30 92 5 0 0 0 - - -, f 5;
#X floatatom 30 172 5 0 0 0 - - -, f 5;
#X floatatom 30 192 5 0 0 0 - - -, f 5;
#X floatatom 30 152 5 0 0 0 - - -, f 5;
#X obj 70 92 ossia.param param3;
#X obj 70 112 ossia.param param4;
#X obj 70 132 ossia.param param5;
#X obj 70 152 ossia.param param6;
#X obj 70 172 ossia.param param7;
#X obj 70 192 ossia.param param8;
#X floatatom 30 212 5 0 0 0 - - -, f 5;
#X obj 70 212 ossia.param param9;
#X floatatom 210 52 5 0 0 0 - - -, f 5;
#X floatatom 210 72 5 0 0 0 - - -, f 5;
#X floatatom 210 32 5 0 0 0 - - -, f 5;
#X floatatom 210 112 5 0 0 0 - - -, f 5;
#X floatatom 210 132 5 0 0 0 - - -, f 5;
#X floatatom 210 92 5 0 0 0 - - -, f 5;
#X floatatom 210 172 5 0 0 0 - - -, f 5;
#X floatatom 210 192 5 0 0 0 - - -, f 5;
#X floatatom 210 152 5 0 0 0 - - -, f 5;
#X floatatom 210 212 5 0 0 0 - - -, f 5;
#X obj 250 32 ossia.param param10;
#X obj 250 52 ossia.param param11;
#X obj 250 72 ossia.param param12;
#X obj 250 92 ossia.param param13;
#X obj 250 112 ossia.param param14;
#X obj 250 132 ossia.param param15;
#X obj 250 152 ossia.param param16;
#X obj 250 172 ossia.param param17;
#X obj 250 192 ossia.param param18;
#X obj 250 212 ossia.param param19;
#X floatatom 396 53 5 0 0 0 - - -, f 5;
#X floatatom 396 73 5 0 0 0 - - -, f 5;
#X floatatom 396 33 5 0 0 0 - - -, f 5;
#X floatatom 396 113 5 0 0 0 - - -, f 5;
#X floatatom 396 133 5 0 0 0 - - -, f 5;
#X floatatom 396 93 5 0 0 0 - - -, f 5;
#X floatatom 396 173 5 0 0 0 - - -, f 5;
#X floatatom 396 193 5 0 0 0 - - -, f 5;
#X floatatom 396 153 5 0 0 0 - - -, f 5;
#X floatatom 396 213 5 0 0 0 - - -, f 5;
#X floatatom 576 53 5 0 0 0 - - -, f 5;
#X floatatom 576 73 5 0 0 0 - - -, f 5;
#X floatatom 576 33 5 0 0 0 - - -, f 5;
#X floatatom 576 113 5 0 0 0 - - -, f 5;
#X floatatom 576 133 5 0 0 0 - - -, f 5;
#X floatatom 576 93 5 0 0 0 - - -, f 5;
#X floatatom 576 173 5 0 0 0 - - -, f 5;
#X floatatom 576 193 5 0 0 0 - - -, f 5;
#X floatatom 576 153 5 0 0 0 - - -, f 5;
#X floatatom 576 213 5 0 0 0 - - -, f 5;
#X floatatom 756 53 5 0 0 0 - - -, f 5;
#X floatatom 756 73 5 0 0 0 - - -, f 5;
#X floatatom 756 33 5 0 0 0 - - -, f 5;
#X floatatom 756 113 5 0 0 0 - - -, f 5;
#X floatatom 756 133 5 0 0 0 - - -, f 5;
#X floatatom 756 93 5 0 0 0 - - -, f 5;
#X floatatom 756 173 5 0 0 0 - - -, f 5;
#X floatatom 756 193 5 0 0 0 - - -, f 5;
#X floatatom 756 153 5 0 0 0 - - -, f 5;
#X floatatom 756 213 5 0 0 0 - - -, f 5;
#X floatatom 936 53 5 0 0 0 - - -, f 5;
#X floatatom 936 73 5 0 0 0 - - -, f 5;
#X floatatom 936 33 5 0 0 0 - - -, f 5;
#X floatatom 936 113 5 0 0 0 - - -, f 5;
#X floatatom 936 133 5 0 0 0 - - -, f 5;
#X floatatom 936 93 5 0 0 0 - - -, f 5;
#X floatatom 936 173 5 0 0 0 - - -, f 5;
#X floatatom 936 193 5 0 0 0 - - -, f 5;
#X floatatom 936 153 5 0 0 0 - - -, f 5;
#X floatatom 936 213 5 0 0 0 - - -, f 5;
#X floatatom 1116 53 5 0 0 0 - - -, f 5;
#X floatatom 1116 73 5 0 0 0 - - -, f 5;
#X floatatom 1116 33 5 0 0 0 - - -, f 5;
#X floatatom 1116 113 5 0 0 0 - - -, f 5;
#X floatatom 1116 133 5 0 0 0 - - -, f 5;
#X floatatom 1116 93 5 0 0 0 - - -, f 5;
#X floatatom 1116 173 5 0 0 0 - - -, f 5;
#X floatatom 1116 193 5 0 0 0 - - -, f 5;
#X floatatom 1116 153 5 0 0 0 - - -, f 5;
#X floatatom 1116 213 5 0 0 0 - - -, f 5;
#X floatatom 1296 53 5 0 0 0 - - -, f 5;
#X floatatom 1296 73 5 0 0 0 - - -, f 5;
#X floatatom 1296 33 5 0 0 0 - - -, f 5;
#X floatatom 1296 113 5 0 0 0 - - -, f 5;
#X floatatom 1296 133 5 0 0 0 - - -, f 5;
#X floatatom 1296 93 5 0 0 0 - - -, f 5;
#X floatatom 1296 173 5 0 0 0 - - -, f 5;
#X floatatom 1296 193 5 0 0 0 - - -, f 5;
#X floatatom 1296 153 5 0 0 0 - - -, f 5;
#X floatatom 1296 213 5 0 0 0 - - -, f 5;
#X floatatom 1476 53 5 0 0 0 - - -, f 5;
#X floatatom 1476 73 5 0 0 0 - - -, f 5;
#X floatatom 1476 33 5 0 0 0 - - -, f 5;
#X floatatom 1476 113 5 0 0 0 - - -, f 5;
#X floatatom 1476 133 5 0 0 0 - - -, f 5;
#X floatatom 1476 93 5 0 0 0 - - -, f 5;
#X floatatom 1476 173 5 0 0 0 - - -, f 5;
#X floatatom 1476 193 5 0 0 0 - - -, f 5;
#X floatatom 1476 153 5 0 0 0 - - -, f 5;
#X floatatom 1476 213 5 0 0 0 - - -, f 5;
#X floatatom 1656 53 5 0 0 0 - - -, f 5;
#X floatatom 1656 73 5 0 0 0 - - -, f 5;
#X floatatom 1656 33 5 0 0 0 - - -, f 5;
#X floatatom 1656 113 5 0 0 0 - - -, f 5;
#X floatatom 1656 133 5 0 0 0 - - -, f 5;
#X floatatom 1656 93 5 0 0 0 - - -, f 5;
#X floatatom 1656 173 5 0 0 0 - - -, f 5;
#X floatatom 1656 193 5 0 0 0 - - -, f 5;
#X floatatom 1656 153 5 0 0 0 - - -, f 5;
#X floatatom 1656 213 5 0 0 0 - - -, f 5;
#X obj 436 33 ossia.param param20;
#X obj 436 53 ossia.param param21;
#X obj 436 73 ossia.param param22;
#X obj 436 93 ossia.param param23;
#X obj 436 113 ossia.param param24;
#X obj 436 133 ossia.param param25;
#X obj 436 153 ossia.param param26;
#X obj 436 173 ossia.param param27;
#X obj 436 193 ossia.param param28;
#X obj 436 213 ossia.param param29;
#X obj 617 33 ossia.param param30;
#X obj 616 53 ossia.param param31;
#X obj 616 73 ossia.param param32;
#X obj 616 93 ossia.param param33;
#X obj 616 113 ossia.param param34;
#X obj 616 133 ossia.param param35;
#X obj 616 154 ossia.param param36;
#X obj 616 174 ossia.param param37;
#X obj 616 193 ossia.param param38;
#X obj 616 213 ossia.param param39;
#X obj 797 33 ossia.param param40;
#X obj 796 54 ossia.param param41;
#X obj 796 73 ossia.param param42;
#X obj 796 93 ossia.param param43;
#X obj 796 113 ossia.param param44;
#X obj 796 133 ossia.param param45;
#X obj 796 153 ossia.param param46;
#X obj 796 173 ossia.param param47;
#X obj 796 193 ossia.param param48;
#X obj 796 213 ossia.param param49;
#X obj 976 33 ossia.param param50;
#X obj 976 53 ossia.param param51;
#X obj 976 73 ossia.param param52;
#X obj 976 93 ossia.param param53;
#X obj 976 113 ossia.param param54;
#X obj 976 133 ossia.param param55;
#X obj 976 153 ossia.param param56;
#X obj 976 173 ossia.param param57;
#X obj 976 193 ossia.param param58;
#X obj 976 213 ossia.param param59;
#X obj 1156 33 ossia.param param60;
#X obj 1156 53 ossia.param param61;
#X obj 1156 73 ossia.param param62;
#X obj 1156 93 ossia.param param63;
#X obj 1156 113 ossia.param param64;
#X obj 1156 133 ossia.param param65;
#X obj 1156 153 ossia.param param66;
#X obj 1156 173 ossia.param param67;
#X obj 1156 193 ossia.param param68;
#X obj 1156 213 ossia.param param69;
#X obj 1336 33 ossia.param param70;
#X obj 1336 54 ossia.param param71;
#X obj 1336 73 ossia.param param7@;
#X obj 1336 93 ossia.param param73;
#X obj 1336 113 ossia.param param74;
#X obj 1336 133 ossia.param param75;
#X obj 1336 153 ossia.param param76;
#X obj 1336 173 ossia.param param77;
#X obj 1336 193 ossia.param param78;
#X obj 1336 213 ossia.param param79;
#X obj 1516 33 ossia.param param80;
#X obj 1516 53 ossia.param param81;
#X obj 1516 73 ossia.param param82;
#X obj 1516 93 ossia.param param83;
#X obj 1516 113 ossia.param param84;
#X obj 1516 133 ossia.param param85;
#X obj 1516 153 ossia.param param86;
#X obj 1516 173 ossia.param param87;
#X obj 1516 193 ossia.param param88;
#X obj 1516 213 ossia.param param89;
#X obj 1696 33 ossia.param param90;
#X obj 1696 53 ossia.param param91;
#X obj 1696 73 ossia.param param92;
#X obj 1696 93 ossia.param param93;
#X obj 1696 113 ossia.param param94;
#X obj 1696 133 ossia.param param95;
#X obj 1696 153 ossia.param param96;
#X obj 1696 173 ossia.param param97;
#X obj 1696 193 ossia.param param98;
#X obj 1696 213 ossia.param param99;
#X connect 1 0 2 0;
#X connect 2 0 1 0;
#X connect 3 0 4 0;
#X connect 4 0 3 0;
#X connect 5 0 6 0;
#X connect 6 0 5 0;
#X connect 7 0 14 0;
#X connect 8 0 15 0;
#X connect 9 0 13 0;
#X connect 10 0 17 0;
#X connect 11 0 18 0;
#X connect 12 0 16 0;
#X connect 13 0 9 0;
#X connect 14 0 7 0;
#X connect 15 0 8 0;
#X connect 16 0 12 0;
#X connect 17 0 10 0;
#X connect 18 0 11 0;
#X connect 19 0 20 0;
#X connect 20 0 19 0;
#X connect 21 0 32 0;
#X connect 22 0 33 0;
#X connect 23 0 31 0;
#X connect 24 0 35 0;
#X connect 25 0 36 0;
#X connect 26 0 34 0;
#X connect 27 0 38 0;
#X connect 28 0 39 0;
#X connect 29 0 37 0;
#X connect 30 0 40 0;
#X connect 31 0 23 0;
#X connect 32 0 21 0;
#X connect 33 0 22 0;
#X connect 34 0 26 0;
#X connect 35 0 24 0;
#X connect 36 0 25 0;
#X connect 37 0 29 0;
#X connect 38 0 27 0;
#X connect 39 0 28 0;
#X connect 40 0 30 0;
#X connect 41 0 122 0;
#X connect 42 0 123 0;
#X connect 43 0 121 0;
#X connect 44 0 125 0;
#X connect 45 0 126 0;
#X connect 46 0 124 0;
#X connect 47 0 128 0;
#X connect 48 0 129 0;
#X connect 49 0 127 0;
#X connect 50 0 130 0;
#X connect 51 0 132 0;
#X connect 52 0 133 0;
#X connect 53 0 131 0;
#X connect 54 0 135 0;
#X connect 55 0 136 0;
#X connect 56 0 134 0;
#X connect 57 0 138 0;
#X connect 58 0 139 0;
#X connect 59 0 137 0;
#X connect 60 0 140 0;
#X connect 61 0 142 0;
#X connect 62 0 143 0;
#X connect 63 0 141 0;
#X connect 64 0 145 0;
#X connect 65 0 146 0;
#X connect 66 0 144 0;
#X connect 67 0 148 0;
#X connect 68 0 149 0;
#X connect 69 0 147 0;
#X connect 70 0 150 0;
#X connect 71 0 152 0;
#X connect 72 0 153 0;
#X connect 73 0 151 0;
#X connect 74 0 155 0;
#X connect 75 0 156 0;
#X connect 76 0 154 0;
#X connect 77 0 158 0;
#X connect 78 0 159 0;
#X connect 79 0 157 0;
#X connect 80 0 160 0;
#X connect 81 0 162 0;
#X connect 82 0 163 0;
#X connect 83 0 161 0;
#X connect 84 0 165 0;
#X connect 85 0 166 0;
#X connect 86 0 164 0;
#X connect 87 0 168 0;
#X connect 88 0 169 0;
#X connect 89 0 167 0;
#X connect 90 0 170 0;
#X connect 91 0 172 0;
#X connect 92 0 173 0;
#X connect 93 0 171 0;
#X connect 94 0 175 0;
#X connect 95 0 176 0;
#X connect 96 0 174 0;
#X connect 97 0 178 0;
#X connect 98 0 179 0;
#X connect 99 0 177 0;
#X connect 100 0 180 0;
#X connect 101 0 182 0;
#X connect 102 0 183 0;
#X connect 103 0 181 0;
#X connect 104 0 185 0;
#X connect 105 0 186 0;
#X connect 106 0 184 0;
#X connect 107 0 188 0;
#X connect 108 0 189 0;
#X connect 109 0 187 0;
#X connect 110 0 190 0;
#X connect 111 0 192 0;
#X connect 112 0 193 0;
#X connect 113 0 191 0;
#X connect 114 0 195 0;
#X connect 115 0 196 0;
#X connect 116 0 194 0;
#X connect 117 0 198 0;
#X connect 118 0 199 0;
#X connect 119 0 197 0;
#X connect 120 0 200 0;
#X connect 121 0 43 0;
#X connect 122 0 41 0;
#X connect 123 0 42 0;
#X connect 124 0 46 0;
#X connect 125 0 44 0;
#X connect 126 0 45 0;
#X connect 127 0 49 0;
#X connect 128 0 47 0;
#X connect 129 0 48 0;
#X connect 130 0 50 0;
#X connect 131 0 53 0;
#X connect 132 0 51 0;
#X connect 133 0 52 0;
#X connect 134 0 56 0;
#X connect 135 0 54 0;
#X connect 136 0 55 0;
#X connect 137 0 59 0;
#X connect 138 0 57 0;
#X connect 139 0 58 0;
#X connect 140 0 60 0;
#X connect 141 0 63 0;
#X connect 142 0 61 0;
#X connect 143 0 62 0;
#X connect 144 0 66 0;
#X connect 145 0 64 0;
#X connect 146 0 65 0;
#X connect 147 0 69 0;
#X connect 148 0 67 0;
#X connect 149 0 68 0;
#X connect 150 0 70 0;
#X connect 151 0 73 0;
#X connect 152 0 71 0;
#X connect 153 0 72 0;
#X connect 154 0 76 0;
#X connect 155 0 74 0;
#X connect 156 0 75 0;
#X connect 157 0 79 0;
#X connect 158 0 77 0;
#X connect 159 0 78 0;
#X connect 160 0 80 0;
#X connect 161 0 83 0;
#X connect 162 0 81 0;
#X connect 163 0 82 0;
#X connect 164 0 86 0;
#X connect 165 0 84 0;
#X connect 166 0 85 0;
#X connect 167 0 89 0;
#X connect 168 0 87 0;
#X connect 169 0 88 0;
#X connect 170 0 90 0;
#X connect 171 0 93 0;
#X connect 172 0 91 0;
#X connect 173 0 92 0;
#X connect 174 0 96 0;
#X connect 175 0 94 0;
#X connect 176 0 95 0;
#X connect 177 0 99 0;
#X connect 178 0 97 0;
#X connect 179 0 98 0;
#X connect 180 0 100 0;
#X connect 181 0 103 0;
#X connect 182 0 101 0;
#X connect 183 0 102 0;
#X connect 184 0 106 0;
#X connect 185 0 104 0;
#X connect 186 0 105 0;
#X connect 187 0 109 0;
#X connect 188 0 107 0;
#X connect 189 0 108 0;
#X connect 190 0 110 0;
#X connect 191 0 113 0;
#X connect 192 0 111 0;
#X connect 193 0 112 0;
#X connect 194 0 116 0;
#X connect 195 0 114 0;
#X connect 196 0 115 0;
#X connect 197 0 119 0;
#X connect 198 0 117 0;
#X connect 199 0 118 0;
#X connect 200 0 120 0;
