#N canvas 654 179 943 587 10;
#X obj 123 201 ossia.param color.<1..16>;
#N canvas 0 151 816 354 set 0;
#X floatatom 161 105 5 0 0 0 - - -, f 5;
#X floatatom 201 105 5 0 0 0 - - -, f 5;
#X floatatom 241 105 5 0 0 0 - - -, f 5;
#X floatatom 281 105 5 0 0 0 - - -, f 5;
#X obj 281 133 t b f;
#X obj 241 133 t b f;
#X obj 201 133 t b f;
#X obj 161 185 outlet;
#X floatatom 326 106 5 0 0 0 - - -, f 5;
#X floatatom 366 106 5 0 0 0 - - -, f 5;
#X floatatom 406 106 5 0 0 0 - - -, f 5;
#X floatatom 446 106 5 0 0 0 - - -, f 5;
#X obj 446 134 t b f;
#X obj 406 134 t b f;
#X obj 366 134 t b f;
#X obj 161 163 pack 0 0 0 0 0 0 0 0, f 45;
#X obj 323 134 t b f;
#X connect 0 0 15 0;
#X connect 1 0 6 0;
#X connect 2 0 5 0;
#X connect 3 0 4 0;
#X connect 4 0 0 0;
#X connect 4 1 15 3;
#X connect 5 0 0 0;
#X connect 5 1 15 2;
#X connect 6 0 0 0;
#X connect 6 1 15 1;
#X connect 8 0 16 0;
#X connect 9 0 14 0;
#X connect 10 0 13 0;
#X connect 11 0 12 0;
#X connect 12 0 0 0;
#X connect 12 1 15 7;
#X connect 13 0 0 0;
#X connect 13 1 15 6;
#X connect 14 0 0 0;
#X connect 14 1 15 5;
#X connect 15 0 7 0;
#X connect 16 0 0 0;
#X connect 16 1 15 4;
#X coords 0 -1 1 1 397 31 1 100 100;
#X restore 380 94 pd set;
#X obj 330 404 ossia.remote color;
#X obj 379 192 list split 1;
#X obj 123 240 print;
#X obj 420 288 list store;
#X obj 378 228 t b a b, f 21;
#N canvas 0 22 450 300 counter 0;
#X obj 107 41 inlet;
#X obj 230 34 inlet;
#X floatatom 108 107 5 0 0 0 - - -, f 5;
#X msg 230 68 set \$1;
#X obj 138 163 + 1;
#X obj 108 135 t f f;
#X obj 108 207 outlet;
#X msg 208 135 set \$1;
#X connect 0 0 2 0;
#X connect 1 0 3 0;
#X connect 2 0 5 0;
#X connect 3 0 2 0;
#X connect 4 0 7 0;
#X connect 5 0 6 0;
#X connect 5 1 4 0;
#X connect 7 0 2 0;
#X restore 519 287 pd counter;
#X msg 475 346 bind color.\$1;
#X obj 380 148 t a b, f 20;
#X msg 542 194 1;
#X connect 0 0 4 0;
#X connect 0 1 4 0;
#X connect 1 0 9 0;
#X connect 3 0 6 0;
#X connect 3 1 5 1;
#X connect 5 0 3 0;
#X connect 6 0 5 0;
#X connect 6 1 2 0;
#X connect 6 2 7 0;
#X connect 7 0 8 0;
#X connect 8 0 2 0;
#X connect 9 0 3 0;
#X connect 9 1 10 0;
#X connect 10 0 7 1;
