#N canvas 742 306 450 300 10;
#X obj 59 157 print;
#X obj 59 129 ø;
#N canvas 1258 350 450 300 device 1;
#X obj 46 248 ø.device subDevice;
#X obj 251 74 ø.param foo;
#X msg 54 212 expose oscquery;
#X floatatom 250 44 5 0 0 0 - - -, f 5;
#X floatatom 251 96 5 0 0 0 - - -, f 5;
#X floatatom 356 42 5 0 0 0 - - -, f 5;
#X floatatom 359 94 5 0 0 0 - - -, f 5;
#X obj 359 72 ø.param bar;
#X msg 28 163 preset save one.json;
#X msg 38 182 preset save two.json;
#X msg 5 117 preset load one.json;
#X msg 15 138 preset load two.json;
#X symbolatom 33 17 10 0 0 0 - - -, f 10;
#X symbolatom 36 67 10 0 0 0 - - -, f 10;
#X obj 37 45 ø.param string @type string;
#N canvas 0 93 450 300 model 0;
#X obj 220 278 ø.model model;
#N canvas 531 230 450 300 submodel 0;
#X obj 163 75 ø.param foo;
#X floatatom 162 45 5 0 0 0 - - -, f 5;
#X floatatom 163 97 5 0 0 0 - - -, f 5;
#X floatatom 268 43 5 0 0 0 - - -, f 5;
#X floatatom 271 95 5 0 0 0 - - -, f 5;
#X obj 271 73 ø.param bar;
#X obj 137 188 ø.model submodel;
#X connect 0 0 2 0;
#X connect 1 0 0 0;
#X connect 3 0 5 0;
#X connect 5 0 4 0;
#X restore 29 272 pd submodel;
#X obj 163 75 ø.param foo;
#X floatatom 162 45 5 0 0 0 - - -, f 5;
#X floatatom 163 97 5 0 0 0 - - -, f 5;
#X floatatom 268 43 5 0 0 0 - - -, f 5;
#X floatatom 271 95 5 0 0 0 - - -, f 5;
#X obj 271 73 ø.param bar;
#X msg 234 140 preset save model1.json;
#X msg 244 163 preset save model2.json;
#X msg 254 190 preset load model1.json;
#X msg 264 213 preset load model2.json;
#X connect 2 0 4 0;
#X connect 3 0 2 0;
#X connect 5 0 7 0;
#X connect 7 0 6 0;
#X connect 8 0 0 0;
#X connect 9 0 0 0;
#X connect 10 0 0 0;
#X connect 11 0 0 0;
#X restore 249 194 pd model;
#X obj 46 270 print;
#X connect 0 0 16 0;
#X connect 1 0 4 0;
#X connect 2 0 0 0;
#X connect 3 0 1 0;
#X connect 5 0 7 0;
#X connect 7 0 6 0;
#X connect 8 0 0 0;
#X connect 9 0 0 0;
#X connect 10 0 0 0;
#X connect 11 0 0 0;
#X connect 12 0 14 0;
#X connect 14 0 13 0;
#X restore 170 236 pd device;
#N canvas 1253 733 450 300 client 1;
#X obj 51 242 ø.client;
#X obj 285 159 ø.remote foo;
#X floatatom 230 160 5 0 0 0 - - -, f 5;
#X obj 50 264 print client;
#X floatatom 235 229 5 0 0 0 - - -, f 5;
#X obj 290 228 ø.remote bar;
#X msg 68 107 update;
#X obj 300 27 ø.remote string;
#X symbolatom 209 24 10 0 0 0 - - -, f 10;
#X msg 28 64 preset save one.json;
#X msg 38 83 preset save two.json;
#X msg 5 18 preset load one.json;
#X msg 15 39 preset load two.json;
#N canvas 416 568 450 300 view 0;
#N canvas 531 230 450 300 submodel 0;
#X floatatom 162 45 5 0 0 0 - - -, f 5;
#X floatatom 163 97 5 0 0 0 - - -, f 5;
#X floatatom 268 43 5 0 0 0 - - -, f 5;
#X floatatom 271 95 5 0 0 0 - - -, f 5;
#X obj 137 188 ø.view submodel;
#X obj 163 75 ø.remote foo;
#X obj 271 73 ø.remote bar;
#X connect 0 0 5 0;
#X connect 2 0 6 0;
#X connect 5 0 1 0;
#X connect 6 0 3 0;
#X restore 29 272 pd submodel;
#X floatatom 162 45 5 0 0 0 - - -, f 5;
#X floatatom 163 97 5 0 0 0 - - -, f 5;
#X floatatom 268 43 5 0 0 0 - - -, f 5;
#X floatatom 271 95 5 0 0 0 - - -, f 5;
#X msg 234 140 preset save model1.json;
#X msg 244 163 preset save model2.json;
#X msg 254 190 preset load model1.json;
#X msg 264 213 preset load model2.json;
#X obj 220 278 ø.view model;
#X obj 163 75 ø.remote foo;
#X obj 271 73 ø.remote bar;
#X connect 1 0 10 0;
#X connect 3 0 11 0;
#X connect 5 0 9 0;
#X connect 6 0 9 0;
#X connect 7 0 9 0;
#X connect 8 0 9 0;
#X connect 10 0 2 0;
#X connect 11 0 4 0;
#X restore 259 93 pd view;
#X msg 100 212 find_devices;
#X msg 104 160 connect subDevice;
#X msg 289 200 dump;
#X obj 365 266 print;
#X floatatom 244 189 5 0 0 0 - - -, f 5;
#X msg 94 140 connect oscquery ws://antoine-Laptop.local:5678;
#X msg 116 181 disconnect;
#X msg 154 118 connect oscquery;
#X connect 0 0 3 0;
#X connect 1 0 2 0;
#X connect 2 0 1 0;
#X connect 4 0 5 0;
#X connect 5 0 4 0;
#X connect 5 2 17 0;
#X connect 6 0 0 0;
#X connect 7 0 8 0;
#X connect 8 0 7 0;
#X connect 9 0 0 0;
#X connect 10 0 0 0;
#X connect 11 0 0 0;
#X connect 12 0 0 0;
#X connect 14 0 0 0;
#X connect 15 0 0 0;
#X connect 16 0 5 0;
#X connect 18 0 5 0;
#X connect 19 0 0 0;
#X connect 20 0 0 0;
#X connect 21 0 0 0;
#X restore 282 235 pd client;
#X connect 1 0 0 0;
