#N canvas 874 23 469 442 10;
#X msg 13 330 draw line;
#X msg 13 363 draw fill;
#X floatatom 203 353 0 0 0 0 - - -;
#X floatatom 258 354 0 0 0 0 - - -;
#X text 195 331 width;
#X text 253 330 height;
#X obj 3 4 cnv 15 220 70 empty empty empty 20 12 0 14 -195568 -66577
0;
#N canvas 0 22 454 304 gemwin 0;
#X obj 132 205 gemwin;
#X obj 67 89 outlet;
#X obj 67 10 inlet;
#X obj 67 41 route create;
#X msg 67 70 set destroy;
#X msg 182 68 set create;
#X msg 279 112 destroy;
#N canvas 87 154 247 179 Gem.init 0;
#X obj 59 46 loadbang;
#X msg 118 81 reset;
#X obj 118 113 outlet;
#X obj 59 65 t b b;
#X connect 0 0 3 0;
#X connect 1 0 2 0;
#X connect 3 1 1 0;
#X restore 289 80 pd Gem.init;
#X msg 132 112 create \, 1 \, frame 60;
#X connect 2 0 3 0;
#X connect 3 0 4 0;
#X connect 3 0 8 0;
#X connect 3 1 5 0;
#X connect 3 1 6 0;
#X connect 4 0 1 0;
#X connect 5 0 1 0;
#X connect 6 0 0 0;
#X connect 7 0 0 0;
#X connect 8 0 0 0;
#X restore 8 48 pd gemwin;
#X msg 8 24 create;
#X text 4 4 Create window and render;
#X obj 38 114 ortho;
#X obj 311 85 ossia.device Graphik;
#X obj 316 127 ossia.model rectangle;
#X obj 126 396 rectangle 1 1;
#X obj 38 86 gemhead;
#N canvas 569 232 450 300 rotate 0;
#X obj 84 199 outlet;
#X obj 84 26 inlet;
#X obj 121 50 ossia.model rotate;
#X obj 84 163 rotateXYZ 0 0 0;
#X obj 119 76 ossia.param x @default 0;
#X obj 154 102 ossia.param y @default 0;
#X obj 189 127 ossia.param z @default 0;
#X connect 1 0 3 0;
#X connect 3 0 0 0;
#X connect 4 0 3 1;
#X connect 5 0 3 2;
#X connect 6 0 3 3;
#X restore 38 179 pd rotate;
#N canvas 569 232 450 300 translate 0;
#X obj 121 50 ossia.model translate;
#X obj 84 163 translateXYZ 0 0 0;
#X obj 84 199 outlet;
#X obj 84 26 inlet;
#X obj 119 76 ossia.param x @default 0;
#X obj 154 102 ossia.param y @default 0;
#X obj 189 127 ossia.param z @default 0;
#X connect 1 0 2 0;
#X connect 3 0 1 0;
#X connect 4 0 1 1;
#X connect 5 0 1 2;
#X connect 6 0 1 3;
#X restore 38 143 pd translate;
#N canvas 569 232 450 300 scale 0;
#X obj 84 199 outlet;
#X obj 84 26 inlet;
#X obj 121 50 ossia.model scale;
#X obj 84 163 scaleXYZ 1 1 1;
#X obj 189 127 ossia.param z @default 1;
#X obj 154 102 ossia.param y @default 1;
#X obj 119 76 ossia.param x @default 1;
#X connect 1 0 3 0;
#X connect 3 0 0 0;
#X connect 4 0 3 3;
#X connect 5 0 3 2;
#X connect 6 0 3 1;
#X restore 38 217 pd scale;
#X obj 38 287 alpha 1;
#N canvas 14 585 584 309 color 0;
#X obj 93 28 inlet;
#X obj 93 190 outlet;
#X obj 104 130 colorRGB 1 1 1 1;
#X obj 221 70 unpack f f f f;
#X obj 161 21 ossia.param color @unit color.rgba @default 1 1 1 1;
#X connect 0 0 2 0;
#X connect 2 0 1 0;
#X connect 3 0 2 1;
#X connect 3 1 2 2;
#X connect 3 2 2 3;
#X connect 3 3 2 4;
#X connect 4 0 3 0;
#X restore 38 255 pd color;
#X msg 334 47 help;
#X msg 256 22 expose oscquery 22222 33333;
#X connect 0 0 13 0;
#X connect 1 0 13 0;
#X connect 2 0 13 1;
#X connect 3 0 13 2;
#X connect 7 0 8 0;
#X connect 8 0 7 0;
#X connect 10 0 16 0;
#X connect 14 0 10 0;
#X connect 15 0 17 0;
#X connect 16 0 15 0;
#X connect 17 0 19 0;
#X connect 18 0 13 0;
#X connect 19 0 18 0;
#X connect 20 0 11 0;
#X connect 21 0 11 0;
