#N canvas 766 204 450 300 10;
#X obj 59 157 print;
#X obj 59 129 ø;
#N canvas 1082 237 529 402 device 0;
#X obj 46 248 ø.device subDevice;
#X obj 251 74 ø.param foo;
#X msg 54 212 expose oscquery;
#X floatatom 250 44 5 0 0 0 - - -, f 5;
#X floatatom 251 96 5 0 0 0 - - -, f 5;
#X obj 46 270 print device;
#X floatatom 356 42 5 0 0 0 - - -, f 5;
#X floatatom 359 94 5 0 0 0 - - -, f 5;
#X obj 359 72 ø.param bar;
#X msg 28 163 preset save one.json;
#X msg 38 182 preset save two.json;
#X msg 5 117 preset load one.json;
#X msg 15 138 preset load two.json;
#X symbolatom 33 17 10 0 0 0 - - -, f 10;
#X symbolatom 36 67 10 0 0 0 - - -, f 10;
#X obj 37 45 ø.param string @type string;
#N canvas 248 517 456 355 model 1;
#X obj 220 280 ø.model model;
#N canvas 312 202 450 300 submodel 1;
#X obj 163 75 ø.param foo;
#X floatatom 162 45 5 0 0 0 - - -, f 5;
#X floatatom 163 97 5 0 0 0 - - -, f 5;
#X floatatom 268 43 5 0 0 0 - - -, f 5;
#X floatatom 271 95 5 0 0 0 - - -, f 5;
#X obj 271 73 ø.param bar;
#X obj 137 188 ø.model submodel;
#X connect 0 0 2 0;
#X connect 1 0 0 0;
#X connect 3 0 5 0;
#X connect 5 0 4 0;
#X restore 29 272 pd submodel;
#X obj 163 75 ø.param foo;
#X floatatom 162 45 5 0 0 0 - - -, f 5;
#X floatatom 163 97 5 0 0 0 - - -, f 5;
#X floatatom 268 43 5 0 0 0 - - -, f 5;
#X floatatom 271 95 5 0 0 0 - - -, f 5;
#X obj 271 73 ø.param bar;
#X msg 244 163 preset save model2.json;
#X msg 264 213 preset load model2.json;
#X msg 254 191 preset load /model1.json;
#X msg 234 140 preset save /model1.json;
#X obj 220 300 print;
#X msg 226 115 preset;
#X msg 281 116 preset toto;
#X connect 0 0 12 0;
#X connect 2 0 4 0;
#X connect 3 0 2 0;
#X connect 5 0 7 0;
#X connect 7 0 6 0;
#X connect 8 0 0 0;
#X connect 9 0 0 0;
#X connect 10 0 0 0;
#X connect 11 0 0 0;
#X connect 13 0 0 0;
#X connect 14 0 12 0;
#X restore 251 303 pd model;
#X obj 204 187 savepanel;
#X obj 250 268 list prepend preset save;
#X obj 202 160 bng 15 250 50 0 empty empty empty 17 7 0 10 -262144
-1 -1;
#X msg 205 212 preset save \$1.json;
#X obj 356 163 bng 15 250 50 0 empty empty empty 17 7 0 10 -262144
-1 -1;
#X obj 358 190 openpanel;
#X msg 359 215 preset load \$1;
#X connect 0 0 5 0;
#X connect 1 0 4 0;
#X connect 2 0 0 0;
#X connect 3 0 1 0;
#X connect 6 0 8 0;
#X connect 8 0 7 0;
#X connect 9 0 0 0;
#X connect 10 0 0 0;
#X connect 11 0 0 0;
#X connect 12 0 0 0;
#X connect 13 0 15 0;
#X connect 15 0 14 0;
#X connect 17 0 20 0;
#X connect 19 0 17 0;
#X connect 20 0 0 0;
#X connect 21 0 22 0;
#X connect 22 0 23 0;
#X connect 23 0 0 0;
#X restore 170 236 pd device;
#N canvas 1253 733 450 300 client 1;
#X obj 51 216 ø.client;
#X msg 94 180 connect oscquery;
#X obj 285 159 ø.remote foo;
#X floatatom 230 160 5 0 0 0 - - -, f 5;
#X obj 50 238 print client;
#X floatatom 236 193 5 0 0 0 - - -, f 5;
#X obj 291 192 ø.remote bar;
#X msg 68 157 update;
#X obj 300 27 ø.remote string;
#X symbolatom 209 24 10 0 0 0 - - -, f 10;
#X msg 28 114 preset save one.json;
#X msg 38 133 preset save two.json;
#X msg 5 68 preset load one.json;
#X msg 15 89 preset load two.json;
#X connect 0 0 4 0;
#X connect 1 0 0 0;
#X connect 2 0 3 0;
#X connect 3 0 2 0;
#X connect 5 0 6 0;
#X connect 6 0 5 0;
#X connect 7 0 0 0;
#X connect 8 0 9 0;
#X connect 9 0 8 0;
#X connect 10 0 0 0;
#X connect 11 0 0 0;
#X connect 12 0 0 0;
#X connect 13 0 0 0;
#X restore 282 235 pd client;
#X connect 1 0 0 0;
