#N canvas 766 204 450 300 10;
#X obj 59 157 print;
#X obj 59 129 ø;
#N canvas -9 29 998 671 device 1;
#X obj 46 248 ø.device subDevice;
#X obj 251 74 ø.param foo;
#X msg 54 212 expose oscquery;
#X floatatom 250 44 5 0 0 0 - - -, f 5;
#X floatatom 251 96 5 0 0 0 - - -, f 5;
#X obj 46 270 print device;
#X floatatom 356 42 5 0 0 0 - - -, f 5;
#X floatatom 359 94 5 0 0 0 - - -, f 5;
#X obj 359 72 ø.param bar;
#X symbolatom 33 17 10 0 0 0 - - -, f 10;
#X symbolatom 36 67 10 0 0 0 - - -, f 10;
#X obj 37 45 ø.param string @type string;
#N canvas -48 210 1118 723 model 1;
#X obj 220 280 ø.model model;
#N canvas 830 149 642 729 submodel 0;
#X floatatom 54 44 5 0 0 0 - - -, f 5;
#X floatatom 55 96 5 0 0 0 - - -, f 5;
#X floatatom 268 43 5 0 0 0 - - -, f 5;
#X floatatom 271 95 5 0 0 0 - - -, f 5;
#X obj 73 189 ø.model submodel;
#X obj 55 74 ø.param test-int @type int;
#X obj 271 73 ø.param test-float @type float;
#X obj 244 193 ø.param test-bool @type boolean;
#X obj 413 222 print;
#X obj 246 224 tgl 15 0 empty empty empty 17 7 0 10 -262144 -1 -1 0
1;
#X obj 237 153 tgl 15 0 empty empty empty 17 7 0 10 -262144 -1 -1 0
1;
#X obj 299 362 print;
#X obj 130 333 ø.param test-sym @type string;
#X msg 125 289 something;
#X obj 113 371 symbol;
#X symbolatom 113 393 25 0 0 0 - - -, f 25;
#X msg 215 293 otherthing;
#X obj 68 540 unpack 0 0 0 0, f 22;
#X floatatom 68 564 5 0 0 0 - - -, f 5;
#X floatatom 111 563 5 0 0 0 - - -, f 5;
#X floatatom 154 563 5 0 0 0 - - -, f 5;
#X floatatom 197 564 5 0 0 0 - - -, f 5;
#N canvas 0 151 450 300 set 0;
#X obj 161 163 pack 0 0 0 0;
#X floatatom 161 105 5 0 0 0 - - -, f 5;
#X floatatom 201 105 5 0 0 0 - - -, f 5;
#X floatatom 241 105 5 0 0 0 - - -, f 5;
#X floatatom 281 105 5 0 0 0 - - -, f 5;
#X obj 281 133 t b f;
#X obj 241 133 t b f;
#X obj 201 133 t b f;
#X obj 161 185 outlet;
#X connect 0 0 8 0;
#X connect 1 0 0 0;
#X connect 2 0 7 0;
#X connect 3 0 6 0;
#X connect 4 0 5 0;
#X connect 5 0 1 0;
#X connect 5 1 0 3;
#X connect 6 0 1 0;
#X connect 6 1 0 2;
#X connect 7 0 1 0;
#X connect 7 1 0 1;
#X coords 0 -1 1 1 220 25 1 100 100;
#X restore 68 442 pd set;
#X obj 68 492 ossia.param test-color @unit color.rgba @default 1 0
0 1 @description "My beautiful red" @tags color beautiful @clip both
@mode bi @range 0 2;
#X msg 319 460 get type;
#X msg 426 465 get unit;
#X obj 409 550 print;
#X msg 434 434 unit color.rgba;
#X obj 455 396 loadbang;
#X obj 262 672 print;
#X obj 93 643 ø.param test-list @type list;
#X msg 349 639 get type;
#X msg 178 603 some other thing in some other place;
#X msg 35 604 hey something here;
#X obj 92 669 print list;
#X connect 0 0 5 0;
#X connect 2 0 6 0;
#X connect 5 0 1 0;
#X connect 6 0 3 0;
#X connect 7 0 9 0;
#X connect 7 1 8 0;
#X connect 10 0 7 0;
#X connect 12 0 14 0;
#X connect 12 1 11 0;
#X connect 13 0 12 0;
#X connect 14 0 15 0;
#X connect 16 0 12 0;
#X connect 17 0 18 0;
#X connect 17 1 19 0;
#X connect 17 2 20 0;
#X connect 17 3 21 0;
#X connect 22 0 23 0;
#X connect 23 0 17 0;
#X connect 23 1 26 0;
#X connect 24 0 23 0;
#X connect 25 0 23 0;
#X connect 27 0 23 0;
#X connect 28 0 27 0;
#X connect 30 0 34 0;
#X connect 30 1 29 0;
#X connect 31 0 30 0;
#X connect 32 0 30 0;
#X connect 33 0 30 0;
#X restore 528 142 pd submodel;
#X obj 234 336 print;
#X floatatom 472 16 5 0 0 0 - - -, f 5;
#X floatatom 478 58 5 0 0 0 - - -, f 5;
#X floatatom 691 5 5 0 0 0 - - -, f 5;
#X floatatom 694 57 5 0 0 0 - - -, f 5;
#X obj 478 36 ø.param test-int @type int;
#X obj 694 35 ø.param test-float @type float;
#X obj 667 155 ø.param test-bool @type boolean;
#X obj 836 184 print;
#X obj 669 186 tgl 15 0 empty empty empty 17 7 0 10 -262144 -1 -1 0
1;
#X obj 660 115 tgl 15 0 empty empty empty 17 7 0 10 -262144 -1 -1 0
1;
#X obj 722 324 print;
#X obj 553 295 ø.param test-sym @type string;
#X msg 548 251 something;
#X obj 536 333 symbol;
#X symbolatom 536 355 25 0 0 0 - - -, f 25;
#X msg 638 255 otherthing;
#X obj 491 502 unpack 0 0 0 0, f 22;
#X floatatom 491 526 5 0 0 0 - - -, f 5;
#X floatatom 534 525 5 0 0 0 - - -, f 5;
#X floatatom 577 525 5 0 0 0 - - -, f 5;
#X floatatom 620 526 5 0 0 0 - - -, f 5;
#N canvas 0 151 450 300 set 0;
#X obj 161 163 pack 0 0 0 0;
#X floatatom 161 105 5 0 0 0 - - -, f 5;
#X floatatom 201 105 5 0 0 0 - - -, f 5;
#X floatatom 241 105 5 0 0 0 - - -, f 5;
#X floatatom 281 105 5 0 0 0 - - -, f 5;
#X obj 281 133 t b f;
#X obj 241 133 t b f;
#X obj 201 133 t b f;
#X obj 161 185 outlet;
#X connect 0 0 8 0;
#X connect 1 0 0 0;
#X connect 2 0 7 0;
#X connect 3 0 6 0;
#X connect 4 0 5 0;
#X connect 5 0 1 0;
#X connect 5 1 0 3;
#X connect 6 0 1 0;
#X connect 6 1 0 2;
#X connect 7 0 1 0;
#X connect 7 1 0 1;
#X coords 0 -1 1 1 220 25 1 100 100;
#X restore 491 404 pd set;
#X obj 491 454 ossia.param test-color @unit color.rgba @default 1 0
0 1 @description "My beautiful red" @tags color beautiful @clip both
@mode bi @range 0 2;
#X msg 742 422 get type;
#X msg 849 427 get unit;
#X obj 832 512 print;
#X msg 857 396 unit color.rgba;
#X obj 878 358 loadbang;
#X obj 685 634 print;
#X obj 516 605 ø.param test-list @type list;
#X msg 772 601 get type;
#X msg 601 565 some other thing in some other place;
#X msg 458 566 hey something here;
#X obj 515 631 print list;
#X obj 26 151 savepanel;
#X obj 24 124 bng 15 250 50 0 empty empty empty 17 7 0 10 -262144 -1
-1;
#X msg 27 176 preset save \$1.json;
#X obj 341 124 bng 15 250 50 0 empty empty empty 17 7 0 10 -262144
-1 -1;
#X obj 343 151 openpanel;
#X msg 344 176 preset load \$1;
#X obj 169 154 savepanel;
#X obj 167 127 bng 15 250 50 0 empty empty empty 17 7 0 10 -262144
-1 -1;
#X msg 170 179 preset save \$1.txt;
#X connect 0 0 2 0;
#X connect 3 0 7 0;
#X connect 5 0 8 0;
#X connect 7 0 4 0;
#X connect 8 0 6 0;
#X connect 9 0 11 0;
#X connect 9 1 10 0;
#X connect 12 0 9 0;
#X connect 14 0 16 0;
#X connect 14 1 13 0;
#X connect 15 0 14 0;
#X connect 16 0 17 0;
#X connect 18 0 14 0;
#X connect 19 0 20 0;
#X connect 19 1 21 0;
#X connect 19 2 22 0;
#X connect 19 3 23 0;
#X connect 24 0 25 0;
#X connect 25 0 19 0;
#X connect 25 1 28 0;
#X connect 26 0 25 0;
#X connect 27 0 25 0;
#X connect 29 0 25 0;
#X connect 30 0 29 0;
#X connect 32 0 36 0;
#X connect 32 1 31 0;
#X connect 33 0 32 0;
#X connect 34 0 32 0;
#X connect 35 0 32 0;
#X connect 37 0 39 0;
#X connect 38 0 37 0;
#X connect 39 0 0 0;
#X connect 40 0 41 0;
#X connect 41 0 42 0;
#X connect 42 0 0 0;
#X connect 43 0 45 0;
#X connect 44 0 43 0;
#X connect 45 0 0 0;
#X restore 251 303 pd model;
#X obj 26 151 savepanel;
#X obj 250 268 list prepend preset save;
#X obj 24 124 bng 15 250 50 0 empty empty empty 17 7 0 10 -262144 -1
-1;
#X msg 27 176 preset save \$1.json;
#X obj 341 124 bng 15 250 50 0 empty empty empty 17 7 0 10 -262144
-1 -1;
#X obj 343 151 openpanel;
#X msg 344 176 preset load \$1;
#N canvas 798 111 642 729 submodel 1;
#X floatatom 54 44 5 0 0 0 - - -, f 5;
#X floatatom 55 96 5 0 0 0 - - -, f 5;
#X floatatom 268 43 5 0 0 0 - - -, f 5;
#X floatatom 271 95 5 0 0 0 - - -, f 5;
#X obj 73 189 ø.model submodel;
#X obj 55 74 ø.param test-int @type int;
#X obj 271 73 ø.param test-float @type float;
#X obj 244 193 ø.param test-bool @type boolean;
#X obj 413 222 print;
#X obj 246 224 tgl 15 0 empty empty empty 17 7 0 10 -262144 -1 -1 0
1;
#X obj 237 153 tgl 15 0 empty empty empty 17 7 0 10 -262144 -1 -1 0
1;
#X obj 299 362 print;
#X obj 130 333 ø.param test-sym @type string;
#X msg 125 289 something;
#X obj 113 371 symbol;
#X symbolatom 113 393 25 0 0 0 - - -, f 25;
#X msg 215 293 otherthing;
#X obj 68 540 unpack 0 0 0 0, f 22;
#X floatatom 68 564 5 0 0 0 - - -, f 5;
#X floatatom 111 563 5 0 0 0 - - -, f 5;
#X floatatom 154 563 5 0 0 0 - - -, f 5;
#X floatatom 197 564 5 0 0 0 - - -, f 5;
#N canvas 0 151 450 300 set 0;
#X obj 161 163 pack 0 0 0 0;
#X floatatom 161 105 5 0 0 0 - - -, f 5;
#X floatatom 201 105 5 0 0 0 - - -, f 5;
#X floatatom 241 105 5 0 0 0 - - -, f 5;
#X floatatom 281 105 5 0 0 0 - - -, f 5;
#X obj 281 133 t b f;
#X obj 241 133 t b f;
#X obj 201 133 t b f;
#X obj 161 185 outlet;
#X connect 0 0 8 0;
#X connect 1 0 0 0;
#X connect 2 0 7 0;
#X connect 3 0 6 0;
#X connect 4 0 5 0;
#X connect 5 0 1 0;
#X connect 5 1 0 3;
#X connect 6 0 1 0;
#X connect 6 1 0 2;
#X connect 7 0 1 0;
#X connect 7 1 0 1;
#X coords 0 -1 1 1 220 25 1 100 100;
#X restore 68 442 pd set;
#X obj 68 492 ossia.param test-color @unit color.rgba @default 1 0
0 1 @description "My beautiful red" @tags color beautiful @clip both
@mode bi @range 0 2;
#X msg 319 460 get type;
#X msg 426 465 get unit;
#X obj 409 550 print;
#X msg 434 434 unit color.rgba;
#X obj 455 396 loadbang;
#X obj 262 672 print;
#X obj 93 643 ø.param test-list @type list;
#X msg 349 639 get type;
#X msg 178 603 some other thing in some other place;
#X msg 35 604 hey something here;
#X obj 92 669 print list;
#X connect 0 0 5 0;
#X connect 2 0 6 0;
#X connect 5 0 1 0;
#X connect 6 0 3 0;
#X connect 7 0 9 0;
#X connect 7 1 8 0;
#X connect 10 0 7 0;
#X connect 12 0 14 0;
#X connect 12 1 11 0;
#X connect 13 0 12 0;
#X connect 14 0 15 0;
#X connect 16 0 12 0;
#X connect 17 0 18 0;
#X connect 17 1 19 0;
#X connect 17 2 20 0;
#X connect 17 3 21 0;
#X connect 22 0 23 0;
#X connect 23 0 17 0;
#X connect 23 1 26 0;
#X connect 24 0 23 0;
#X connect 25 0 23 0;
#X connect 27 0 23 0;
#X connect 28 0 27 0;
#X connect 30 0 34 0;
#X connect 30 1 29 0;
#X connect 31 0 30 0;
#X connect 32 0 30 0;
#X connect 33 0 30 0;
#X restore 528 142 pd submodel;
#X floatatom 472 16 5 0 0 0 - - -, f 5;
#X floatatom 478 58 5 0 0 0 - - -, f 5;
#X floatatom 691 5 5 0 0 0 - - -, f 5;
#X floatatom 694 57 5 0 0 0 - - -, f 5;
#X obj 478 36 ø.param test-int @type int;
#X obj 694 35 ø.param test-float @type float;
#X obj 667 155 ø.param test-bool @type boolean;
#X obj 836 184 print;
#X obj 669 186 tgl 15 0 empty empty empty 17 7 0 10 -262144 -1 -1 0
1;
#X obj 660 115 tgl 15 0 empty empty empty 17 7 0 10 -262144 -1 -1 0
1;
#X obj 722 324 print;
#X obj 553 295 ø.param test-sym @type string;
#X msg 548 251 something;
#X obj 536 333 symbol;
#X symbolatom 536 355 25 0 0 0 - - -, f 25;
#X msg 638 255 otherthing;
#X obj 491 502 unpack 0 0 0 0, f 22;
#X floatatom 491 526 5 0 0 0 - - -, f 5;
#X floatatom 534 525 5 0 0 0 - - -, f 5;
#X floatatom 577 525 5 0 0 0 - - -, f 5;
#X floatatom 620 526 5 0 0 0 - - -, f 5;
#N canvas 0 151 450 300 set 0;
#X obj 161 163 pack 0 0 0 0;
#X floatatom 161 105 5 0 0 0 - - -, f 5;
#X floatatom 201 105 5 0 0 0 - - -, f 5;
#X floatatom 241 105 5 0 0 0 - - -, f 5;
#X floatatom 281 105 5 0 0 0 - - -, f 5;
#X obj 281 133 t b f;
#X obj 241 133 t b f;
#X obj 201 133 t b f;
#X obj 161 185 outlet;
#X connect 0 0 8 0;
#X connect 1 0 0 0;
#X connect 2 0 7 0;
#X connect 3 0 6 0;
#X connect 4 0 5 0;
#X connect 5 0 1 0;
#X connect 5 1 0 3;
#X connect 6 0 1 0;
#X connect 6 1 0 2;
#X connect 7 0 1 0;
#X connect 7 1 0 1;
#X coords 0 -1 1 1 220 25 1 100 100;
#X restore 491 404 pd set;
#X obj 491 454 ossia.param test-color @unit color.rgba @default 1 0
0 1 @description "My beautiful red" @tags color beautiful @clip both
@mode bi @range 0 2;
#X msg 742 422 get type;
#X msg 849 427 get unit;
#X obj 832 512 print;
#X msg 857 396 unit color.rgba;
#X obj 878 358 loadbang;
#X obj 685 634 print;
#X obj 516 605 ø.param test-list @type list;
#X msg 772 601 get type;
#X msg 601 565 some other thing in some other place;
#X msg 458 566 hey something here;
#X obj 515 631 print list;
#X obj 169 154 savepanel;
#X obj 167 127 bng 15 250 50 0 empty empty empty 17 7 0 10 -262144
-1 -1;
#X msg 170 179 preset save \$1.txt;
#X connect 0 0 5 0;
#X connect 1 0 4 0;
#X connect 2 0 0 0;
#X connect 3 0 1 0;
#X connect 6 0 8 0;
#X connect 8 0 7 0;
#X connect 9 0 11 0;
#X connect 11 0 10 0;
#X connect 13 0 16 0;
#X connect 15 0 13 0;
#X connect 16 0 0 0;
#X connect 17 0 18 0;
#X connect 18 0 19 0;
#X connect 19 0 0 0;
#X connect 21 0 25 0;
#X connect 23 0 26 0;
#X connect 25 0 22 0;
#X connect 26 0 24 0;
#X connect 27 0 29 0;
#X connect 27 1 28 0;
#X connect 30 0 27 0;
#X connect 32 0 34 0;
#X connect 32 1 31 0;
#X connect 33 0 32 0;
#X connect 34 0 35 0;
#X connect 36 0 32 0;
#X connect 37 0 38 0;
#X connect 37 1 39 0;
#X connect 37 2 40 0;
#X connect 37 3 41 0;
#X connect 42 0 43 0;
#X connect 43 0 37 0;
#X connect 43 1 46 0;
#X connect 44 0 43 0;
#X connect 45 0 43 0;
#X connect 47 0 43 0;
#X connect 48 0 47 0;
#X connect 50 0 54 0;
#X connect 50 1 49 0;
#X connect 51 0 50 0;
#X connect 52 0 50 0;
#X connect 53 0 50 0;
#X connect 55 0 57 0;
#X connect 56 0 55 0;
#X connect 57 0 0 0;
#X restore 170 236 pd device;
#N canvas 990 574 450 300 client 0;
#X obj 51 236 ø.client;
#X msg 94 180 connect oscquery;
#X obj 285 159 ø.remote foo;
#X floatatom 230 160 5 0 0 0 - - -, f 5;
#X obj 50 258 print client;
#X floatatom 236 193 5 0 0 0 - - -, f 5;
#X msg 68 157 update;
#X obj 300 27 ø.remote string;
#X symbolatom 209 24 10 0 0 0 - - -, f 10;
#X msg 28 114 preset save one.json;
#X msg 38 133 preset save two.json;
#X msg 5 68 preset load one.json;
#X msg 15 89 preset load two.json;
#X msg 104 200 namespace;
#X obj 291 192 ø.remote bar;
#X connect 0 0 4 0;
#X connect 1 0 0 0;
#X connect 2 0 3 0;
#X connect 3 0 2 0;
#X connect 5 0 14 0;
#X connect 6 0 0 0;
#X connect 7 0 8 0;
#X connect 8 0 7 0;
#X connect 9 0 0 0;
#X connect 10 0 0 0;
#X connect 11 0 0 0;
#X connect 12 0 0 0;
#X connect 13 0 0 0;
#X connect 14 0 5 0;
#X restore 282 235 pd client;
#X msg 40 65 preset save test.json;
#X msg 50 85 preset load test.json;
#X msg 27 38 namespace;
#X connect 1 0 0 0;
#X connect 4 0 1 0;
#X connect 5 0 1 0;
#X connect 6 0 1 0;
