#N canvas 678 510 554 353 10;
#X floatatom 52 55 5 0 0 0 - - -, f 5;
#X floatatom 53 124 5 0 0 0 - - -, f 5;
#X floatatom 60 193 5 0 0 0 - - -, f 5;
#X floatatom 60 242 5 0 0 0 - - -, f 5;
#X obj 60 220 ø.remote freq;
#X floatatom 194 188 5 0 0 0 - - -, f 5;
#X floatatom 194 240 5 0 0 0 - - -, f 5;
#X msg 254 193 getunit;
#X obj 361 248 route address;
#X obj 449 274 print;
#X obj 194 218 ø.remote freq @unit time.midinote;
#X obj 245 312 ossia;
#X msg 245 282 expose oscquery;
#X obj 53 81 ø.param freq @unit time.hz @range 200 5000 @bounding_mode
clip;
#X obj 449 123 print;
#X msg 116 56 getunit;
#X msg 255 148 unit time.ms;
#X msg 332 179 unit distance.km;
#X msg 353 156 unit time.bad;
#X connect 0 0 13 0;
#X connect 2 0 4 0;
#X connect 4 0 3 0;
#X connect 5 0 10 0;
#X connect 7 0 10 0;
#X connect 8 1 9 0;
#X connect 10 0 6 0;
#X connect 10 2 8 0;
#X connect 12 0 11 0;
#X connect 13 0 1 0;
#X connect 13 1 14 0;
#X connect 15 0 13 0;
#X connect 16 0 10 0;
#X connect 17 0 10 0;
#X connect 18 0 10 0;
