#N canvas 646 340 554 353 10;
#X floatatom 156 84 5 0 0 0 - - -, f 5;
#X floatatom 157 133 5 0 0 0 - - -, f 5;
#X floatatom 60 193 5 0 0 0 - - -, f 5;
#X floatatom 60 242 5 0 0 0 - - -, f 5;
#X obj 60 220 ø.remote freq;
#X floatatom 194 191 5 0 0 0 - - -, f 5;
#X floatatom 194 240 5 0 0 0 - - -, f 5;
#X obj 157 111 ø.param freq @unit time.hz;
#X obj 194 218 ø.remote freq @unit time.s;
#X msg 249 191 getunit;
#X obj 361 248 route address;
#X obj 449 274 print;
#X connect 0 0 7 0;
#X connect 2 0 4 0;
#X connect 4 0 3 0;
#X connect 5 0 8 0;
#X connect 7 0 1 0;
#X connect 8 0 6 0;
#X connect 8 2 10 0;
#X connect 9 0 8 0;
#X connect 10 1 11 0;
