#N canvas 678 510 554 394 10;
#X floatatom 52 55 5 0 0 0 - - -, f 5;
#X floatatom 53 124 5 0 0 0 - - -, f 5;
#X floatatom 60 193 5 0 0 0 - - -, f 5;
#X floatatom 60 242 5 0 0 0 - - -, f 5;
#X obj 60 220 ø.remote freq;
#X floatatom 194 188 5 0 0 0 - - -, f 5;
#X floatatom 194 240 5 0 0 0 - - -, f 5;
#X msg 254 193 getunit;
#X obj 361 248 route address;
#X obj 245 312 ossia;
#X msg 245 282 expose oscquery;
#X msg 116 56 getunit;
#X msg 255 148 unit time.ms;
#X msg 332 179 unit distance.km;
#X msg 353 156 unit time.bad;
#X msg 148 284 namespace;
#X obj 245 334 print;
#X obj 306 17 ø.param test @type vec4f;
#X msg 244 13 0 0 0 1;
#N canvas 153 670 525 300 model 1;
#X floatatom 124 120 5 0 0 0 - - -, f 5;
#X floatatom 124 70 5 0 0 0 - - -, f 5;
#X obj 124 98 ø.param nested @type float;
#X obj 127 201 ø.model fruh;
#X obj 261 200 ø.param str @type symbol;
#X symbolatom 240 245 10 0 0 0 - - -, f 10;
#X symbolatom 245 160 10 0 0 0 - - -, f 10;
#X obj 349 241 print;
#X msg 334 147 blabla;
#X obj 334 169 symbol;
#X connect 1 0 2 0;
#X connect 2 0 0 0;
#X connect 4 0 5 0;
#X connect 4 0 7 0;
#X connect 6 0 4 0;
#X connect 8 0 9 0;
#X connect 9 0 4 0;
#X restore 40 294 pd model;
#X obj 51 344 ø.model model;
#X obj 393 369 print;
#X msg 393 321 namespace;
#X obj 393 347 ø.device Pdddd;
#N canvas 557 178 450 300 view 1;
#X floatatom 62 107 5 0 0 0 - - -, f 5;
#X obj 124 98 ø.remote nested @type float;
#X obj 106 199 ø.view fruh;
#X obj 287 173 ø.remote str;
#X symbolatom 202 174 10 0 0 0 - - -, f 10;
#X connect 0 0 1 0;
#X connect 1 0 0 0;
#X connect 3 0 4 0;
#X connect 4 0 3 0;
#X restore 40 315 pd view;
#X floatatom 306 39 5 0 0 0 - - -, f 5;
#X obj 110 189 print param;
#X obj 449 274 print remote;
#X obj 181 124 route address;
#X obj 110 168 pack 0 s;
#X obj 181 146 symbol;
#X msg 194 51 getboth;
#X obj 349 129 print;
#X obj 53 81 ø.param freq @unit time.hz @range 200 5000 @both both
;
#X obj 194 218 ø.remote freq @unit time.midinote;
#X connect 0 0 33 0;
#X connect 2 0 4 0;
#X connect 4 0 3 0;
#X connect 5 0 34 0;
#X connect 7 0 34 0;
#X connect 8 1 27 0;
#X connect 9 0 16 0;
#X connect 10 0 9 0;
#X connect 11 0 33 0;
#X connect 12 0 34 0;
#X connect 13 0 34 0;
#X connect 14 0 34 0;
#X connect 15 0 9 0;
#X connect 17 0 25 0;
#X connect 18 0 17 0;
#X connect 22 0 23 0;
#X connect 23 0 21 0;
#X connect 28 0 30 0;
#X connect 28 1 32 0;
#X connect 29 0 26 0;
#X connect 30 0 29 1;
#X connect 31 0 33 0;
#X connect 33 0 1 0;
#X connect 33 0 29 0;
#X connect 33 1 28 0;
#X connect 34 0 6 0;
#X connect 34 2 8 0;
