#N canvas 926 512 954 437 10;
#X text 37 16 ossia.attribute connects to a parameter (like ossia.parameter)
and give access to its attributes remotely;
#X msg 33 189 unit km;
#X msg 47 209 unit mm;
#X msg 323 110 unit km;
#X msg 385 109 unit mm;
#X obj 639 242 print param;
#X obj 105 359 print attribute;
#X msg 172 231 clip both;
#X msg 162 211 clip free;
#X floatatom 296 141 5 0 0 0 - - -, f 5;
#X floatatom 313 240 5 0 0 0 - - -, f 5;
#X floatatom 370 336 5 0 0 0 - - -, f 5;
#X obj 564 379 print remote;
#X obj 562 357 route address;
#X msg 408 297 getunit;
#X msg 213 88 priority \$1;
#X floatatom 213 69 5 0 0 0 - - -, f 5;
#X msg 105 142 priority \$1;
#X floatatom 105 123 5 0 0 0 - - -, f 5;
#X obj 105 337 ossia.attribute fo*/<tut.a*>;
#X obj 414 334 ossia.remote foo.2/tut.ac;
#X msg 492 283 unit km;
#X msg 506 303 unit mm;
#X msg 586 286 range 1 3;
#X msg 586 308 range -1 1;
#X msg 369 269 getrange;
#X msg 553 138 description "fol description";
#X msg 563 158 description "fol qdlkjqsldkj";
#X msg 615 334 description "fol qdlkjqsldkj";
#N canvas 1008 50 753 743 all 0;
#X obj 30 148 s \$0-param_bar;
#X obj 30 451 r \$0-param_bar;
#X obj 150 148 s \$0-param_bar;
#X obj 270 148 s \$0-param_bar;
#X obj 390 148 s \$0-param_bar;
#X obj 30 268 s \$0-param_bar;
#X obj 180 268 s \$0-param_bar;
#X obj 539 264 s \$0-param_bar;
#X obj 537 411 s \$0-param_bar;
#X obj 30 378 s \$0-param_bar;
#X obj 210 378 s \$0-param_bar;
#X obj 356 378 s \$0-param_bar;
#X msg 30 59 range 0 1;
#X msg 40 79 range -10 10;
#X msg 55 123 getrange;
#X msg 150 79 min -1 -2 -3 -4;
#X msg 160 99 min -10;
#X msg 175 123 getmin;
#X msg 270 79 max 1 2 3 4;
#X msg 280 99 max 10;
#X msg 295 123 getmax;
#X msg 50 99 range;
#X msg 55 243 getdefault;
#X msg 40 219 default blah fruh;
#X msg 30 199 default 0 1 1 1;
#X msg 180 219 hidden \$1;
#X msg 205 243 gethidden;
#X obj 180 198 tgl 15 0 empty empty empty 17 7 0 10 -262144 -1 -1 0
1;
#X msg 539 215 priority \$1;
#X msg 564 239 getpriority;
#X floatatom 539 193 5 0 0 0 - - -, f 5;
#X msg 30 329 repetition_filter \$1;
#X msg 45 353 getrepetition_filter;
#X obj 30 310 tgl 15 0 empty empty empty 17 7 0 10 -262144 -1 -1 0
1;
#X msg 235 353 gettags;
#X msg 210 331 tags graphic core;
#X msg 381 353 getdescription;
#X obj 290 268 s \$0-param_bar;
#X obj 290 198 tgl 15 0 empty empty empty 17 7 0 10 -262144 -1 -1 0
1;
#X msg 290 219 enable \$1;
#X msg 315 243 getenable;
#X msg 356 309 description Something meaningful;
#X text 20 6 Each attribute can be set and get via a message from the
patcher.;
#X obj 410 268 s \$0-param_bar;
#X obj 410 198 tgl 15 0 empty empty empty 17 7 0 10 -262144 -1 -1 0
1;
#X msg 435 243 getmute;
#X msg 410 219 mute \$1;
#X msg 537 342 mode bi;
#X msg 547 364 mode get;
#X msg 561 386 getmode;
#X msg 366 329 description nothing;
#X obj 530 539 s \$0-param_bar;
#X msg 554 514 getrate;
#X msg 530 489 rate \$1;
#X floatatom 530 466 5 0 0 0 - - -, f 5;
#X obj 504 149 s \$0-param_bar;
#X msg 427 112 getclip;
#X msg 534 113 gettype;
#X obj 29 478 outlet;
#X msg 389 49 clip both;
#X msg 400 70 clip low;
#X msg 415 90 clip free;
#X connect 1 0 58 0;
#X connect 12 0 0 0;
#X connect 13 0 0 0;
#X connect 14 0 0 0;
#X connect 15 0 2 0;
#X connect 16 0 2 0;
#X connect 17 0 2 0;
#X connect 18 0 3 0;
#X connect 19 0 3 0;
#X connect 20 0 3 0;
#X connect 21 0 0 0;
#X connect 22 0 5 0;
#X connect 23 0 5 0;
#X connect 24 0 5 0;
#X connect 25 0 6 0;
#X connect 26 0 6 0;
#X connect 27 0 25 0;
#X connect 28 0 7 0;
#X connect 29 0 7 0;
#X connect 30 0 28 0;
#X connect 31 0 9 0;
#X connect 32 0 9 0;
#X connect 33 0 31 0;
#X connect 34 0 10 0;
#X connect 35 0 10 0;
#X connect 36 0 11 0;
#X connect 38 0 39 0;
#X connect 39 0 37 0;
#X connect 40 0 37 0;
#X connect 41 0 11 0;
#X connect 44 0 46 0;
#X connect 45 0 43 0;
#X connect 46 0 43 0;
#X connect 47 0 8 0;
#X connect 48 0 8 0;
#X connect 49 0 8 0;
#X connect 50 0 11 0;
#X connect 52 0 51 0;
#X connect 53 0 51 0;
#X connect 54 0 53 0;
#X connect 56 0 4 0;
#X connect 57 0 55 0;
#X connect 59 0 4 0;
#X connect 60 0 4 0;
#X connect 61 0 4 0;
#X restore 222 151 pd all;
#N canvas 584 121 690 609 all 1;
#X obj 30 148 s \$0-attr_bar;
#X obj 30 451 r \$0-attr_bar;
#X obj 150 148 s \$0-attr_bar;
#X obj 270 148 s \$0-attr_bar;
#X obj 390 148 s \$0-attr_bar;
#X obj 30 268 s \$0-attr_bar;
#X obj 180 268 s \$0-attr_bar;
#X obj 539 264 s \$0-attr_bar;
#X obj 537 411 s \$0-attr_bar;
#X obj 30 378 s \$0-attr_bar;
#X obj 210 378 s \$0-attr_bar;
#X obj 356 378 s \$0-attr_bar;
#X msg 30 59 range 0 1;
#X msg 40 79 range -10 10;
#X msg 150 79 min -1 -2 -3 -4;
#X msg 270 79 max 1 2 3 4;
#X msg 50 99 range;
#X msg 40 219 default blah fruh;
#X msg 30 199 default 0 1 1 1;
#X msg 180 219 hidden \$1;
#X obj 180 198 tgl 15 0 empty empty empty 17 7 0 10 -262144 -1 -1 0
1;
#X msg 539 215 priority \$1;
#X floatatom 537 186 5 0 0 0 - - -, f 5;
#X obj 30 310 tgl 15 0 empty empty empty 17 7 0 10 -262144 -1 -1 0
1;
#X msg 210 331 tags graphic core;
#X obj 290 268 s \$0-attr_bar;
#X obj 290 198 tgl 15 0 empty empty empty 17 7 0 10 -262144 -1 -1 0
1;
#X msg 290 219 enable \$1;
#X msg 356 309 description Something meaningful;
#X text 20 6 Each attribute can be set and get via a message from the
patcher.;
#X obj 410 268 s \$0-attr_bar;
#X obj 410 198 tgl 15 0 empty empty empty 17 7 0 10 -262144 -1 -1 0
1;
#X msg 410 219 mute \$1;
#X msg 537 342 mode bi;
#X msg 547 364 mode get;
#X msg 366 329 description nothing;
#X obj 530 539 s \$0-attr_bar;
#X msg 554 514 getrate;
#X msg 530 489 rate \$1;
#X floatatom 530 466 5 0 0 0 - - -, f 5;
#X obj 504 149 s \$0-attr_bar;
#X obj 29 478 outlet;
#X msg 390 49 clip both;
#X msg 400 70 clip low;
#X msg 415 91 clip free;
#X msg 514 70 type vec3f;
#X msg 30 329 repetitions \$1;
#X msg 188 303 tags some thing;
#X msg 56 308 1;
#X msg 95 308 0;
#X msg 310 197 1;
#X msg 349 197 0;
#X msg 45 353 get repetitions;
#X msg 235 353 get tags;
#X msg 381 353 get description;
#X msg 561 386 get mode;
#X msg 564 239 get priority;
#X msg 435 243 get mute;
#X msg 315 243 get enable;
#X msg 204 243 get hidden;
#X msg 55 243 get default;
#X msg 55 123 get range;
#X msg 175 123 get min;
#X msg 295 123 get max;
#X msg 427 112 get clip;
#X msg 534 113 get type;
#X msg 280 99 max 20;
#X msg 160 99 min -20;
#X connect 1 0 41 0;
#X connect 12 0 0 0;
#X connect 13 0 0 0;
#X connect 14 0 2 0;
#X connect 15 0 3 0;
#X connect 16 0 0 0;
#X connect 17 0 5 0;
#X connect 18 0 5 0;
#X connect 19 0 6 0;
#X connect 20 0 19 0;
#X connect 21 0 7 0;
#X connect 22 0 21 0;
#X connect 23 0 46 0;
#X connect 24 0 10 0;
#X connect 26 0 27 0;
#X connect 27 0 25 0;
#X connect 28 0 11 0;
#X connect 31 0 32 0;
#X connect 32 0 30 0;
#X connect 33 0 8 0;
#X connect 34 0 8 0;
#X connect 35 0 11 0;
#X connect 37 0 36 0;
#X connect 38 0 36 0;
#X connect 39 0 38 0;
#X connect 42 0 4 0;
#X connect 43 0 4 0;
#X connect 44 0 4 0;
#X connect 45 0 40 0;
#X connect 46 0 9 0;
#X connect 47 0 10 0;
#X connect 48 0 46 0;
#X connect 49 0 46 0;
#X connect 50 0 27 0;
#X connect 51 0 27 0;
#X connect 52 0 9 0;
#X connect 53 0 10 0;
#X connect 54 0 11 0;
#X connect 55 0 8 0;
#X connect 56 0 7 0;
#X connect 57 0 30 0;
#X connect 58 0 25 0;
#X connect 59 0 6 0;
#X connect 60 0 5 0;
#X connect 61 0 0 0;
#X connect 62 0 2 0;
#X connect 63 0 3 0;
#X connect 64 0 4 0;
#X connect 65 0 40 0;
#X connect 66 0 3 0;
#X connect 67 0 2 0;
#X restore 30 287 pd all;
#N canvas 0 50 753 743 all 0;
#X obj 30 148 s \$0-remote_bar;
#X obj 30 451 r \$0-remote_bar;
#X obj 150 148 s \$0-remote_bar;
#X obj 270 148 s \$0-remote_bar;
#X obj 390 148 s \$0-remote_bar;
#X obj 30 268 s \$0-remote_bar;
#X obj 180 268 s \$0-remote_bar;
#X obj 539 264 s \$0-remote_bar;
#X obj 537 411 s \$0-remote_bar;
#X obj 30 378 s \$0-remote_bar;
#X obj 210 378 s \$0-remote_bar;
#X obj 356 378 s \$0-remote_bar;
#X msg 30 59 range 0 1;
#X msg 40 79 range -10 10;
#X msg 55 123 getrange;
#X msg 150 79 min -1 -2 -3 -4;
#X msg 160 99 min -10;
#X msg 175 123 getmin;
#X msg 270 79 max 1 2 3 4;
#X msg 280 99 max 10;
#X msg 295 123 getmax;
#X msg 50 99 range;
#X msg 55 243 getdefault;
#X msg 40 219 default blah fruh;
#X msg 30 199 default 0 1 1 1;
#X msg 180 219 hidden \$1;
#X msg 205 243 gethidden;
#X obj 180 198 tgl 15 0 empty empty empty 17 7 0 10 -262144 -1 -1 0
1;
#X msg 539 215 priority \$1;
#X msg 564 239 getpriority;
#X floatatom 539 193 5 0 0 0 - - -, f 5;
#X msg 30 329 repetition_filter \$1;
#X msg 45 353 getrepetition_filter;
#X obj 30 310 tgl 15 0 empty empty empty 17 7 0 10 -262144 -1 -1 0
1;
#X msg 235 353 gettags;
#X msg 210 331 tags graphic core;
#X msg 381 353 getdescription;
#X obj 290 268 s \$0-remote_bar;
#X obj 290 198 tgl 15 0 empty empty empty 17 7 0 10 -262144 -1 -1 0
1;
#X msg 290 219 enable \$1;
#X msg 315 243 getenable;
#X msg 356 309 description Something meaningful;
#X text 20 6 Each attribute can be set and get via a message from the
patcher.;
#X obj 410 268 s \$0-remote_bar;
#X obj 410 198 tgl 15 0 empty empty empty 17 7 0 10 -262144 -1 -1 0
1;
#X msg 435 243 getmute;
#X msg 410 219 mute \$1;
#X msg 537 342 mode bi;
#X msg 547 364 mode get;
#X msg 561 386 getmode;
#X msg 366 329 description nothing;
#X obj 530 539 s \$0-remote_bar;
#X msg 554 514 getrate;
#X msg 530 489 rate \$1;
#X floatatom 530 466 5 0 0 0 - - -, f 5;
#X obj 504 149 s \$0-remote_bar;
#X msg 427 112 getclip;
#X msg 534 113 gettype;
#X obj 29 478 outlet;
#X msg 390 49 clip both;
#X msg 400 70 clip low;
#X msg 415 91 clip free;
#X connect 1 0 58 0;
#X connect 12 0 0 0;
#X connect 13 0 0 0;
#X connect 14 0 0 0;
#X connect 15 0 2 0;
#X connect 16 0 2 0;
#X connect 17 0 2 0;
#X connect 18 0 3 0;
#X connect 19 0 3 0;
#X connect 20 0 3 0;
#X connect 21 0 0 0;
#X connect 22 0 5 0;
#X connect 23 0 5 0;
#X connect 24 0 5 0;
#X connect 25 0 6 0;
#X connect 26 0 6 0;
#X connect 27 0 25 0;
#X connect 28 0 7 0;
#X connect 29 0 7 0;
#X connect 30 0 28 0;
#X connect 31 0 9 0;
#X connect 32 0 9 0;
#X connect 33 0 31 0;
#X connect 34 0 10 0;
#X connect 35 0 10 0;
#X connect 36 0 11 0;
#X connect 38 0 39 0;
#X connect 39 0 37 0;
#X connect 40 0 37 0;
#X connect 41 0 11 0;
#X connect 44 0 46 0;
#X connect 45 0 43 0;
#X connect 46 0 43 0;
#X connect 47 0 8 0;
#X connect 48 0 8 0;
#X connect 49 0 8 0;
#X connect 50 0 11 0;
#X connect 52 0 51 0;
#X connect 53 0 51 0;
#X connect 54 0 53 0;
#X connect 56 0 4 0;
#X connect 57 0 55 0;
#X connect 59 0 4 0;
#X connect 60 0 4 0;
#X connect 61 0 4 0;
#X restore 342 306 pd all;
#X msg 22 169 get unit;
#X msg 263 110 get unit;
#X msg 152 191 get clip;
#X obj 84 395 ossia.attribute foo.1/tut.ac;
#X msg 177 256 get description;
#X msg 182 286 address foo.1/tut.ac;
#X msg 182 306 address;
#X obj 313 182 ossia.parameter foo.<1..3>/tut.<ac|ab|adabra> @description
"flop flip flap" @type list @default 1 2 3 4 foo bar, f 47;
#X msg 406 129 get clip;
#X msg 416 154 get range;
#X msg 446 62 clip high;
#X msg 493 103 address foo.1/tut.ab;
#X msg 540 80 address;
#X connect 1 0 19 0;
#X connect 2 0 19 0;
#X connect 3 0 39 0;
#X connect 4 0 39 0;
#X connect 7 0 19 0;
#X connect 8 0 19 0;
#X connect 9 0 39 0;
#X connect 11 0 20 0;
#X connect 13 1 12 0;
#X connect 14 0 20 0;
#X connect 15 0 39 0;
#X connect 16 0 15 0;
#X connect 17 0 19 0;
#X connect 18 0 17 0;
#X connect 19 0 6 0;
#X connect 20 0 11 0;
#X connect 20 2 13 0;
#X connect 21 0 20 0;
#X connect 22 0 20 0;
#X connect 23 0 20 0;
#X connect 24 0 20 0;
#X connect 25 0 20 0;
#X connect 26 0 39 0;
#X connect 27 0 39 0;
#X connect 28 0 20 0;
#X connect 29 0 39 0;
#X connect 30 0 19 0;
#X connect 31 0 20 0;
#X connect 32 0 19 0;
#X connect 33 0 39 0;
#X connect 34 0 19 0;
#X connect 36 0 19 0;
#X connect 37 0 19 0;
#X connect 38 0 19 0;
#X connect 39 0 10 0;
#X connect 39 1 5 0;
#X connect 40 0 39 0;
#X connect 41 0 39 0;
#X connect 42 0 39 0;
#X connect 43 0 39 0;
#X connect 44 0 39 0;
