#N canvas 626 122 954 437 10;
#X text 37 16 ossia.attribute connects to a parameter (like ossia.parameter)
and give access to its attributes remotely;
#X msg 22 169 getunit;
#X msg 33 189 unit km;
#X msg 47 209 unit mm;
#X msg 263 110 getunit;
#X msg 323 110 unit km;
#X msg 385 109 unit mm;
#X obj 626 222 print param;
#X obj 105 339 print attribute;
#X msg 152 191 getclip;
#X msg 172 231 clip both;
#X msg 406 129 getclip;
#X msg 162 211 clip free;
#X floatatom 296 141 5 0 0 0 - - -, f 5;
#X floatatom 311 220 5 0 0 0 - - -, f 5;
#X floatatom 370 336 5 0 0 0 - - -, f 5;
#X obj 564 379 print remote;
#X obj 562 357 route address;
#X msg 408 297 getunit;
#X msg 213 88 priority \$1;
#X floatatom 213 69 5 0 0 0 - - -, f 5;
#X msg 105 142 priority \$1;
#X floatatom 105 123 5 0 0 0 - - -, f 5;
#X msg 177 256 getdescription;
#X obj 313 182 ossia.parameter foo.<1..3>/tut.<ac|ab|adabra> @description
"flop flip flap", f 47;
#X obj 105 317 ossia.attribute fo*/<tut.a*>;
#X obj 414 334 ossia.remote foo.2/tut.ac;
#X msg 492 283 unit km;
#X msg 506 303 unit mm;
#X msg 586 286 range 1 3;
#X msg 586 308 range -1 1;
#X msg 369 269 getrange;
#X msg 416 154 getrange;
#X msg 553 138 description "fol description";
#X msg 563 158 description "fol qdlkjqsldkj";
#X msg 615 334 description "fol qdlkjqsldkj";
#X connect 1 0 25 0;
#X connect 2 0 25 0;
#X connect 3 0 25 0;
#X connect 4 0 24 0;
#X connect 5 0 24 0;
#X connect 6 0 24 0;
#X connect 9 0 25 0;
#X connect 10 0 25 0;
#X connect 11 0 24 0;
#X connect 12 0 25 0;
#X connect 13 0 24 0;
#X connect 15 0 26 0;
#X connect 17 1 16 0;
#X connect 18 0 26 0;
#X connect 19 0 24 0;
#X connect 20 0 19 0;
#X connect 21 0 25 0;
#X connect 22 0 21 0;
#X connect 23 0 25 0;
#X connect 24 0 14 0;
#X connect 24 1 7 0;
#X connect 25 0 8 0;
#X connect 26 0 15 0;
#X connect 26 2 17 0;
#X connect 27 0 26 0;
#X connect 28 0 26 0;
#X connect 29 0 26 0;
#X connect 30 0 26 0;
#X connect 31 0 26 0;
#X connect 32 0 24 0;
#X connect 33 0 24 0;
#X connect 34 0 24 0;
#X connect 35 0 26 0;
