#N canvas 365 93 1176 364 10;
#N canvas 348 408 450 300 device 1;
#X floatatom 118 145 5 0 0 0 - - -, f 5;
#X msg 168 139 dump;
#X obj 99 249 ø;
#X obj 98 272 print ossia;
#X msg 97 227 namespace;
#N canvas 799 409 556 300 model 1;
#X obj 204 140 ø.model foo.1;
#X floatatom 107 80 5 0 0 0 - - -, f 5;
#X floatatom 307 80 5 0 0 0 - - -, f 5;
#X floatatom 413 81 5 0 0 0 - - -, f 5;
#X floatatom 114 22 5 0 0 0 - - -, f 5;
#X floatatom 303 24 5 0 0 0 - - -, f 5;
#X floatatom 418 22 5 0 0 0 - - -, f 5;
#X obj 414 60 ø.param bach;
#X obj 115 49 ø.param bar;
#X obj 59 176 ø.param bar;
#X floatatom 59 198 5 0 0 0 - - -, f 5;
#X floatatom 59 146 5 0 0 0 - - -, f 5;
#X obj 279 47 ø.param baron;
#X floatatom 325 215 5 0 0 0 - - -, f 5;
#X obj 372 214 ø.remote /foo.1/bar;
#X connect 4 0 8 0;
#X connect 5 0 12 0;
#X connect 6 0 7 0;
#X connect 7 0 3 0;
#X connect 8 0 1 0;
#X connect 9 0 10 0;
#X connect 11 0 9 0;
#X connect 12 0 2 0;
#X connect 13 0 14 0;
#X connect 14 0 13 0;
#X restore 101 48 pd model;
#X obj 117 168 ø.remote foo.[0-5]/bar*;
#X obj 275 190 route address;
#X symbolatom 275 231 10 0 0 0 - - -, f 10;
#X obj 275 212 symbol;
#X floatatom 117 190 5 0 0 0 - - -, f 5;
#X msg 237 67 expose oscquery;
#X msg 221 38 namespace;
#X obj 236 117 print dev1;
#X obj 237 91 ossia.device test-pat.1;
#X connect 0 0 6 0;
#X connect 1 0 6 0;
#X connect 2 0 3 0;
#X connect 4 0 2 0;
#X connect 6 0 10 0;
#X connect 6 2 7 0;
#X connect 7 0 9 0;
#X connect 9 0 8 0;
#X connect 11 0 14 0;
#X connect 12 0 14 0;
#X connect 14 0 13 0;
#X restore 127 29 pd device;
#N canvas 0 521 347 297 client 1;
#X floatatom 32 49 5 0 0 0 - - -, f 5;
#X msg 82 43 dump;
#X obj 31 72 ø.remote foo.[0-5]/bar*;
#X obj 189 94 route address;
#X symbolatom 189 135 10 0 0 0 - - -, f 10;
#X obj 189 116 symbol;
#X floatatom 31 94 5 0 0 0 - - -, f 5;
#X obj 28 253 ossia.client;
#X msg 28 223 connect oscquery;
#X connect 0 0 2 0;
#X connect 1 0 2 0;
#X connect 2 0 6 0;
#X connect 2 2 3 0;
#X connect 3 0 5 0;
#X connect 5 0 4 0;
#X connect 8 0 7 0;
#X restore 17 33 pd client;
#X floatatom 891 17 5 0 0 0 - - -, f 5;
#X msg 945 12 dump;
#X obj 1052 63 route address;
#X symbolatom 1052 104 10 0 0 0 - - -, f 10;
#X obj 1052 85 symbol;
#X floatatom 894 63 5 0 0 0 - - -, f 5;
#X floatatom 626 43 5 0 0 0 - - -, f 5;
#X msg 676 37 dump;
#X floatatom 625 88 5 0 0 0 - - -, f 5;
#N canvas 343 722 450 334 device2 1;
#X floatatom 118 145 5 0 0 0 - - -, f 5;
#X msg 168 139 dump;
#X obj 226 111 print ossia;
#X msg 226 44 namespace, f 10;
#N canvas 794 722 556 300 model 1;
#X obj 204 140 ø.model foo.1;
#X floatatom 107 80 5 0 0 0 - - -, f 5;
#X floatatom 307 80 5 0 0 0 - - -, f 5;
#X floatatom 413 81 5 0 0 0 - - -, f 5;
#X floatatom 114 22 5 0 0 0 - - -, f 5;
#X floatatom 303 24 5 0 0 0 - - -, f 5;
#X floatatom 418 22 5 0 0 0 - - -, f 5;
#X obj 414 60 ø.param bach;
#X obj 115 49 ø.param bar;
#X obj 59 176 ø.param bar;
#X floatatom 59 198 5 0 0 0 - - -, f 5;
#X floatatom 59 146 5 0 0 0 - - -, f 5;
#X obj 279 47 ø.param baron;
#X floatatom 325 215 5 0 0 0 - - -, f 5;
#X obj 372 214 ø.remote /foo.1/bar;
#X text 176 240 device2/model;
#X connect 4 0 8 0;
#X connect 5 0 12 0;
#X connect 6 0 7 0;
#X connect 7 0 3 0;
#X connect 8 0 1 0;
#X connect 9 0 10 0;
#X connect 11 0 9 0;
#X connect 12 0 2 0;
#X connect 13 0 14 0;
#X connect 14 0 13 0;
#X restore 101 48 pd model;
#X obj 275 190 route address;
#X symbolatom 275 231 10 0 0 0 - - -, f 10;
#X obj 275 212 symbol;
#X floatatom 117 190 5 0 0 0 - - -, f 5;
#X text 229 25 device2;
#X msg 237 67 expose oscquery 10000 6789;
#X obj 117 168 ø.remote foo.[0-5]/bar*;
#X obj 237 91 ossia.device test-pat.2;
#X obj 52 242 ossia.param test[1-3];
#X floatatom 52 208 5 0 0 0 - - -, f 5;
#X floatatom 52 264 5 0 0 0 - - -, f 5;
#X obj 32 90 ø.remote test1;
#X floatatom 32 68 5 0 0 0 - - -, f 5;
#X floatatom 32 112 5 0 0 0 - - -, f 5;
#X msg 211 295 test1;
#N canvas 0 93 450 300 prepend 1;
#X obj 189 137 route address;
#X obj 189 159 list prepend set;
#X obj 189 181 list trim;
#X obj 189 115 inlet;
#X obj 189 203 outlet;
#X connect 0 0 1 0;
#X connect 1 0 2 0;
#X connect 2 0 4 0;
#X connect 3 0 0 0;
#X restore 211 273 pd prepend set;
#X connect 0 0 11 0;
#X connect 1 0 11 0;
#X connect 3 0 12 0;
#X connect 5 0 7 0;
#X connect 7 0 6 0;
#X connect 10 0 12 0;
#X connect 11 0 8 0;
#X connect 11 2 5 0;
#X connect 12 0 2 0;
#X connect 13 0 15 0;
#X connect 13 1 20 0;
#X connect 14 0 13 0;
#X connect 16 0 18 0;
#X connect 17 0 16 0;
#X connect 20 0 19 0;
#X restore 128 66 pd device2;
#N canvas 0 780 350 300 client2 1;
#X floatatom 32 49 5 0 0 0 - - -, f 5;
#X msg 82 43 dump;
#X obj 31 72 ø.remote foo.[0-5]/bar*;
#X obj 189 94 route address;
#X symbolatom 189 135 10 0 0 0 - - -, f 10;
#X obj 189 116 symbol;
#X floatatom 31 94 5 0 0 0 - - -, f 5;
#X obj 28 253 ossia.client;
#X text 227 19 client2;
#X msg 28 223 connect oscquery ws://127.0.0.1:6789;
#X connect 0 0 2 0;
#X connect 1 0 2 0;
#X connect 2 0 6 0;
#X connect 2 2 3 0;
#X connect 3 0 5 0;
#X connect 5 0 4 0;
#X connect 9 0 7 0;
#X restore 14 63 pd client2;
#X floatatom 327 195 5 0 0 0 - - -, f 5;
#X msg 378 194 dump;
#X obj 484 240 route address;
#X symbolatom 484 281 10 0 0 0 - - -, f 10;
#X obj 484 262 symbol;
#X floatatom 326 240 5 0 0 0 - - -, f 5;
#X obj 625 66 ø.remote test-pat.1:/foo.1/baron;
#X floatatom 322 48 5 0 0 0 - - -, f 5;
#X msg 374 46 dump;
#X obj 481 97 route address;
#X symbolatom 481 138 10 0 0 0 - - -, f 10;
#X obj 481 119 symbol;
#X floatatom 323 97 5 0 0 0 - - -, f 5;
#X floatatom 21 177 5 0 0 0 - - -, f 5;
#X msg 71 171 dump;
#X obj 178 222 route address;
#X symbolatom 178 263 10 0 0 0 - - -, f 10;
#X obj 178 244 symbol;
#X floatatom 20 222 5 0 0 0 - - -, f 5;
#X floatatom 903 137 5 0 0 0 - - -, f 5;
#X msg 957 132 dump;
#X obj 1064 183 route address;
#X symbolatom 1064 224 10 0 0 0 - - -, f 10;
#X obj 1064 205 symbol;
#X floatatom 906 183 5 0 0 0 - - -, f 5;
#X obj 894 41 ø.remote test-pat.1:/foo.[0-5]/bar*;
#X obj 906 161 ø.remote test-pat.2:/foo.[0-5]/bar*;
#N canvas 14 201 350 300 client3 1;
#X floatatom 32 46 5 0 0 0 - - -, f 5;
#X msg 82 43 dump;
#X obj 31 72 ø.remote foo.[0-5]/bar*;
#X obj 189 94 route address;
#X symbolatom 189 135 10 0 0 0 - - -, f 10;
#X obj 189 116 symbol;
#X floatatom 31 94 5 0 0 0 - - -, f 5;
#X obj 28 253 ossia.client;
#X text 50 9 client3 - test-pattern-companion.pat;
#X msg 28 223 connect oscquery ws://127.0.0.1:6779;
#X connect 0 0 2 0;
#X connect 1 0 2 0;
#X connect 2 0 6 0;
#X connect 2 2 3 0;
#X connect 3 0 5 0;
#X connect 5 0 4 0;
#X connect 9 0 7 0;
#X restore 21 101 pd client3;
#X obj 327 218 ø.remote test-pat.[1-3]:/foo.1/baron;
#X obj 324 75 ø.remote test-pat.*:/foo.1/baron;
#X floatatom 901 259 5 0 0 0 - - -, f 5;
#X msg 955 254 dump;
#X floatatom 904 305 5 0 0 0 - - -, f 5;
#X floatatom 625 257 5 0 0 0 - - -, f 5;
#X msg 675 251 dump;
#X floatatom 624 302 5 0 0 0 - - -, f 5;
#X obj 624 280 ø.remote test-pat.3:/foo.1/baron;
#X obj 904 283 ø.remote test-pat.3:/foo.[0-5]/bar*;
#X floatatom 623 176 5 0 0 0 - - -, f 5;
#X msg 673 170 dump;
#X floatatom 622 221 5 0 0 0 - - -, f 5;
#X obj 21 200 ø.remote test-pat.[1-3]:/foo.[0-5]/bar*;
#X obj 622 199 ø.remote test-pat.2:/foo.1/baron;
#X connect 2 0 38 0;
#X connect 3 0 38 0;
#X connect 4 0 6 0;
#X connect 6 0 5 0;
#X connect 8 0 19 0;
#X connect 9 0 19 0;
#X connect 13 0 41 0;
#X connect 14 0 41 0;
#X connect 15 0 17 0;
#X connect 17 0 16 0;
#X connect 19 0 10 0;
#X connect 20 0 42 0;
#X connect 21 0 42 0;
#X connect 22 0 24 0;
#X connect 24 0 23 0;
#X connect 26 0 54 0;
#X connect 27 0 54 0;
#X connect 28 0 30 0;
#X connect 30 0 29 0;
#X connect 32 0 39 0;
#X connect 33 0 39 0;
#X connect 34 0 36 0;
#X connect 36 0 35 0;
#X connect 38 0 7 0;
#X connect 38 2 4 0;
#X connect 39 0 37 0;
#X connect 39 2 34 0;
#X connect 41 0 18 0;
#X connect 41 2 15 0;
#X connect 42 0 25 0;
#X connect 42 2 22 0;
#X connect 43 0 50 0;
#X connect 44 0 50 0;
#X connect 46 0 49 0;
#X connect 47 0 49 0;
#X connect 49 0 48 0;
#X connect 50 0 45 0;
#X connect 51 0 55 0;
#X connect 52 0 55 0;
#X connect 54 0 31 0;
#X connect 54 2 28 0;
#X connect 55 0 53 0;
