#N canvas 1224 341 450 300 10;
#X floatatom 118 145 5 0 0 0 - - -, f 5;
#X msg 168 139 dump;
#X obj 99 249 ø;
#X obj 99 271 print ossia;
#X msg 99 224 namespace;
#N canvas 654 344 556 300 model 1;
#X obj 204 140 ø.model foo.1;
#X floatatom 107 80 5 0 0 0 - - -, f 5;
#X floatatom 307 80 5 0 0 0 - - -, f 5;
#X floatatom 413 81 5 0 0 0 - - -, f 5;
#X floatatom 114 22 5 0 0 0 - - -, f 5;
#X floatatom 303 24 5 0 0 0 - - -, f 5;
#X floatatom 418 22 5 0 0 0 - - -, f 5;
#X obj 414 60 ø.param bach;
#X obj 115 49 ø.param bar;
#X obj 59 176 ø.param bar;
#X floatatom 59 198 5 0 0 0 - - -, f 5;
#X floatatom 59 146 5 0 0 0 - - -, f 5;
#X obj 279 47 ø.param baron;
#X floatatom 325 215 5 0 0 0 - - -, f 5;
#X obj 372 214 ø.remote /foo.1/bar;
#X connect 4 0 8 0;
#X connect 5 0 12 0;
#X connect 6 0 7 0;
#X connect 7 0 3 0;
#X connect 8 0 1 0;
#X connect 9 0 10 0;
#X connect 11 0 9 0;
#X connect 12 0 2 0;
#X connect 13 0 14 0;
#X connect 14 0 13 0;
#X restore 101 48 pd model;
#X obj 117 168 ø.remote foo.[0-5]/bar*;
#X obj 275 190 route address;
#X symbolatom 275 231 10 0 0 0 - - -, f 10;
#X obj 275 212 symbol;
#X floatatom 117 190 5 0 0 0 - - -, f 5;
#X connect 0 0 6 0;
#X connect 1 0 6 0;
#X connect 2 0 3 0;
#X connect 4 0 2 0;
#X connect 6 0 10 0;
#X connect 6 2 7 0;
#X connect 7 0 9 0;
#X connect 9 0 8 0;
