#N canvas 658 473 450 300 10;
#X obj 144 62 ossia.param foo.<1..4>;
#X obj 319 98 ossia;
#X msg 319 73 namespace;
#X obj 319 120 print;
#X obj 144 109 print param;
#X floatatom 50 245 5 0 0 0 - - -, f 5;
#X msg 137 10 address foo.5;
#X msg 103 202 address foo.5;
#X msg 89 183 select foo.2;
#X msg 147 30 address foo.<1..4>;
#X msg 79 163 select;
#X obj 91 245 ossia.remote foo.<1..4>;
#X msg 51 24 select foo.3;
#X floatatom 10 28 5 0 0 0 - - -, f 5;
#X msg 52 53 unselect;
#X connect 0 0 4 0;
#X connect 0 1 4 0;
#X connect 1 0 3 0;
#X connect 2 0 1 0;
#X connect 5 0 11 0;
#X connect 6 0 0 0;
#X connect 7 0 11 0;
#X connect 8 0 11 0;
#X connect 9 0 0 0;
#X connect 10 0 11 0;
#X connect 11 0 5 0;
#X connect 12 0 0 0;
#X connect 13 0 0 0;
#X connect 14 0 0 0;
