#N canvas 583 134 1176 364 10;
#N canvas 107 480 649 300 device 1;
#X floatatom 109 150 5 0 0 0 - - -, f 5;
#X msg 168 139 dump;
#X obj 99 249 ø;
#X obj 98 272 print ossia;
#X msg 97 227 namespace;
#N canvas 302 314 556 300 model 1;
#X obj 204 140 ø.model foo.1;
#X floatatom 62 103 5 0 0 0 - - -, f 5;
#X floatatom 279 73 5 0 0 0 - - -, f 5;
#X floatatom 413 81 5 0 0 0 - - -, f 5;
#X floatatom 62 53 5 0 0 0 - - -, f 5;
#X floatatom 279 25 5 0 0 0 - - -, f 5;
#X floatatom 418 22 5 0 0 0 - - -, f 5;
#X obj 414 60 ø.param bach;
#X obj 62 76 ø.param bar;
#X obj 59 176 ø.param bar;
#X floatatom 59 198 5 0 0 0 - - -, f 5;
#X floatatom 59 146 5 0 0 0 - - -, f 5;
#X obj 279 47 ø.param baron;
#X floatatom 325 215 5 0 0 0 - - -, f 5;
#X obj 372 214 ø.remote /foo.1/bar;
#X obj 136 105 print;
#X msg 109 11 bounding_mode high;
#X msg 114 38 getbounding_mode;
#X connect 4 0 8 0;
#X connect 5 0 12 0;
#X connect 6 0 7 0;
#X connect 7 0 3 0;
#X connect 8 0 1 0;
#X connect 8 1 15 0;
#X connect 9 0 10 0;
#X connect 11 0 9 0;
#X connect 12 0 2 0;
#X connect 13 0 14 0;
#X connect 14 0 13 0;
#X connect 16 0 8 0;
#X connect 17 0 8 0;
#X restore 101 48 pd model;
#X obj 117 168 ø.remote foo.[0-5]/bar*;
#X obj 275 190 route address;
#X symbolatom 275 231 20 0 0 0 - - -, f 20;
#X obj 275 212 symbol;
#X floatatom 117 190 5 0 0 0 - - -, f 5;
#X msg 237 67 expose oscquery;
#X msg 221 38 namespace;
#X obj 236 117 print dev1;
#X obj 237 91 ossia.device test-pat.1;
#N canvas 1210 720 556 300 model 0;
#X floatatom 107 80 5 0 0 0 - - -, f 5;
#X floatatom 307 80 5 0 0 0 - - -, f 5;
#X floatatom 413 81 5 0 0 0 - - -, f 5;
#X floatatom 114 22 5 0 0 0 - - -, f 5;
#X floatatom 303 24 5 0 0 0 - - -, f 5;
#X floatatom 418 22 5 0 0 0 - - -, f 5;
#X obj 414 60 ø.param bach;
#X obj 115 49 ø.param bar;
#X obj 59 176 ø.param bar;
#X floatatom 59 198 5 0 0 0 - - -, f 5;
#X floatatom 59 146 5 0 0 0 - - -, f 5;
#X obj 279 47 ø.param baron;
#X floatatom 325 215 5 0 0 0 - - -, f 5;
#X obj 372 214 ø.remote /foo.1/bar;
#X obj 204 141 ø.model foo.2;
#X obj 373 155 ø.remote baron;
#X floatatom 313 157 5 0 0 0 - - -, f 5;
#X connect 3 0 7 0;
#X connect 4 0 11 0;
#X connect 5 0 6 0;
#X connect 6 0 2 0;
#X connect 7 0 0 0;
#X connect 8 0 9 0;
#X connect 10 0 8 0;
#X connect 11 0 1 0;
#X connect 12 0 13 0;
#X connect 13 0 12 0;
#X connect 15 0 16 0;
#X connect 16 0 15 0;
#X restore 101 68 pd model;
#X floatatom 373 138 5 0 0 0 - - -, f 5;
#X msg 432 127 dump;
#X obj 483 189 route address;
#X obj 483 211 symbol;
#X floatatom 381 178 5 0 0 0 - - -, f 5;
#X obj 380 156 ø.remote //baron;
#X obj 558 228 print;
#X symbolatom 443 239 15 0 0 0 - - -, f 15;
#X text 19 10 device;
#X connect 0 0 6 0;
#X connect 1 0 6 0;
#X connect 2 0 3 0;
#X connect 4 0 2 0;
#X connect 6 0 10 0;
#X connect 6 2 7 0;
#X connect 7 0 9 0;
#X connect 9 0 8 0;
#X connect 11 0 14 0;
#X connect 12 0 14 0;
#X connect 14 0 13 0;
#X connect 16 0 21 0;
#X connect 17 0 21 0;
#X connect 18 0 19 0;
#X connect 18 1 22 0;
#X connect 19 0 23 0;
#X connect 21 0 20 0;
#X connect 21 2 18 0;
#X restore 127 29 pd device;
#N canvas 336 669 347 297 client 0;
#X floatatom 32 49 5 0 0 0 - - -, f 5;
#X msg 82 43 dump;
#X obj 31 72 ø.remote foo.[0-5]/bar*;
#X obj 189 94 route address;
#X symbolatom 189 135 10 0 0 0 - - -, f 10;
#X obj 189 116 symbol;
#X floatatom 31 94 5 0 0 0 - - -, f 5;
#X obj 28 253 ossia.client;
#X msg 28 223 connect oscquery;
#X connect 0 0 2 0;
#X connect 1 0 2 0;
#X connect 2 0 6 0;
#X connect 2 2 3 0;
#X connect 3 0 5 0;
#X connect 5 0 4 0;
#X connect 8 0 7 0;
#X restore 17 33 pd client;
#X floatatom 891 17 5 0 0 0 - - -, f 5;
#X msg 945 12 dump;
#X obj 1052 63 route address;
#X symbolatom 1052 104 10 0 0 0 - - -, f 10;
#X obj 1052 85 symbol;
#X floatatom 894 63 5 0 0 0 - - -, f 5;
#X floatatom 627 30 5 0 0 0 - - -, f 5;
#X msg 677 24 dump;
#X floatatom 626 75 5 0 0 0 - - -, f 5;
#N canvas 769 392 901 519 device2 1;
#X floatatom 115 146 5 0 0 0 - - -, f 5;
#X msg 168 139 dump;
#N canvas 798 694 556 300 model 0;
#X obj 192 117 ø.model foo.1;
#X floatatom 107 80 5 0 0 0 - - -, f 5;
#X floatatom 307 80 5 0 0 0 - - -, f 5;
#X floatatom 413 81 5 0 0 0 - - -, f 5;
#X floatatom 114 22 5 0 0 0 - - -, f 5;
#X floatatom 303 24 5 0 0 0 - - -, f 5;
#X floatatom 418 22 5 0 0 0 - - -, f 5;
#X obj 414 60 ø.param bach;
#X obj 115 49 ø.param bar;
#X obj 59 176 ø.param bar;
#X floatatom 59 198 5 0 0 0 - - -, f 5;
#X floatatom 59 146 5 0 0 0 - - -, f 5;
#X obj 279 47 ø.param baron;
#X floatatom 325 215 5 0 0 0 - - -, f 5;
#X obj 372 214 ø.remote /foo.1/bar;
#N canvas 1240 135 572 496 submodel 0;
#X obj 267 84 ø.model sub;
#X obj 84 160 ø.param foo;
#X floatatom 33 114 5 0 0 0 - - -, f 5;
#X msg 87 122 dump;
#X msg 130 124 getaddress;
#X obj 267 120 route address;
#X obj 267 142 list prepend set;
#X obj 267 164 list trim;
#X msg 267 186 test-pat.2:/foo.1/sub;
#X msg 267 37 getaddress;
#X obj 212 208 list prepend set;
#X obj 212 230 list trim;
#X msg 212 252 rate 10;
#X text 28 0 test-pat.2:/foo.1/sub;
#X floatatom 64 200 5 0 0 0 - - -, f 5;
#X msg 71 76 addre;
#X floatatom 39 339 5 0 0 0 - - -, f 5;
#X msg 93 306 dump;
#X msg 136 308 getaddress;
#X obj 218 392 list prepend set;
#X obj 218 414 list trim;
#X msg 218 436 address foo;
#X floatatom 70 384 5 0 0 0 - - -, f 5;
#X msg 77 260 addre;
#X obj 90 344 ø.remote foo, f 14;
#X connect 0 0 5 0;
#X connect 1 0 14 0;
#X connect 1 1 10 0;
#X connect 2 0 1 0;
#X connect 3 0 1 0;
#X connect 4 0 1 0;
#X connect 5 0 6 0;
#X connect 6 0 7 0;
#X connect 7 0 8 0;
#X connect 9 0 0 0;
#X connect 10 0 11 0;
#X connect 11 0 12 0;
#X connect 15 0 1 0;
#X connect 16 0 24 0;
#X connect 17 0 24 0;
#X connect 18 0 24 0;
#X connect 19 0 20 0;
#X connect 20 0 21 0;
#X connect 23 0 24 0;
#X connect 24 0 22 0;
#X connect 24 0 16 0;
#X connect 24 2 19 0;
#X restore 52 264 pd submodel;
#X text 176 240 test-pat.2/foo.1/;
#X msg 192 92 getaddress;
#X obj 192 139 route address;
#X obj 192 161 list prepend set;
#X obj 192 183 list trim;
#X msg 192 205 test-pat.2:/foo.1;
#N canvas 1346 725 450 300 subview 0;
#X obj 154 99 ø.view sub;
#X obj 273 168 ø.remote foo;
#X floatatom 222 167 5 0 0 0 - - -, f 5;
#X connect 1 0 2 0;
#X connect 2 0 1 0;
#X restore 257 266 pd subview;
#X connect 0 0 18 0;
#X connect 4 0 8 0;
#X connect 5 0 12 0;
#X connect 6 0 7 0;
#X connect 7 0 3 0;
#X connect 8 0 1 0;
#X connect 9 0 10 0;
#X connect 11 0 9 0;
#X connect 12 0 2 0;
#X connect 13 0 14 0;
#X connect 14 0 13 0;
#X connect 17 0 0 0;
#X connect 18 0 19 0;
#X connect 19 0 20 0;
#X connect 20 0 21 0;
#X restore 101 48 pd model;
#X obj 275 190 route address;
#X symbolatom 275 231 10 0 0 0 - - -, f 10;
#X obj 275 212 symbol;
#X floatatom 117 190 5 0 0 0 - - -, f 5;
#X text 4 3 device2;
#X msg 237 67 expose oscquery 10000 6789;
#X obj 117 168 ø.remote foo.[0-5]/bar*;
#X obj 237 91 ossia.device test-pat.2;
#X floatatom 30 120 5 0 0 0 - - -, f 5;
#X floatatom 31 72 5 0 0 0 - - -, f 5;
#X floatatom 33 290 5 0 0 0 - - -, f 5;
#X floatatom 33 237 5 0 0 0 - - -, f 5;
#X msg 223 46 namespace;
#X obj 237 114 print;
#X obj 33 257 ø.param test.[0-5]/barista @type float @default 12 @bounding_mode
CLIP;
#X floatatom 509 71 5 0 0 0 - - -, f 5;
#X msg 581 61 dump;
#X floatatom 513 121 5 0 0 0 - - -, f 5;
#X floatatom 553 278 5 0 0 0 - - -, f 5;
#X msg 603 272 dump;
#X floatatom 552 323 5 0 0 0 - - -, f 5;
#X obj 552 301 ø.remote test.1/barista;
#X obj 513 99 ø.remote test.[0-5]/bar*;
#X obj 30 98 ø.remote test.1/barista;
#X floatatom 33 403 5 0 0 0 - - -, f 5;
#X floatatom 33 350 5 0 0 0 - - -, f 5;
#X symbolatom 380 320 20 0 0 0 address: - -, f 20;
#X msg 76 235 mute \$1;
#X obj 76 215 tgl 15 0 empty empty empty 17 7 0 10 -262144 -1 -1 0
1;
#X obj 146 215 tgl 15 0 empty empty empty 17 7 0 10 -262144 -1 -1 0
1;
#X msg 146 235 enable \$1;
#N canvas 0 93 450 433 speedlim 0;
#X obj 224 166 route address;
#X obj 224 188 symbol;
#X obj 224 240 spigot 1;
#X msg 289 285 0;
#X obj 224 262 t a b b;
#X obj 247 306 del 0;
#X msg 247 328 1;
#X obj 220 353 outlet;
#X obj 224 137 inlet;
#X obj 312 204 outlet;
#X connect 0 0 1 0;
#X connect 0 1 9 0;
#X connect 1 0 2 0;
#X connect 2 0 4 0;
#X connect 3 0 2 1;
#X connect 4 0 7 0;
#X connect 4 1 5 0;
#X connect 4 2 3 0;
#X connect 5 0 6 0;
#X connect 6 0 2 1;
#X connect 8 0 0 0;
#X restore 380 294 pd speedlim;
#X symbolatom 408 436 20 0 0 0 address: - -, f 20;
#X symbolatom 710 351 20 0 0 0 address: - -, f 20;
#X symbolatom 678 150 20 0 0 0 address: - -, f 20;
#N canvas 0 93 450 433 (subpatch) 0;
#X obj 224 166 route address;
#X obj 224 188 symbol;
#X obj 224 209 outlet;
#X obj 224 137 inlet;
#X connect 0 0 1 0;
#X connect 1 0 2 0;
#X connect 3 0 0 0;
#X restore 678 124 pd;
#N canvas 0 93 450 433 (subpatch) 0;
#X obj 224 166 route address;
#X obj 224 188 symbol;
#X obj 224 209 outlet;
#X obj 224 137 inlet, f 2;
#X obj 292 201 outlet;
#X connect 0 0 1 0;
#X connect 0 1 4 0;
#X connect 1 0 2 0;
#X connect 3 0 0 0;
#X restore 710 328 pd;
#N canvas 0 93 450 433 (subpatch) 0;
#X obj 224 166 route address;
#X obj 224 188 symbol;
#X obj 224 209 outlet;
#X obj 224 137 inlet, f 2;
#X connect 0 0 1 0;
#X connect 1 0 2 0;
#X connect 3 0 0 0;
#X restore 408 411 pd;
#X floatatom 653 239 5 0 0 0 - - -, f 5;
#X msg 653 258 description Something meeaningful;
#X msg 387 200 bounding_mode high;
#X obj 33 370 ø.param test.<7..11>/bar.[0-5]/b[a-f]r.[0-1] @type float
@default 12 @bounding_mode CLIP;
#X msg 392 227 getbounding_mode;
#X msg 524 198 bounding_mode clip;
#X msg 722 280 bounding_mode high;
#X msg 665 209 getbounding_mode;
#X msg 690 229 bounding_mode clip;
#X obj 739 330 print R;
#X obj 472 292 print P;
#X connect 0 0 9 0;
#X connect 1 0 9 0;
#X connect 3 0 5 0;
#X connect 5 0 4 0;
#X connect 8 0 10 0;
#X connect 9 0 6 0;
#X connect 9 2 3 0;
#X connect 10 0 16 0;
#X connect 12 0 26 0;
#X connect 14 0 17 0;
#X connect 15 0 10 0;
#X connect 17 0 13 0;
#X connect 17 1 34 0;
#X connect 18 0 25 0;
#X connect 19 0 25 0;
#X connect 21 0 24 0;
#X connect 22 0 24 0;
#X connect 24 0 23 0;
#X connect 24 2 39 0;
#X connect 25 0 20 0;
#X connect 25 2 38 0;
#X connect 26 0 11 0;
#X connect 28 0 44 0;
#X connect 30 0 17 0;
#X connect 31 0 30 0;
#X connect 32 0 33 0;
#X connect 33 0 17 0;
#X connect 34 0 29 0;
#X connect 34 1 51 0;
#X connect 38 0 37 0;
#X connect 39 0 36 0;
#X connect 39 1 50 0;
#X connect 40 0 35 0;
#X connect 41 0 42 0;
#X connect 42 0 24 0;
#X connect 43 0 17 0;
#X connect 44 0 27 0;
#X connect 44 1 40 0;
#X connect 45 0 17 0;
#X connect 46 0 17 0;
#X connect 47 0 24 0;
#X connect 48 0 24 0;
#X connect 49 0 24 0;
#X restore 128 66 pd device2;
#N canvas 1013 530 727 321 client2 0;
#X floatatom 31 42 5 0 0 0 - - -, f 5;
#X msg 82 43 dump;
#X obj 31 72 ø.remote foo.[0-5]/bar*;
#X floatatom 31 94 5 0 0 0 - - -, f 5;
#X obj 28 253 ossia.client;
#X text 227 19 client2;
#X msg 28 223 connect oscquery ws://127.0.0.1:6789;
#X floatatom 385 26 5 0 0 0 - - -, f 5;
#X msg 427 28 dump;
#X obj 385 57 ø.remote test.[0-5]/barista;
#X floatatom 364 170 5 0 0 0 - - -, f 5;
#X msg 423 166 dump;
#X obj 372 195 ø.remote test.1/barista;
#X symbolatom 189 124 20 0 0 0 address: - -, f 20;
#N canvas 0 93 450 433 speedlim 0;
#X obj 224 166 route address;
#X obj 224 188 symbol;
#X obj 224 240 spigot 1;
#X msg 289 285 0;
#X obj 224 262 t a b b;
#X obj 247 306 del 0;
#X msg 247 328 1;
#X obj 224 349 outlet;
#X obj 224 137 inlet;
#X connect 0 0 1 0;
#X connect 1 0 2 0;
#X connect 2 0 4 0;
#X connect 3 0 2 1;
#X connect 4 0 7 0;
#X connect 4 1 5 0;
#X connect 4 2 3 0;
#X connect 5 0 6 0;
#X connect 6 0 2 1;
#X connect 8 0 0 0;
#X restore 189 98 pd speedlim;
#X symbolatom 571 105 20 0 0 0 address: - -, f 20;
#X symbolatom 530 243 20 0 0 0 address: - -, f 20;
#N canvas 0 93 450 433 speedlim 0;
#X obj 224 166 route address;
#X obj 224 188 symbol;
#X obj 224 240 spigot 1;
#X msg 289 285 0;
#X obj 224 262 t a b b;
#X obj 247 306 del 0;
#X msg 247 328 1;
#X obj 224 349 outlet;
#X obj 224 137 inlet;
#X connect 0 0 1 0;
#X connect 1 0 2 0;
#X connect 2 0 4 0;
#X connect 3 0 2 1;
#X connect 4 0 7 0;
#X connect 4 1 5 0;
#X connect 4 2 3 0;
#X connect 5 0 6 0;
#X connect 6 0 2 1;
#X connect 8 0 0 0;
#X restore 530 217 pd speedlim;
#X floatatom 385 100 5 0 0 0 - - -, f 5;
#X floatatom 372 239 5 0 0 0 - - -, f 5;
#N canvas 0 93 450 433 (subpatch) 0;
#X obj 224 166 route address;
#X obj 224 188 symbol;
#X obj 224 209 outlet;
#X obj 224 137 inlet, f 2;
#X connect 0 0 1 0;
#X connect 1 0 2 0;
#X connect 3 0 0 0;
#X restore 571 82 pd;
#X connect 0 0 2 0;
#X connect 1 0 2 0;
#X connect 2 0 3 0;
#X connect 2 2 14 0;
#X connect 6 0 4 0;
#X connect 7 0 9 0;
#X connect 8 0 9 0;
#X connect 9 0 18 0;
#X connect 9 2 20 0;
#X connect 10 0 12 0;
#X connect 11 0 12 0;
#X connect 12 0 19 0;
#X connect 12 2 17 0;
#X connect 14 0 13 0;
#X connect 17 0 16 0;
#X connect 20 0 15 0;
#X restore 14 63 pd client2;
#X floatatom 327 169 5 0 0 0 - - -, f 5;
#X msg 378 168 dump;
#X obj 484 214 route address;
#X symbolatom 484 255 10 0 0 0 - - -, f 10;
#X obj 484 236 symbol;
#X floatatom 326 214 5 0 0 0 - - -, f 5;
#X obj 626 53 ø.remote test-pat.1:/foo.1/baron;
#X floatatom 322 48 5 0 0 0 - - -, f 5;
#X msg 374 46 dump;
#X obj 481 97 route address;
#X symbolatom 481 138 10 0 0 0 - - -, f 10;
#X obj 481 119 symbol;
#X floatatom 323 97 5 0 0 0 - - -, f 5;
#X floatatom 21 151 5 0 0 0 - - -, f 5;
#X msg 71 145 dump;
#X obj 178 196 route address;
#X symbolatom 178 237 10 0 0 0 - - -, f 10;
#X obj 178 218 symbol;
#X floatatom 20 196 5 0 0 0 - - -, f 5;
#X floatatom 903 137 5 0 0 0 - - -, f 5;
#X msg 957 132 dump;
#X obj 1064 183 route address;
#X symbolatom 1064 224 10 0 0 0 - - -, f 10;
#X obj 1064 205 symbol;
#X floatatom 906 183 5 0 0 0 - - -, f 5;
#X obj 894 41 ø.remote test-pat.1:/foo.[0-5]/bar*;
#X obj 906 161 ø.remote test-pat.2:/foo.[0-5]/bar*;
#N canvas 14 228 350 300 client3 0;
#X floatatom 32 46 5 0 0 0 - - -, f 5;
#X msg 82 43 dump;
#X obj 31 72 ø.remote foo.[0-5]/bar*;
#X obj 189 94 route address;
#X symbolatom 189 135 10 0 0 0 - - -, f 10;
#X obj 189 116 symbol;
#X floatatom 31 94 5 0 0 0 - - -, f 5;
#X obj 28 253 ossia.client;
#X text 50 9 client3 - test-pattern-companion.pat;
#X msg 28 223 connect oscquery ws://127.0.0.1:6779;
#X connect 0 0 2 0;
#X connect 1 0 2 0;
#X connect 2 0 6 0;
#X connect 2 2 3 0;
#X connect 3 0 5 0;
#X connect 5 0 4 0;
#X connect 9 0 7 0;
#X restore 21 101 pd client3;
#X obj 327 192 ø.remote test-pat.[1-3]:/foo.1/baron;
#X obj 324 75 ø.remote test-pat.*:/foo.1/baron;
#X floatatom 901 259 5 0 0 0 - - -, f 5;
#X msg 955 254 dump;
#X floatatom 904 305 5 0 0 0 - - -, f 5;
#X floatatom 625 200 5 0 0 0 - - -, f 5;
#X msg 675 194 dump;
#X floatatom 624 245 5 0 0 0 - - -, f 5;
#X obj 624 223 ø.remote test-pat.3:/foo.1/baron;
#X obj 904 283 ø.remote test-pat.3:/foo.[0-5]/bar*;
#X floatatom 624 119 5 0 0 0 - - -, f 5;
#X msg 674 113 dump;
#X floatatom 623 164 5 0 0 0 - - -, f 5;
#X obj 21 174 ø.remote test-pat.[1-3]:/foo.[0-5]/bar*;
#X obj 623 142 ø.remote test-pat.2:/foo.1/baron;
#X floatatom 51 281 5 0 0 0 - - -, f 5;
#X msg 103 279 dump;
#X floatatom 52 330 5 0 0 0 - - -, f 5;
#X obj 53 305 ø.remote test-pat.1:/foo.1/baron \, 0.1;
#X obj 727 274 list prepend set;
#X obj 727 296 list trim;
#X msg 727 318 baron;
#X obj 726 254 route address;
#X connect 2 0 38 0;
#X connect 3 0 38 0;
#X connect 4 0 6 0;
#X connect 6 0 5 0;
#X connect 8 0 19 0;
#X connect 9 0 19 0;
#X connect 13 0 41 0;
#X connect 14 0 41 0;
#X connect 15 0 17 0;
#X connect 17 0 16 0;
#X connect 19 0 10 0;
#X connect 20 0 42 0;
#X connect 21 0 42 0;
#X connect 22 0 24 0;
#X connect 24 0 23 0;
#X connect 26 0 54 0;
#X connect 27 0 54 0;
#X connect 28 0 30 0;
#X connect 30 0 29 0;
#X connect 32 0 39 0;
#X connect 33 0 39 0;
#X connect 34 0 36 0;
#X connect 36 0 35 0;
#X connect 38 0 7 0;
#X connect 38 2 4 0;
#X connect 39 0 37 0;
#X connect 39 2 34 0;
#X connect 41 0 18 0;
#X connect 41 2 15 0;
#X connect 42 0 25 0;
#X connect 42 2 22 0;
#X connect 43 0 50 0;
#X connect 44 0 50 0;
#X connect 46 0 49 0;
#X connect 47 0 49 0;
#X connect 49 0 48 0;
#X connect 50 0 45 0;
#X connect 51 0 55 0;
#X connect 52 0 55 0;
#X connect 54 0 31 0;
#X connect 54 2 28 0;
#X connect 55 0 53 0;
#X connect 55 2 63 0;
#X connect 56 0 59 0;
#X connect 57 0 59 0;
#X connect 59 0 58 0;
#X connect 60 0 61 0;
#X connect 61 0 62 0;
#X connect 63 0 60 0;
