#N canvas 1224 341 450 592 10;
#N canvas 158 323 450 300 device 1;
#X floatatom 118 145 5 0 0 0 - - -, f 5;
#X msg 168 139 dump;
#X obj 99 249 ø;
#X obj 99 271 print ossia;
#X msg 99 224 namespace;
#N canvas 654 344 556 300 model 0;
#X obj 204 140 ø.model foo.1;
#X floatatom 107 80 5 0 0 0 - - -, f 5;
#X floatatom 307 80 5 0 0 0 - - -, f 5;
#X floatatom 413 81 5 0 0 0 - - -, f 5;
#X floatatom 114 22 5 0 0 0 - - -, f 5;
#X floatatom 303 24 5 0 0 0 - - -, f 5;
#X floatatom 418 22 5 0 0 0 - - -, f 5;
#X obj 414 60 ø.param bach;
#X obj 115 49 ø.param bar;
#X obj 59 176 ø.param bar;
#X floatatom 59 198 5 0 0 0 - - -, f 5;
#X floatatom 59 146 5 0 0 0 - - -, f 5;
#X obj 279 47 ø.param baron;
#X floatatom 325 215 5 0 0 0 - - -, f 5;
#X obj 372 214 ø.remote /foo.1/bar;
#X connect 4 0 8 0;
#X connect 5 0 12 0;
#X connect 6 0 7 0;
#X connect 7 0 3 0;
#X connect 8 0 1 0;
#X connect 9 0 10 0;
#X connect 11 0 9 0;
#X connect 12 0 2 0;
#X connect 13 0 14 0;
#X connect 14 0 13 0;
#X restore 101 48 pd model;
#X obj 117 168 ø.remote foo.[0-5]/bar*;
#X obj 275 190 route address;
#X symbolatom 275 231 10 0 0 0 - - -, f 10;
#X obj 275 212 symbol;
#X floatatom 117 190 5 0 0 0 - - -, f 5;
#X obj 237 91 ossia.device test-pattern;
#X msg 237 67 expose oscquery;
#X connect 0 0 6 0;
#X connect 1 0 6 0;
#X connect 2 0 3 0;
#X connect 4 0 2 0;
#X connect 6 0 10 0;
#X connect 6 2 7 0;
#X connect 7 0 9 0;
#X connect 9 0 8 0;
#X connect 12 0 11 0;
#X restore 236 70 pd device;
#N canvas 670 722 450 300 client 1;
#X floatatom 32 49 5 0 0 0 - - -, f 5;
#X msg 82 43 dump;
#X obj 31 72 ø.remote foo.[0-5]/bar*;
#X obj 189 94 route address;
#X symbolatom 189 135 10 0 0 0 - - -, f 10;
#X obj 189 116 symbol;
#X floatatom 31 94 5 0 0 0 - - -, f 5;
#X obj 28 253 ossia.client;
#X msg 28 223 connect oscquery;
#X connect 0 0 2 0;
#X connect 1 0 2 0;
#X connect 2 0 6 0;
#X connect 2 2 3 0;
#X connect 3 0 5 0;
#X connect 5 0 4 0;
#X connect 8 0 7 0;
#X restore 108 66 pd client;
#X floatatom 73 229 5 0 0 0 - - -, f 5;
#X msg 123 223 dump;
#X obj 230 274 route address;
#X symbolatom 230 315 10 0 0 0 - - -, f 10;
#X obj 230 296 symbol;
#X floatatom 72 274 5 0 0 0 - - -, f 5;
#X obj 72 252 ø.remote test-pattern:/foo.[0-5]/bar*;
#X floatatom 64 353 5 0 0 0 - - -, f 5;
#X msg 114 347 dump;
#X obj 221 398 route address;
#X symbolatom 221 439 10 0 0 0 - - -, f 10;
#X obj 221 420 symbol;
#X floatatom 63 398 5 0 0 0 - - -, f 5;
#X obj 63 376 ø.remote test-pattern:/foo.1/baron;
#N canvas 160 667 450 300 device2 1;
#X floatatom 118 145 5 0 0 0 - - -, f 5;
#X msg 168 139 dump;
#X obj 99 249 ø;
#X obj 99 271 print ossia;
#X msg 99 224 namespace;
#N canvas 654 344 556 300 model 1;
#X obj 204 140 ø.model foo.1;
#X floatatom 107 80 5 0 0 0 - - -, f 5;
#X floatatom 307 80 5 0 0 0 - - -, f 5;
#X floatatom 413 81 5 0 0 0 - - -, f 5;
#X floatatom 114 22 5 0 0 0 - - -, f 5;
#X floatatom 303 24 5 0 0 0 - - -, f 5;
#X floatatom 418 22 5 0 0 0 - - -, f 5;
#X obj 414 60 ø.param bach;
#X obj 115 49 ø.param bar;
#X obj 59 176 ø.param bar;
#X floatatom 59 198 5 0 0 0 - - -, f 5;
#X floatatom 59 146 5 0 0 0 - - -, f 5;
#X obj 279 47 ø.param baron;
#X floatatom 325 215 5 0 0 0 - - -, f 5;
#X obj 372 214 ø.remote /foo.1/bar;
#X text 176 240 device2/model;
#X connect 4 0 8 0;
#X connect 5 0 12 0;
#X connect 6 0 7 0;
#X connect 7 0 3 0;
#X connect 8 0 1 0;
#X connect 9 0 10 0;
#X connect 11 0 9 0;
#X connect 12 0 2 0;
#X connect 13 0 14 0;
#X connect 14 0 13 0;
#X restore 101 48 pd model;
#X obj 275 190 route address;
#X symbolatom 275 231 10 0 0 0 - - -, f 10;
#X obj 275 212 symbol;
#X floatatom 117 190 5 0 0 0 - - -, f 5;
#X text 229 25 device2;
#X msg 237 67 expose oscquery 10000 6789;
#X obj 117 168 ø.remote foo.[0-5]/bar*;
#X obj 237 91 ossia.device test-pattern32;
#X connect 0 0 12 0;
#X connect 1 0 12 0;
#X connect 2 0 3 0;
#X connect 4 0 2 0;
#X connect 6 0 8 0;
#X connect 8 0 7 0;
#X connect 11 0 13 0;
#X connect 12 0 9 0;
#X connect 12 2 6 0;
#X restore 233 95 pd device2;
#N canvas 670 722 450 300 client2 1;
#X floatatom 32 49 5 0 0 0 - - -, f 5;
#X msg 82 43 dump;
#X obj 31 72 ø.remote foo.[0-5]/bar*;
#X obj 189 94 route address;
#X symbolatom 189 135 10 0 0 0 - - -, f 10;
#X obj 189 116 symbol;
#X floatatom 31 94 5 0 0 0 - - -, f 5;
#X obj 28 253 ossia.client;
#X text 227 19 client2;
#X msg 28 223 connect oscquery ws://127.0.0.1:6789;
#X connect 0 0 2 0;
#X connect 1 0 2 0;
#X connect 2 0 6 0;
#X connect 2 2 3 0;
#X connect 3 0 5 0;
#X connect 5 0 4 0;
#X connect 9 0 7 0;
#X restore 107 98 pd client2;
#X floatatom 64 443 5 0 0 0 - - -, f 5;
#X msg 114 437 dump;
#X obj 221 488 route address;
#X symbolatom 221 529 10 0 0 0 - - -, f 10;
#X obj 221 510 symbol;
#X floatatom 63 488 5 0 0 0 - - -, f 5;
#X obj 64 466 ø.remote test-patter.*:/foo.1/baron;
#X connect 2 0 8 0;
#X connect 3 0 8 0;
#X connect 4 0 6 0;
#X connect 6 0 5 0;
#X connect 8 0 7 0;
#X connect 8 2 4 0;
#X connect 9 0 15 0;
#X connect 10 0 15 0;
#X connect 11 0 13 0;
#X connect 13 0 12 0;
#X connect 15 0 14 0;
#X connect 15 2 11 0;
#X connect 18 0 24 0;
#X connect 19 0 24 0;
#X connect 20 0 22 0;
#X connect 22 0 21 0;
#X connect 24 0 23 0;
#X connect 24 2 20 0;
