#N canvas 113 134 657 132 10;
#X text 35 19 [ø.view] allows to connect a series of [ø.remote]s
to an [ø.model] instance., f 80;
#N canvas 196 415 637 323 view 0;
#X floatatom 27 69 5 0 0 0 - - -, f 5;
#X obj 67 67 ø.remote foo;
#X text 17 264 Last but not least if you double click on [ossia.view]
the connected [ossia.model] will appear \, if it is locally available
(not over a network connection)., f 83;
#N canvas 229 804 545 204 bind_to_views 0;
#X floatatom 277 101 5 0 0 0 - - -, f 5;
#X msg 31 153 bind /my_model/my_submodel;
#X msg 92 44 bind my_submodel.1;
#X msg 35 13 dump;
#X obj 44 113 print;
#X msg 318 76 dump;
#X obj 39 76 ossia.view my_submodel;
#X text 90 7 here also \, wrong device name \, hence doesn't bind to
the correct parent viewj, f 62;
#X text 215 42 which probably prevents relative bindings, f 62;
#X text 223 154 of course \, absolute bindings still work;
#X obj 318 99 ossia.remote foo;
#X obj 367 133 print;
#X msg 363 73 bind /my_model/foo;
#X msg 444 100 bind foo;
#X connect 0 0 10 0;
#X connect 1 0 6 0;
#X connect 2 0 6 0;
#X connect 3 0 6 0;
#X connect 5 0 10 0;
#X connect 6 0 4 0;
#X connect 10 0 0 0;
#X connect 10 2 11 0;
#X connect 12 0 10 0;
#X connect 13 0 10 0;
#X restore 303 186 pd bind_to_views;
#N canvas 773 804 647 206 subview 0;
#X floatatom 38 108 5 0 0 0 - - -, f 5;
#X msg 24 20 dump;
#X obj 28 151 print;
#X msg 93 77 dump;
#X obj 23 45 ossia.view my_submodel;
#X text 184 41 as for the remote above: no fullpath \, pdpath has the
wrong device (my_model:/ instead of ossia_pd_device:/) but now \, that
doesn't work;
#X text 213 102 this doesn't work \, even though the pdpath is right
(but doesn't mention the device (starts with slash) the object is not
registered;
#X obj 133 138 route address;
#X obj 87 107 ossia.remote foo;
#X connect 0 0 8 0;
#X connect 1 0 4 0;
#X connect 3 0 8 0;
#X connect 4 0 2 0;
#X connect 7 1 2 0;
#X connect 8 0 0 0;
#X connect 8 2 7 0;
#X restore 197 140 pd subview;
#X msg 16 1 dump;
#X obj 16 88 print;
#X msg 78 47 dump;
#X text 167 16 the fullpath = pdpath = correct, f 61;
#X text 150 54 no fullpath \, pdpath has the wrong device (my_model:/
instead of ossia_pd_device:/) \, yet \, (and surprisingly) \, that
works !;
#X text 19 140 nested views don't work:;
#X text 152 81 ( notice that the object is not registered \, but it's
not quarantined either - maybe that's why it works... );
#X text 15 187 same problem here with dynamic bindings:;
#X msg 69 2 namespace;
#X msg 463 179 dump;
#X msg 443 160 bim bam boum;
#X msg 443 226, f 19;
#X obj 443 202 ø.remote nuplet;
#X obj 17 28 ossia.view my_model;
#X connect 0 0 1 0;
#X connect 1 0 0 0;
#X connect 1 2 6 0;
#X connect 5 0 18 0;
#X connect 7 0 1 0;
#X connect 13 0 18 0;
#X connect 14 0 17 0;
#X connect 15 0 17 0;
#X connect 17 0 16 0;
#X connect 18 0 6 0;
#X restore 154 55 pd view;
#N canvas 882 336 425 248 models 0;
#X obj 220 25 ossia.model my_model;
#X obj 47 58 ossia.param foo;
#N canvas 1526 700 215 81 submodel 0;
#X obj 18 8 ossia.model my_submodel;
#X obj 18 31 ossia.param foo;
#N canvas 1541 474 202 76 submodel 0;
#X obj 17 33 ossia.param foo;
#X obj 17 9 ossia.model my_subsubmodel;
#X floatatom 17 55 5 0 0 0 - - -, f 5;
#X connect 0 0 2 0;
#X restore 91 51 pd submodel;
#X floatatom 18 53 5 0 0 0 - - -, f 5;
#X connect 1 0 3 0;
#X restore 47 116 pd submodel;
#N canvas 958 199 247 84 submodel 0;
#X obj 17 11 ossia.model my_submodel;
#X obj 20 38 ossia.param foo;
#N canvas 1274 417 198 86 submodel 0;
#X obj 26 36 ossia.param foo;
#X obj 24 11 ossia.model my_subsubmodel;
#X floatatom 26 58 5 0 0 0 - - -, f 5;
#X connect 0 0 2 0;
#X restore 91 61 pd submodel;
#X floatatom 20 60 5 0 0 0 - - -, f 5;
#X connect 1 0 3 0;
#X restore 47 150 pd submodel;
#X floatatom 47 80 9 0 0 0 - - -, f 9;
#X obj 166 174 list prepend set;
#X obj 166 196 list trim;
#X msg 166 218 130 bim bam boum;
#X msg 161 116 bim bam boum;
#X floatatom 139 98 5 0 0 0 - - -, f 5;
#X obj 166 152 ossia.param nuplet @type list;
#X obj 220 47 print model_namespace;
#X msg 219 1 namespace;
#X msg 265 122 \$1 bim bam boum;
#X floatatom 265 104 5 0 0 0 - - -, f 5;
#X connect 0 0 11 0;
#X connect 1 0 4 0;
#X connect 5 0 6 0;
#X connect 6 0 7 0;
#X connect 8 0 10 0;
#X connect 9 0 10 0;
#X connect 10 0 5 0;
#X connect 12 0 0 0;
#X connect 13 0 10 0;
#X connect 14 0 13 0;
#X restore 396 55 pd models;
#N canvas 307 374 473 124 ossia/ø 0;
#X text 62 56 ossia.theNameOftheObject;
#X text 47 28 all ossia-pd objects can indifferently be named:;
#X text 63 76 ø.theNameOftheObject;
#X restore 19 92 pd ossia/ø;
#X text 26 56 this subpatcher:;
#X text 215 56 controls params in there:;
#X obj 207 95 ossia;
#X msg 118 97 namespace;
#X obj 261 95 print;
#X connect 6 0 8 0;
#X connect 7 0 6 0;
