#N canvas 389 22 844 363 10;
#X msg 121 103 gettype;
#X msg 203 103 getunit;
#X msg 121 196 gettype;
#X msg 203 196 getunit;
#X obj 121 232 ossia.param color @type rgba;
#X obj 121 139 ossia.param gain @type db;
#X obj 292 162 print gain;
#X obj 314 254 print color;
#X msg 450 108 gettype;
#X msg 532 108 getunit;
#X obj 634 177 print gain-remote;
#X msg 462 71 type linear;
#X obj 450 144 ossia.remote gain @unit linear;
#X floatatom 404 147 5 0 0 0 - - -, f 5;
#X floatatom 121 163 5 0 0 0 - - -, f 5;
#X connect 0 0 5 0;
#X connect 1 0 5 0;
#X connect 2 0 4 0;
#X connect 3 0 4 0;
#X connect 4 1 7 0;
#X connect 5 0 14 0;
#X connect 5 1 6 0;
#X connect 8 0 12 0;
#X connect 9 0 12 0;
#X connect 11 0 12 0;
#X connect 12 0 13 0;
#X connect 12 2 10 0;
#X connect 13 0 12 0;
