#N canvas 201 111 815 468 10;
#X obj 27 145 ossia.parameter color.<red|green|blue> @type argb;
#X obj 30 193 unpack 0 0 0 0, f 22;
#X floatatom 30 217 5 0 0 0 - - -, f 5;
#X floatatom 73 216 5 0 0 0 - - -, f 5;
#X floatatom 116 216 5 0 0 0 - - -, f 5;
#X floatatom 159 217 5 0 0 0 - - -, f 5;
#N canvas 0 151 450 300 set 0;
#X obj 161 163 pack 0 0 0 0;
#X floatatom 161 105 5 0 0 0 - - -, f 5;
#X floatatom 201 105 5 0 0 0 - - -, f 5;
#X floatatom 241 105 5 0 0 0 - - -, f 5;
#X floatatom 281 105 5 0 0 0 - - -, f 5;
#X obj 281 133 t b f;
#X obj 241 133 t b f;
#X obj 201 133 t b f;
#X obj 161 185 outlet;
#X connect 0 0 8 0;
#X connect 1 0 0 0;
#X connect 2 0 7 0;
#X connect 3 0 6 0;
#X connect 4 0 5 0;
#X connect 5 0 1 0;
#X connect 5 1 0 3;
#X connect 6 0 1 0;
#X connect 6 1 0 2;
#X connect 7 0 1 0;
#X connect 7 1 0 1;
#X coords 0 -1 1 1 220 25 1 100 100;
#X restore 27 60 pd set;
#X obj 483 164 unpack 0 0 0 0, f 22;
#X floatatom 483 188 5 0 0 0 - - -, f 5;
#X floatatom 526 187 5 0 0 0 - - -, f 5;
#X floatatom 569 187 5 0 0 0 - - -, f 5;
#X floatatom 612 188 5 0 0 0 - - -, f 5;
#N canvas 0 151 450 300 set 0;
#X obj 161 163 pack 0 0 0 0;
#X floatatom 161 105 5 0 0 0 - - -, f 5;
#X floatatom 201 105 5 0 0 0 - - -, f 5;
#X floatatom 241 105 5 0 0 0 - - -, f 5;
#X floatatom 281 105 5 0 0 0 - - -, f 5;
#X obj 281 133 t b f;
#X obj 241 133 t b f;
#X obj 201 133 t b f;
#X obj 161 185 outlet;
#X connect 0 0 8 0;
#X connect 1 0 0 0;
#X connect 2 0 7 0;
#X connect 3 0 6 0;
#X connect 4 0 5 0;
#X connect 5 0 1 0;
#X connect 5 1 0 3;
#X connect 6 0 1 0;
#X connect 6 1 0 2;
#X connect 7 0 1 0;
#X connect 7 1 0 1;
#X coords 0 -1 1 1 220 25 1 100 100;
#X restore 479 61 pd set;
#X obj 480 116 ossia.remote color! @unit hsv;
#X msg 54 108 gettype;
#X obj 387 216 print;
#X msg 126 109 getunit;
#X obj 43 394 unpack 0 0 0 0, f 22;
#X floatatom 43 418 5 0 0 0 - - -, f 5;
#X floatatom 86 417 5 0 0 0 - - -, f 5;
#X floatatom 129 417 5 0 0 0 - - -, f 5;
#X floatatom 172 418 5 0 0 0 - - -, f 5;
#N canvas 0 151 450 300 set 0;
#X obj 161 163 pack 0 0 0 0;
#X floatatom 161 105 5 0 0 0 - - -, f 5;
#X floatatom 201 105 5 0 0 0 - - -, f 5;
#X floatatom 241 105 5 0 0 0 - - -, f 5;
#X floatatom 281 105 5 0 0 0 - - -, f 5;
#X obj 281 133 t b f;
#X obj 241 133 t b f;
#X obj 201 133 t b f;
#X obj 161 185 outlet;
#X connect 0 0 8 0;
#X connect 1 0 0 0;
#X connect 2 0 7 0;
#X connect 3 0 6 0;
#X connect 4 0 5 0;
#X connect 5 0 1 0;
#X connect 5 1 0 3;
#X connect 6 0 1 0;
#X connect 6 1 0 2;
#X connect 7 0 1 0;
#X connect 7 1 0 1;
#X coords 0 -1 1 1 220 25 1 100 100;
#X restore 40 261 pd set;
#X obj 494 392 unpack 0 0 0 0, f 22;
#X floatatom 494 416 5 0 0 0 - - -, f 5;
#X floatatom 537 415 5 0 0 0 - - -, f 5;
#X floatatom 580 415 5 0 0 0 - - -, f 5;
#X floatatom 623 416 5 0 0 0 - - -, f 5;
#N canvas 0 151 450 300 set 0;
#X obj 161 163 pack 0 0 0 0;
#X floatatom 161 105 5 0 0 0 - - -, f 5;
#X floatatom 201 105 5 0 0 0 - - -, f 5;
#X floatatom 241 105 5 0 0 0 - - -, f 5;
#X floatatom 281 105 5 0 0 0 - - -, f 5;
#X obj 281 133 t b f;
#X obj 241 133 t b f;
#X obj 201 133 t b f;
#X obj 161 185 outlet;
#X connect 0 0 8 0;
#X connect 1 0 0 0;
#X connect 2 0 7 0;
#X connect 3 0 6 0;
#X connect 4 0 5 0;
#X connect 5 0 1 0;
#X connect 5 1 0 3;
#X connect 6 0 1 0;
#X connect 6 1 0 2;
#X connect 7 0 1 0;
#X connect 7 1 0 1;
#X coords 0 -1 1 1 220 25 1 100 100;
#X restore 490 289 pd set;
#X msg 67 309 gettype;
#X obj 400 417 print;
#X msg 139 310 getunit;
#X obj 40 346 ossia.parameter position.<1..16> @type cart3D;
#X obj 491 344 ossia.remote position! @unit spherical;
#X connect 0 0 1 0;
#X connect 0 1 15 0;
#X connect 1 0 2 0;
#X connect 1 1 3 0;
#X connect 1 2 4 0;
#X connect 1 3 5 0;
#X connect 6 0 0 0;
#X connect 7 0 8 0;
#X connect 7 1 9 0;
#X connect 7 2 10 0;
#X connect 7 3 11 0;
#X connect 12 0 13 0;
#X connect 13 0 15 0;
#X connect 13 1 7 0;
#X connect 14 0 0 0;
#X connect 16 0 0 0;
#X connect 17 0 18 0;
#X connect 17 1 19 0;
#X connect 17 2 20 0;
#X connect 17 3 21 0;
#X connect 22 0 32 0;
#X connect 23 0 24 0;
#X connect 23 1 25 0;
#X connect 23 2 26 0;
#X connect 23 3 27 0;
#X connect 28 0 33 0;
#X connect 29 0 32 0;
#X connect 31 0 32 0;
#X connect 32 0 17 0;
#X connect 32 1 30 0;
#X connect 33 0 30 0;
#X connect 33 1 23 0;
